M48
; DRILL file {KiCad (5.1.8)-1} date 12/29/20 14:13:21
; FORMAT={3:3/ absolute / metric / suppress leading zeros}
; #@! TF.CreationDate,2020-12-29T14:13:21+09:00
; #@! TF.GenerationSoftware,Kicad,Pcbnew,(5.1.8)-1
FMAT,2
METRIC,TZ
T1C0.300
T2C0.750
T3C0.762
T4C0.950
T5C1.000
T6C2.184
T7C2.700
%
G90
G05
T1
X201000Y-143000
X201250Y-118500
X201500Y-97000
X201500Y-99750
X201500Y-102750
X201500Y-105750
X201500Y-108750
X201500Y-111500
X201500Y-113500
X205000Y-141250
X205250Y-120500
X205250Y-149000
X207750Y-102000
X207750Y-105000
X207750Y-107750
X209250Y-111250
X212500Y-149250
X213250Y-111250
X216000Y-145500
X216250Y-111750
X218000Y-113750
X219500Y-149250
X220000Y-141250
X220250Y-148250
X224000Y-143000
X226500Y-116250
X226500Y-118500
X227000Y-126500
X227000Y-137750
X228250Y-109000
X228250Y-138000
X229250Y-118500
X229500Y-115500
X230500Y-110250
X230500Y-118000
X230750Y-105250
X230750Y-113000
X230750Y-116750
X231500Y-122500
X231750Y-100500
X231750Y-121500
X232250Y-103500
X232500Y-100000
X232500Y-126250
X232500Y-134750
X233000Y-142500
X233500Y-105000
X233500Y-107000
X233500Y-108750
X233500Y-110250
X233500Y-112000
X233500Y-114000
X233500Y-115750
X233500Y-117500
X234250Y-100500
X234500Y-122000
X234750Y-126500
X235000Y-130250
X235500Y-122000
X235500Y-142500
X236500Y-111000
X236750Y-100250
X237500Y-111500
X238250Y-130250
X238500Y-106000
X239000Y-111000
X239000Y-142500
X239500Y-121500
X239500Y-126250
X239750Y-134750
X240500Y-122750
X240750Y-100750
X240750Y-102750
X240750Y-113500
X241000Y-115250
X241500Y-109250
X241500Y-142500
X242250Y-126500
X242750Y-130250
X243750Y-112500
X245000Y-142500
X245750Y-130250
X247000Y-121750
X247000Y-126500
X247250Y-100500
X247500Y-134750
X247500Y-142500
X248000Y-122750
X249500Y-117750
X249500Y-122000
X249750Y-126500
X250250Y-130250
X250750Y-122250
X251000Y-142500
X251500Y-117750
X252500Y-105500
X252500Y-118750
X253500Y-142500
X253750Y-130250
X254000Y-121750
X254750Y-122500
X255000Y-126250
X255000Y-134500
X257250Y-126500
X258000Y-130250
X259000Y-111750
X259000Y-118750
X261250Y-130250
X262250Y-121000
X262500Y-126250
X262500Y-134750
X263250Y-122750
X263500Y-100250
X263500Y-102750
X263500Y-105250
X263500Y-107500
X263500Y-110000
X264000Y-135500
X264000Y-137750
X264000Y-140000
X264000Y-142250
X264000Y-144500
X264250Y-127500
X264250Y-131000
T2
X220500Y-115500
X222500Y-115500
T3
X219420Y-104190
X219420Y-111810
X221960Y-104190
X221960Y-111810
X224500Y-104190
X224500Y-111810
X227040Y-104190
X227040Y-111810
X229580Y-104190
X229580Y-111810
T4
X249250Y-139500
X249250Y-142000
X249250Y-144500
X249250Y-147000
X255250Y-139500
X255250Y-142000
X255250Y-144500
X255250Y-147000
X237250Y-139500
X237250Y-142000
X237250Y-144500
X237250Y-147000
X227250Y-139500
X227250Y-142000
X227250Y-144500
X227250Y-147000
X231250Y-139500
X231250Y-142000
X231250Y-144500
X231250Y-147000
X243250Y-139500
X243250Y-142000
X243250Y-144500
X243250Y-147000
T5
X206420Y-116750
X208960Y-116750
X211500Y-116750
X214040Y-116750
X216580Y-116750
X208370Y-96230
X208370Y-98770
X210910Y-96230
X210910Y-98770
X213450Y-96230
X213450Y-98770
X215990Y-96230
X215990Y-98770
X218530Y-96230
X218530Y-98770
X221070Y-96230
X221070Y-98770
X223610Y-96230
X223610Y-98770
X226150Y-96230
X226150Y-98770
X228690Y-96230
X228690Y-98770
X231230Y-96230
X231230Y-98770
X233770Y-96230
X233770Y-98770
X236310Y-96230
X236310Y-98770
X238850Y-96230
X238850Y-98770
X241390Y-96230
X241390Y-98770
X243930Y-96230
X243930Y-98770
X246470Y-96230
X246470Y-98770
X249010Y-96230
X249010Y-98770
X251550Y-96230
X251550Y-98770
X254090Y-96230
X254090Y-98770
X256630Y-96230
X256630Y-98770
X217500Y-146500
X220000Y-146500
T6
X202356Y-115734
X215564Y-102526
T7
X261500Y-146500
X203500Y-146500
X261500Y-97500
T0
M30
