G04 #@! TF.GenerationSoftware,KiCad,Pcbnew,(5.1.8)-1*
G04 #@! TF.CreationDate,2020-12-29T14:13:16+09:00*
G04 #@! TF.ProjectId,RasPi4-UART-RS485,52617350-6934-42d5-9541-52542d525334,rev?*
G04 #@! TF.SameCoordinates,Original*
G04 #@! TF.FileFunction,Soldermask,Top*
G04 #@! TF.FilePolarity,Negative*
%FSLAX46Y46*%
G04 Gerber Fmt 4.6, Leading zero omitted, Abs format (unit mm)*
G04 Created by KiCad (PCBNEW (5.1.8)-1) date 2020-12-29 14:13:16*
%MOMM*%
%LPD*%
G01*
G04 APERTURE LIST*
%ADD10R,0.600000X1.550000*%
%ADD11C,2.700000*%
%ADD12C,1.524000*%
%ADD13O,1.200000X1.750000*%
%ADD14C,1.700000*%
%ADD15C,3.000000*%
%ADD16R,1.220000X0.650000*%
%ADD17R,0.400000X0.650000*%
%ADD18R,0.500000X0.900000*%
%ADD19R,0.900000X0.500000*%
%ADD20O,1.950000X1.700000*%
%ADD21R,0.800000X0.800000*%
%ADD22R,0.750000X0.800000*%
%ADD23R,1.700000X1.700000*%
%ADD24O,1.700000X1.700000*%
%ADD25O,1.700000X2.000000*%
G04 APERTURE END LIST*
D10*
X261905000Y-127800000D03*
X260635000Y-127800000D03*
X259365000Y-127800000D03*
X258095000Y-127800000D03*
X258095000Y-133200000D03*
X259365000Y-133200000D03*
X260635000Y-133200000D03*
X261905000Y-133200000D03*
X254405000Y-127800000D03*
X253135000Y-127800000D03*
X251865000Y-127800000D03*
X250595000Y-127800000D03*
X250595000Y-133200000D03*
X251865000Y-133200000D03*
X253135000Y-133200000D03*
X254405000Y-133200000D03*
X246905000Y-127800000D03*
X245635000Y-127800000D03*
X244365000Y-127800000D03*
X243095000Y-127800000D03*
X243095000Y-133200000D03*
X244365000Y-133200000D03*
X245635000Y-133200000D03*
X246905000Y-133200000D03*
X239405000Y-127800000D03*
X238135000Y-127800000D03*
X236865000Y-127800000D03*
X235595000Y-127800000D03*
X235595000Y-133200000D03*
X236865000Y-133200000D03*
X238135000Y-133200000D03*
X239405000Y-133200000D03*
X231905000Y-127800000D03*
X230635000Y-127800000D03*
X229365000Y-127800000D03*
X228095000Y-127800000D03*
X228095000Y-133200000D03*
X229365000Y-133200000D03*
X230635000Y-133200000D03*
X231905000Y-133200000D03*
D11*
X261500000Y-97500000D03*
D12*
X229580000Y-111810000D03*
X227040000Y-111810000D03*
X224500000Y-111810000D03*
X221960000Y-111810000D03*
X219420000Y-111810000D03*
X219420000Y-104190000D03*
X221960000Y-104190000D03*
X224500000Y-104190000D03*
X227040000Y-104190000D03*
X229580000Y-104190000D03*
D13*
X222500000Y-115500000D03*
G36*
G01*
X219900000Y-116125001D02*
X219900000Y-114874999D01*
G75*
G02*
X220149999Y-114625000I249999J0D01*
G01*
X220850001Y-114625000D01*
G75*
G02*
X221100000Y-114874999I0J-249999D01*
G01*
X221100000Y-116125001D01*
G75*
G02*
X220850001Y-116375000I-249999J0D01*
G01*
X220149999Y-116375000D01*
G75*
G02*
X219900000Y-116125001I0J249999D01*
G01*
G37*
D14*
X206420000Y-116750000D03*
X208960000Y-116750000D03*
X211500000Y-116750000D03*
X214040000Y-116750000D03*
X216580000Y-116750000D03*
D15*
X202356000Y-115734000D03*
X215564000Y-102526000D03*
D16*
X258690000Y-123550000D03*
X258690000Y-124500000D03*
X258690000Y-125450000D03*
X261310000Y-125450000D03*
X261310000Y-124500000D03*
X261310000Y-123550000D03*
X251190000Y-123550000D03*
X251190000Y-124500000D03*
X251190000Y-125450000D03*
X253810000Y-125450000D03*
X253810000Y-124500000D03*
X253810000Y-123550000D03*
X243690000Y-123550000D03*
X243690000Y-124500000D03*
X243690000Y-125450000D03*
X246310000Y-125450000D03*
X246310000Y-124500000D03*
X246310000Y-123550000D03*
X236190000Y-123550000D03*
X236190000Y-124500000D03*
X236190000Y-125450000D03*
X238810000Y-125450000D03*
X238810000Y-124500000D03*
X238810000Y-123550000D03*
X228690000Y-123550000D03*
X228690000Y-124500000D03*
X228690000Y-125450000D03*
X231310000Y-125450000D03*
X231310000Y-124500000D03*
X231310000Y-123550000D03*
D17*
X260650000Y-120050000D03*
X259350000Y-120050000D03*
X260000000Y-120050000D03*
X259350000Y-121950000D03*
X260650000Y-121950000D03*
X253150000Y-120050000D03*
X251850000Y-120050000D03*
X252500000Y-120050000D03*
X251850000Y-121950000D03*
X253150000Y-121950000D03*
X245650000Y-120050000D03*
X244350000Y-120050000D03*
X245000000Y-120050000D03*
X244350000Y-121950000D03*
X245650000Y-121950000D03*
X238150000Y-120050000D03*
X236850000Y-120050000D03*
X237500000Y-120050000D03*
X236850000Y-121950000D03*
X238150000Y-121950000D03*
X230650000Y-120050000D03*
X229350000Y-120050000D03*
X230000000Y-120050000D03*
X229350000Y-121950000D03*
X230650000Y-121950000D03*
D18*
X208000000Y-149000000D03*
X206500000Y-149000000D03*
D19*
X222000000Y-107250000D03*
X222000000Y-105750000D03*
X224500000Y-105750000D03*
X224500000Y-107250000D03*
X257100000Y-125450000D03*
X257100000Y-123950000D03*
X249600000Y-125450000D03*
X249600000Y-123950000D03*
X242100000Y-125450000D03*
X242100000Y-123950000D03*
X234600000Y-125450000D03*
X234600000Y-123950000D03*
X227100000Y-125450000D03*
X227100000Y-123950000D03*
D20*
X231250000Y-139500000D03*
X231250000Y-142000000D03*
X231250000Y-144500000D03*
G36*
G01*
X231975000Y-147850000D02*
X230525000Y-147850000D01*
G75*
G02*
X230275000Y-147600000I0J250000D01*
G01*
X230275000Y-146400000D01*
G75*
G02*
X230525000Y-146150000I250000J0D01*
G01*
X231975000Y-146150000D01*
G75*
G02*
X232225000Y-146400000I0J-250000D01*
G01*
X232225000Y-147600000D01*
G75*
G02*
X231975000Y-147850000I-250000J0D01*
G01*
G37*
X255250000Y-139500000D03*
X255250000Y-142000000D03*
X255250000Y-144500000D03*
G36*
G01*
X255975000Y-147850000D02*
X254525000Y-147850000D01*
G75*
G02*
X254275000Y-147600000I0J250000D01*
G01*
X254275000Y-146400000D01*
G75*
G02*
X254525000Y-146150000I250000J0D01*
G01*
X255975000Y-146150000D01*
G75*
G02*
X256225000Y-146400000I0J-250000D01*
G01*
X256225000Y-147600000D01*
G75*
G02*
X255975000Y-147850000I-250000J0D01*
G01*
G37*
X249250000Y-139500000D03*
X249250000Y-142000000D03*
X249250000Y-144500000D03*
G36*
G01*
X249975000Y-147850000D02*
X248525000Y-147850000D01*
G75*
G02*
X248275000Y-147600000I0J250000D01*
G01*
X248275000Y-146400000D01*
G75*
G02*
X248525000Y-146150000I250000J0D01*
G01*
X249975000Y-146150000D01*
G75*
G02*
X250225000Y-146400000I0J-250000D01*
G01*
X250225000Y-147600000D01*
G75*
G02*
X249975000Y-147850000I-250000J0D01*
G01*
G37*
X243250000Y-139500000D03*
X243250000Y-142000000D03*
X243250000Y-144500000D03*
G36*
G01*
X243975000Y-147850000D02*
X242525000Y-147850000D01*
G75*
G02*
X242275000Y-147600000I0J250000D01*
G01*
X242275000Y-146400000D01*
G75*
G02*
X242525000Y-146150000I250000J0D01*
G01*
X243975000Y-146150000D01*
G75*
G02*
X244225000Y-146400000I0J-250000D01*
G01*
X244225000Y-147600000D01*
G75*
G02*
X243975000Y-147850000I-250000J0D01*
G01*
G37*
X237250000Y-139500000D03*
X237250000Y-142000000D03*
X237250000Y-144500000D03*
G36*
G01*
X237975000Y-147850000D02*
X236525000Y-147850000D01*
G75*
G02*
X236275000Y-147600000I0J250000D01*
G01*
X236275000Y-146400000D01*
G75*
G02*
X236525000Y-146150000I250000J0D01*
G01*
X237975000Y-146150000D01*
G75*
G02*
X238225000Y-146400000I0J-250000D01*
G01*
X238225000Y-147600000D01*
G75*
G02*
X237975000Y-147850000I-250000J0D01*
G01*
G37*
X227250000Y-139500000D03*
X227250000Y-142000000D03*
X227250000Y-144500000D03*
G36*
G01*
X227975000Y-147850000D02*
X226525000Y-147850000D01*
G75*
G02*
X226275000Y-147600000I0J250000D01*
G01*
X226275000Y-146400000D01*
G75*
G02*
X226525000Y-146150000I250000J0D01*
G01*
X227975000Y-146150000D01*
G75*
G02*
X228225000Y-146400000I0J-250000D01*
G01*
X228225000Y-147600000D01*
G75*
G02*
X227975000Y-147850000I-250000J0D01*
G01*
G37*
D21*
X211300000Y-149000000D03*
X209700000Y-149000000D03*
D22*
X262800000Y-123750000D03*
X262800000Y-125250000D03*
X263500000Y-132250000D03*
X263500000Y-133750000D03*
X255300000Y-123750000D03*
X255300000Y-125250000D03*
X256000000Y-132250000D03*
X256000000Y-133750000D03*
X247800000Y-123750000D03*
X247800000Y-125250000D03*
X248500000Y-132250000D03*
X248500000Y-133750000D03*
X240300000Y-123750000D03*
X240300000Y-125250000D03*
X241000000Y-132250000D03*
X241000000Y-133750000D03*
X233500000Y-132250000D03*
X233500000Y-133750000D03*
X232800000Y-123750000D03*
X232800000Y-125250000D03*
D23*
X208370000Y-98770000D03*
D24*
X208370000Y-96230000D03*
X210910000Y-98770000D03*
X210910000Y-96230000D03*
X213450000Y-98770000D03*
X213450000Y-96230000D03*
X215990000Y-98770000D03*
X215990000Y-96230000D03*
X218530000Y-98770000D03*
X218530000Y-96230000D03*
X221070000Y-98770000D03*
X221070000Y-96230000D03*
X223610000Y-98770000D03*
X223610000Y-96230000D03*
X226150000Y-98770000D03*
X226150000Y-96230000D03*
X228690000Y-98770000D03*
X228690000Y-96230000D03*
X231230000Y-98770000D03*
X231230000Y-96230000D03*
X233770000Y-98770000D03*
X233770000Y-96230000D03*
X236310000Y-98770000D03*
X236310000Y-96230000D03*
X238850000Y-98770000D03*
X238850000Y-96230000D03*
X241390000Y-98770000D03*
X241390000Y-96230000D03*
X243930000Y-98770000D03*
X243930000Y-96230000D03*
X246470000Y-98770000D03*
X246470000Y-96230000D03*
X249010000Y-98770000D03*
X249010000Y-96230000D03*
X251550000Y-98770000D03*
X251550000Y-96230000D03*
X254090000Y-98770000D03*
X254090000Y-96230000D03*
X256630000Y-98770000D03*
X256630000Y-96230000D03*
D11*
X261500000Y-146500000D03*
X203500000Y-146500000D03*
G36*
G01*
X216650000Y-147250000D02*
X216650000Y-145750000D01*
G75*
G02*
X216900000Y-145500000I250000J0D01*
G01*
X218100000Y-145500000D01*
G75*
G02*
X218350000Y-145750000I0J-250000D01*
G01*
X218350000Y-147250000D01*
G75*
G02*
X218100000Y-147500000I-250000J0D01*
G01*
X216900000Y-147500000D01*
G75*
G02*
X216650000Y-147250000I0J250000D01*
G01*
G37*
D25*
X220000000Y-146500000D03*
M02*
