G04 #@! TF.GenerationSoftware,KiCad,Pcbnew,(5.1.8)-1*
G04 #@! TF.CreationDate,2020-12-29T14:13:16+09:00*
G04 #@! TF.ProjectId,RasPi4-UART-RS485,52617350-6934-42d5-9541-52542d525334,rev?*
G04 #@! TF.SameCoordinates,Original*
G04 #@! TF.FileFunction,Soldermask,Bot*
G04 #@! TF.FilePolarity,Negative*
%FSLAX46Y46*%
G04 Gerber Fmt 4.6, Leading zero omitted, Abs format (unit mm)*
G04 Created by KiCad (PCBNEW (5.1.8)-1) date 2020-12-29 14:13:16*
%MOMM*%
%LPD*%
G01*
G04 APERTURE LIST*
%ADD10C,2.700000*%
%ADD11C,1.524000*%
%ADD12O,1.200000X1.750000*%
%ADD13C,1.700000*%
%ADD14C,3.000000*%
%ADD15O,1.950000X1.700000*%
%ADD16R,1.700000X1.700000*%
%ADD17O,1.700000X1.700000*%
%ADD18O,1.700000X2.000000*%
G04 APERTURE END LIST*
D10*
X261500000Y-97500000D03*
D11*
X229580000Y-111810000D03*
X227040000Y-111810000D03*
X224500000Y-111810000D03*
X221960000Y-111810000D03*
X219420000Y-111810000D03*
X219420000Y-104190000D03*
X221960000Y-104190000D03*
X224500000Y-104190000D03*
X227040000Y-104190000D03*
X229580000Y-104190000D03*
D12*
X222500000Y-115500000D03*
G36*
G01*
X219900000Y-116125001D02*
X219900000Y-114874999D01*
G75*
G02*
X220149999Y-114625000I249999J0D01*
G01*
X220850001Y-114625000D01*
G75*
G02*
X221100000Y-114874999I0J-249999D01*
G01*
X221100000Y-116125001D01*
G75*
G02*
X220850001Y-116375000I-249999J0D01*
G01*
X220149999Y-116375000D01*
G75*
G02*
X219900000Y-116125001I0J249999D01*
G01*
G37*
D13*
X206420000Y-116750000D03*
X208960000Y-116750000D03*
X211500000Y-116750000D03*
X214040000Y-116750000D03*
X216580000Y-116750000D03*
D14*
X202356000Y-115734000D03*
X215564000Y-102526000D03*
D15*
X231250000Y-139500000D03*
X231250000Y-142000000D03*
X231250000Y-144500000D03*
G36*
G01*
X231975000Y-147850000D02*
X230525000Y-147850000D01*
G75*
G02*
X230275000Y-147600000I0J250000D01*
G01*
X230275000Y-146400000D01*
G75*
G02*
X230525000Y-146150000I250000J0D01*
G01*
X231975000Y-146150000D01*
G75*
G02*
X232225000Y-146400000I0J-250000D01*
G01*
X232225000Y-147600000D01*
G75*
G02*
X231975000Y-147850000I-250000J0D01*
G01*
G37*
X255250000Y-139500000D03*
X255250000Y-142000000D03*
X255250000Y-144500000D03*
G36*
G01*
X255975000Y-147850000D02*
X254525000Y-147850000D01*
G75*
G02*
X254275000Y-147600000I0J250000D01*
G01*
X254275000Y-146400000D01*
G75*
G02*
X254525000Y-146150000I250000J0D01*
G01*
X255975000Y-146150000D01*
G75*
G02*
X256225000Y-146400000I0J-250000D01*
G01*
X256225000Y-147600000D01*
G75*
G02*
X255975000Y-147850000I-250000J0D01*
G01*
G37*
X249250000Y-139500000D03*
X249250000Y-142000000D03*
X249250000Y-144500000D03*
G36*
G01*
X249975000Y-147850000D02*
X248525000Y-147850000D01*
G75*
G02*
X248275000Y-147600000I0J250000D01*
G01*
X248275000Y-146400000D01*
G75*
G02*
X248525000Y-146150000I250000J0D01*
G01*
X249975000Y-146150000D01*
G75*
G02*
X250225000Y-146400000I0J-250000D01*
G01*
X250225000Y-147600000D01*
G75*
G02*
X249975000Y-147850000I-250000J0D01*
G01*
G37*
X243250000Y-139500000D03*
X243250000Y-142000000D03*
X243250000Y-144500000D03*
G36*
G01*
X243975000Y-147850000D02*
X242525000Y-147850000D01*
G75*
G02*
X242275000Y-147600000I0J250000D01*
G01*
X242275000Y-146400000D01*
G75*
G02*
X242525000Y-146150000I250000J0D01*
G01*
X243975000Y-146150000D01*
G75*
G02*
X244225000Y-146400000I0J-250000D01*
G01*
X244225000Y-147600000D01*
G75*
G02*
X243975000Y-147850000I-250000J0D01*
G01*
G37*
X237250000Y-139500000D03*
X237250000Y-142000000D03*
X237250000Y-144500000D03*
G36*
G01*
X237975000Y-147850000D02*
X236525000Y-147850000D01*
G75*
G02*
X236275000Y-147600000I0J250000D01*
G01*
X236275000Y-146400000D01*
G75*
G02*
X236525000Y-146150000I250000J0D01*
G01*
X237975000Y-146150000D01*
G75*
G02*
X238225000Y-146400000I0J-250000D01*
G01*
X238225000Y-147600000D01*
G75*
G02*
X237975000Y-147850000I-250000J0D01*
G01*
G37*
X227250000Y-139500000D03*
X227250000Y-142000000D03*
X227250000Y-144500000D03*
G36*
G01*
X227975000Y-147850000D02*
X226525000Y-147850000D01*
G75*
G02*
X226275000Y-147600000I0J250000D01*
G01*
X226275000Y-146400000D01*
G75*
G02*
X226525000Y-146150000I250000J0D01*
G01*
X227975000Y-146150000D01*
G75*
G02*
X228225000Y-146400000I0J-250000D01*
G01*
X228225000Y-147600000D01*
G75*
G02*
X227975000Y-147850000I-250000J0D01*
G01*
G37*
D16*
X208370000Y-98770000D03*
D17*
X208370000Y-96230000D03*
X210910000Y-98770000D03*
X210910000Y-96230000D03*
X213450000Y-98770000D03*
X213450000Y-96230000D03*
X215990000Y-98770000D03*
X215990000Y-96230000D03*
X218530000Y-98770000D03*
X218530000Y-96230000D03*
X221070000Y-98770000D03*
X221070000Y-96230000D03*
X223610000Y-98770000D03*
X223610000Y-96230000D03*
X226150000Y-98770000D03*
X226150000Y-96230000D03*
X228690000Y-98770000D03*
X228690000Y-96230000D03*
X231230000Y-98770000D03*
X231230000Y-96230000D03*
X233770000Y-98770000D03*
X233770000Y-96230000D03*
X236310000Y-98770000D03*
X236310000Y-96230000D03*
X238850000Y-98770000D03*
X238850000Y-96230000D03*
X241390000Y-98770000D03*
X241390000Y-96230000D03*
X243930000Y-98770000D03*
X243930000Y-96230000D03*
X246470000Y-98770000D03*
X246470000Y-96230000D03*
X249010000Y-98770000D03*
X249010000Y-96230000D03*
X251550000Y-98770000D03*
X251550000Y-96230000D03*
X254090000Y-98770000D03*
X254090000Y-96230000D03*
X256630000Y-98770000D03*
X256630000Y-96230000D03*
D10*
X261500000Y-146500000D03*
X203500000Y-146500000D03*
G36*
G01*
X216650000Y-147250000D02*
X216650000Y-145750000D01*
G75*
G02*
X216900000Y-145500000I250000J0D01*
G01*
X218100000Y-145500000D01*
G75*
G02*
X218350000Y-145750000I0J-250000D01*
G01*
X218350000Y-147250000D01*
G75*
G02*
X218100000Y-147500000I-250000J0D01*
G01*
X216900000Y-147500000D01*
G75*
G02*
X216650000Y-147250000I0J250000D01*
G01*
G37*
D18*
X220000000Y-146500000D03*
M02*
