G04 #@! TF.GenerationSoftware,KiCad,Pcbnew,(5.1.8)-1*
G04 #@! TF.CreationDate,2020-12-29T14:13:16+09:00*
G04 #@! TF.ProjectId,RasPi4-UART-RS485,52617350-6934-42d5-9541-52542d525334,rev?*
G04 #@! TF.SameCoordinates,Original*
G04 #@! TF.FileFunction,Copper,L2,Bot*
G04 #@! TF.FilePolarity,Positive*
%FSLAX46Y46*%
G04 Gerber Fmt 4.6, Leading zero omitted, Abs format (unit mm)*
G04 Created by KiCad (PCBNEW (5.1.8)-1) date 2020-12-29 14:13:16*
%MOMM*%
%LPD*%
G01*
G04 APERTURE LIST*
G04 #@! TA.AperFunction,ComponentPad*
%ADD10C,1.524000*%
G04 #@! TD*
G04 #@! TA.AperFunction,ComponentPad*
%ADD11O,1.200000X1.750000*%
G04 #@! TD*
G04 #@! TA.AperFunction,ComponentPad*
%ADD12C,1.700000*%
G04 #@! TD*
G04 #@! TA.AperFunction,ComponentPad*
%ADD13C,3.000000*%
G04 #@! TD*
G04 #@! TA.AperFunction,ComponentPad*
%ADD14O,1.950000X1.700000*%
G04 #@! TD*
G04 #@! TA.AperFunction,ComponentPad*
%ADD15R,1.700000X1.700000*%
G04 #@! TD*
G04 #@! TA.AperFunction,ComponentPad*
%ADD16O,1.700000X1.700000*%
G04 #@! TD*
G04 #@! TA.AperFunction,ComponentPad*
%ADD17O,1.700000X2.000000*%
G04 #@! TD*
G04 #@! TA.AperFunction,ViaPad*
%ADD18C,0.600000*%
G04 #@! TD*
G04 #@! TA.AperFunction,Conductor*
%ADD19C,0.400000*%
G04 #@! TD*
G04 #@! TA.AperFunction,Conductor*
%ADD20C,0.200000*%
G04 #@! TD*
G04 #@! TA.AperFunction,Conductor*
%ADD21C,2.000000*%
G04 #@! TD*
G04 #@! TA.AperFunction,Conductor*
%ADD22C,1.200000*%
G04 #@! TD*
G04 #@! TA.AperFunction,Conductor*
%ADD23C,0.254000*%
G04 #@! TD*
G04 #@! TA.AperFunction,Conductor*
%ADD24C,0.152400*%
G04 #@! TD*
G04 APERTURE END LIST*
D10*
X229580000Y-111810000D03*
X227040000Y-111810000D03*
X224500000Y-111810000D03*
X221960000Y-111810000D03*
X219420000Y-111810000D03*
X219420000Y-104190000D03*
X221960000Y-104190000D03*
X224500000Y-104190000D03*
X227040000Y-104190000D03*
X229580000Y-104190000D03*
D11*
X222500000Y-115500000D03*
G04 #@! TA.AperFunction,ComponentPad*
G36*
G01*
X219900000Y-116125001D02*
X219900000Y-114874999D01*
G75*
G02*
X220149999Y-114625000I249999J0D01*
G01*
X220850001Y-114625000D01*
G75*
G02*
X221100000Y-114874999I0J-249999D01*
G01*
X221100000Y-116125001D01*
G75*
G02*
X220850001Y-116375000I-249999J0D01*
G01*
X220149999Y-116375000D01*
G75*
G02*
X219900000Y-116125001I0J249999D01*
G01*
G37*
G04 #@! TD.AperFunction*
D12*
X206420000Y-116750000D03*
X208960000Y-116750000D03*
X211500000Y-116750000D03*
X214040000Y-116750000D03*
X216580000Y-116750000D03*
D13*
X202356000Y-115734000D03*
X215564000Y-102526000D03*
D14*
X231250000Y-139500000D03*
X231250000Y-142000000D03*
X231250000Y-144500000D03*
G04 #@! TA.AperFunction,ComponentPad*
G36*
G01*
X231975000Y-147850000D02*
X230525000Y-147850000D01*
G75*
G02*
X230275000Y-147600000I0J250000D01*
G01*
X230275000Y-146400000D01*
G75*
G02*
X230525000Y-146150000I250000J0D01*
G01*
X231975000Y-146150000D01*
G75*
G02*
X232225000Y-146400000I0J-250000D01*
G01*
X232225000Y-147600000D01*
G75*
G02*
X231975000Y-147850000I-250000J0D01*
G01*
G37*
G04 #@! TD.AperFunction*
X255250000Y-139500000D03*
X255250000Y-142000000D03*
X255250000Y-144500000D03*
G04 #@! TA.AperFunction,ComponentPad*
G36*
G01*
X255975000Y-147850000D02*
X254525000Y-147850000D01*
G75*
G02*
X254275000Y-147600000I0J250000D01*
G01*
X254275000Y-146400000D01*
G75*
G02*
X254525000Y-146150000I250000J0D01*
G01*
X255975000Y-146150000D01*
G75*
G02*
X256225000Y-146400000I0J-250000D01*
G01*
X256225000Y-147600000D01*
G75*
G02*
X255975000Y-147850000I-250000J0D01*
G01*
G37*
G04 #@! TD.AperFunction*
X249250000Y-139500000D03*
X249250000Y-142000000D03*
X249250000Y-144500000D03*
G04 #@! TA.AperFunction,ComponentPad*
G36*
G01*
X249975000Y-147850000D02*
X248525000Y-147850000D01*
G75*
G02*
X248275000Y-147600000I0J250000D01*
G01*
X248275000Y-146400000D01*
G75*
G02*
X248525000Y-146150000I250000J0D01*
G01*
X249975000Y-146150000D01*
G75*
G02*
X250225000Y-146400000I0J-250000D01*
G01*
X250225000Y-147600000D01*
G75*
G02*
X249975000Y-147850000I-250000J0D01*
G01*
G37*
G04 #@! TD.AperFunction*
X243250000Y-139500000D03*
X243250000Y-142000000D03*
X243250000Y-144500000D03*
G04 #@! TA.AperFunction,ComponentPad*
G36*
G01*
X243975000Y-147850000D02*
X242525000Y-147850000D01*
G75*
G02*
X242275000Y-147600000I0J250000D01*
G01*
X242275000Y-146400000D01*
G75*
G02*
X242525000Y-146150000I250000J0D01*
G01*
X243975000Y-146150000D01*
G75*
G02*
X244225000Y-146400000I0J-250000D01*
G01*
X244225000Y-147600000D01*
G75*
G02*
X243975000Y-147850000I-250000J0D01*
G01*
G37*
G04 #@! TD.AperFunction*
X237250000Y-139500000D03*
X237250000Y-142000000D03*
X237250000Y-144500000D03*
G04 #@! TA.AperFunction,ComponentPad*
G36*
G01*
X237975000Y-147850000D02*
X236525000Y-147850000D01*
G75*
G02*
X236275000Y-147600000I0J250000D01*
G01*
X236275000Y-146400000D01*
G75*
G02*
X236525000Y-146150000I250000J0D01*
G01*
X237975000Y-146150000D01*
G75*
G02*
X238225000Y-146400000I0J-250000D01*
G01*
X238225000Y-147600000D01*
G75*
G02*
X237975000Y-147850000I-250000J0D01*
G01*
G37*
G04 #@! TD.AperFunction*
X227250000Y-139500000D03*
X227250000Y-142000000D03*
X227250000Y-144500000D03*
G04 #@! TA.AperFunction,ComponentPad*
G36*
G01*
X227975000Y-147850000D02*
X226525000Y-147850000D01*
G75*
G02*
X226275000Y-147600000I0J250000D01*
G01*
X226275000Y-146400000D01*
G75*
G02*
X226525000Y-146150000I250000J0D01*
G01*
X227975000Y-146150000D01*
G75*
G02*
X228225000Y-146400000I0J-250000D01*
G01*
X228225000Y-147600000D01*
G75*
G02*
X227975000Y-147850000I-250000J0D01*
G01*
G37*
G04 #@! TD.AperFunction*
D15*
X208370000Y-98770000D03*
D16*
X208370000Y-96230000D03*
X210910000Y-98770000D03*
X210910000Y-96230000D03*
X213450000Y-98770000D03*
X213450000Y-96230000D03*
X215990000Y-98770000D03*
X215990000Y-96230000D03*
X218530000Y-98770000D03*
X218530000Y-96230000D03*
X221070000Y-98770000D03*
X221070000Y-96230000D03*
X223610000Y-98770000D03*
X223610000Y-96230000D03*
X226150000Y-98770000D03*
X226150000Y-96230000D03*
X228690000Y-98770000D03*
X228690000Y-96230000D03*
X231230000Y-98770000D03*
X231230000Y-96230000D03*
X233770000Y-98770000D03*
X233770000Y-96230000D03*
X236310000Y-98770000D03*
X236310000Y-96230000D03*
X238850000Y-98770000D03*
X238850000Y-96230000D03*
X241390000Y-98770000D03*
X241390000Y-96230000D03*
X243930000Y-98770000D03*
X243930000Y-96230000D03*
X246470000Y-98770000D03*
X246470000Y-96230000D03*
X249010000Y-98770000D03*
X249010000Y-96230000D03*
X251550000Y-98770000D03*
X251550000Y-96230000D03*
X254090000Y-98770000D03*
X254090000Y-96230000D03*
X256630000Y-98770000D03*
X256630000Y-96230000D03*
G04 #@! TA.AperFunction,ComponentPad*
G36*
G01*
X216650000Y-147250000D02*
X216650000Y-145750000D01*
G75*
G02*
X216900000Y-145500000I250000J0D01*
G01*
X218100000Y-145500000D01*
G75*
G02*
X218350000Y-145750000I0J-250000D01*
G01*
X218350000Y-147250000D01*
G75*
G02*
X218100000Y-147500000I-250000J0D01*
G01*
X216900000Y-147500000D01*
G75*
G02*
X216650000Y-147250000I0J250000D01*
G01*
G37*
G04 #@! TD.AperFunction*
D17*
X220000000Y-146500000D03*
D18*
X230500000Y-118000000D03*
X262250000Y-121000000D03*
X262500000Y-126250000D03*
X262500000Y-134750000D03*
X255000000Y-126250000D03*
X255000000Y-134500000D03*
X247000000Y-126500000D03*
X247500000Y-134750000D03*
X239500000Y-126250000D03*
X239750000Y-134750000D03*
X232500000Y-134750000D03*
X232500000Y-126250000D03*
X254000000Y-121750000D03*
X247000000Y-121750000D03*
X239500000Y-121500000D03*
X231750000Y-121500000D03*
X234500000Y-122000000D03*
X235500000Y-122000000D03*
X233500000Y-105000000D03*
X233500000Y-107000000D03*
X233500000Y-108750000D03*
X233500000Y-110250000D03*
X233500000Y-112000000D03*
X233500000Y-114000000D03*
X233500000Y-115750000D03*
X233500000Y-117500000D03*
X240750000Y-100750000D03*
X240750000Y-102750000D03*
X238500000Y-106000000D03*
X241500000Y-109250000D03*
X239000000Y-111000000D03*
X240750000Y-113500000D03*
X259000000Y-111750000D03*
X259000000Y-118750000D03*
X252500000Y-105500000D03*
X247250000Y-100500000D03*
X263500000Y-100250000D03*
X263500000Y-102750000D03*
X263500000Y-105250000D03*
X263500000Y-107500000D03*
X263500000Y-110000000D03*
X229250000Y-118500000D03*
X226500000Y-118500000D03*
X226500000Y-116250000D03*
X248000000Y-122750000D03*
X240500000Y-122750000D03*
X231500000Y-122500000D03*
X254750000Y-122500000D03*
X263250000Y-122750000D03*
X261250000Y-130250000D03*
X258000000Y-130250000D03*
X253750000Y-130250000D03*
X250250000Y-130250000D03*
X245750000Y-130250000D03*
X242750000Y-130250000D03*
X238250000Y-130250000D03*
X235000000Y-130250000D03*
X201500000Y-97000000D03*
X201500000Y-99750000D03*
X201500000Y-102750000D03*
X201500000Y-105750000D03*
X201500000Y-108750000D03*
X201500000Y-111500000D03*
X201500000Y-113500000D03*
X201250000Y-118500000D03*
X205250000Y-120500000D03*
X207750000Y-102000000D03*
X207750000Y-105000000D03*
X207750000Y-107750000D03*
X209250000Y-111250000D03*
X213250000Y-111250000D03*
X216250000Y-111750000D03*
X218000000Y-113750000D03*
X264000000Y-135500000D03*
X264000000Y-137750000D03*
X264000000Y-140000000D03*
X264000000Y-142250000D03*
X264000000Y-144500000D03*
X230750000Y-116750000D03*
X229500000Y-115500000D03*
X230750000Y-113000000D03*
X230750000Y-105250000D03*
X228250000Y-109000000D03*
X230500000Y-110250000D03*
X232500000Y-100000000D03*
X231750000Y-100500000D03*
X234250000Y-100500000D03*
X233000000Y-142500000D03*
X235500000Y-142500000D03*
X239000000Y-142500000D03*
X241500000Y-142500000D03*
X245000000Y-142500000D03*
X247500000Y-142500000D03*
X251000000Y-142500000D03*
X253500000Y-142500000D03*
X227000000Y-126500000D03*
X234750000Y-126500000D03*
X242250000Y-126500000D03*
X249750000Y-126500000D03*
X257250000Y-126500000D03*
X264250000Y-127500000D03*
X264250000Y-131000000D03*
X228250000Y-138000000D03*
X227000000Y-137750000D03*
X219500000Y-149250000D03*
X220250000Y-148250000D03*
X216000000Y-145500000D03*
X212500000Y-149250000D03*
X201000000Y-143000000D03*
X205000000Y-141250000D03*
X220000000Y-141250000D03*
X224000000Y-143000000D03*
X205250000Y-149000000D03*
X250750000Y-122250000D03*
X249500000Y-122000000D03*
X249500000Y-117750000D03*
X251500000Y-117750000D03*
X236750000Y-100250000D03*
X236500000Y-111000000D03*
X232250000Y-103500000D03*
X252500000Y-118750000D03*
X237500000Y-111500000D03*
X241000000Y-115250000D03*
X243750000Y-112500000D03*
D19*
X228690000Y-103300000D02*
X229580000Y-104190000D01*
X228690000Y-98770000D02*
X228690000Y-103300000D01*
D20*
X262250000Y-126000000D02*
X262500000Y-126250000D01*
D19*
X262250000Y-121000000D02*
X262250000Y-126000000D01*
X262500000Y-126250000D02*
X262500000Y-134750000D01*
X256000000Y-125250000D02*
X255000000Y-126250000D01*
X256000000Y-121000000D02*
X256000000Y-125250000D01*
X256000000Y-121000000D02*
X262250000Y-121000000D01*
X255000000Y-126250000D02*
X255000000Y-134500000D01*
X247000000Y-126500000D02*
X247000000Y-134250000D01*
X247000000Y-134250000D02*
X247500000Y-134750000D01*
X233500000Y-121000000D02*
X239500000Y-121000000D01*
X239500000Y-121000000D02*
X247000000Y-121000000D01*
X239500000Y-134500000D02*
X239750000Y-134750000D01*
X239500000Y-126250000D02*
X239500000Y-134500000D01*
X233500000Y-133750000D02*
X232500000Y-134750000D01*
D20*
X232500000Y-126250000D02*
X233500000Y-126250000D01*
D19*
X233500000Y-126250000D02*
X233500000Y-133750000D01*
X233500000Y-121000000D02*
X233500000Y-126250000D01*
D20*
X254000000Y-121750000D02*
X254000000Y-121000000D01*
D19*
X254000000Y-121000000D02*
X256000000Y-121000000D01*
X247000000Y-121000000D02*
X254000000Y-121000000D01*
X247000000Y-121750000D02*
X247000000Y-126500000D01*
X247000000Y-121000000D02*
X247000000Y-121750000D01*
X239500000Y-121500000D02*
X239500000Y-126250000D01*
X239500000Y-121000000D02*
X239500000Y-121500000D01*
D20*
X231750000Y-119500000D02*
X231875000Y-119375000D01*
X231750000Y-121500000D02*
X231750000Y-119500000D01*
D19*
X231875000Y-119375000D02*
X233500000Y-121000000D01*
X230500000Y-118000000D02*
X231875000Y-119375000D01*
D21*
X210910000Y-96230000D02*
X208370000Y-96230000D01*
X214250000Y-113250000D02*
X216580000Y-115580000D01*
X216580000Y-115580000D02*
X216580000Y-116750000D01*
X208500000Y-113250000D02*
X214250000Y-113250000D01*
X205750000Y-110500000D02*
X208500000Y-113250000D01*
X205750000Y-97529998D02*
X205750000Y-110500000D01*
X207049998Y-96230000D02*
X205750000Y-97529998D01*
X208370000Y-96230000D02*
X207049998Y-96230000D01*
X214040000Y-116750000D02*
X211500000Y-116750000D01*
D22*
X209849999Y-115099999D02*
X207099999Y-115099999D01*
X211500000Y-116750000D02*
X209849999Y-115099999D01*
D19*
X206000000Y-94750000D02*
X212000000Y-94750000D01*
D21*
X255250000Y-144500000D02*
X249250000Y-144500000D01*
X249250000Y-144500000D02*
X243250000Y-144500000D01*
X243250000Y-144500000D02*
X237250000Y-144500000D01*
X237250000Y-144500000D02*
X231250000Y-144500000D01*
X231250000Y-144500000D02*
X227250000Y-144500000D01*
X220000000Y-146500000D02*
X223500000Y-146500000D01*
X225500000Y-144500000D02*
X227250000Y-144500000D01*
X223500000Y-146500000D02*
X225500000Y-144500000D01*
D20*
X227250000Y-139500000D02*
X231250000Y-139500000D01*
X219680001Y-97380001D02*
X218530000Y-96230000D01*
X229002003Y-97380001D02*
X219680001Y-97380001D01*
X229840001Y-98217999D02*
X229002003Y-97380001D01*
X229840001Y-101090001D02*
X229840001Y-98217999D01*
X232250000Y-103500000D02*
X229840001Y-101090001D01*
X235159999Y-97380001D02*
X235159999Y-110909999D01*
X236310000Y-96230000D02*
X235159999Y-97380001D01*
X243000000Y-118750000D02*
X252500000Y-118750000D01*
X235159999Y-110909999D02*
X243000000Y-118750000D01*
X237500000Y-102660000D02*
X241390000Y-98770000D01*
X237500000Y-111500000D02*
X237500000Y-102660000D01*
X242540001Y-97380001D02*
X241390000Y-96230000D01*
X242540001Y-113709999D02*
X242540001Y-97380001D01*
X241000000Y-115250000D02*
X242540001Y-113709999D01*
X243750000Y-98950000D02*
X243930000Y-98770000D01*
X243750000Y-112500000D02*
X243750000Y-98950000D01*
D23*
X206509265Y-94685459D02*
X206421283Y-94712148D01*
X206137246Y-94863969D01*
X205888284Y-95068286D01*
X205837077Y-95130682D01*
X204650686Y-96317074D01*
X204588286Y-96368284D01*
X204383969Y-96617247D01*
X204232148Y-96901284D01*
X204138657Y-97209483D01*
X204116649Y-97432939D01*
X204107089Y-97529998D01*
X204115000Y-97610317D01*
X204115001Y-110419671D01*
X204107089Y-110500000D01*
X204138658Y-110820516D01*
X204232148Y-111128714D01*
X204345109Y-111340048D01*
X204383970Y-111412752D01*
X204588287Y-111661714D01*
X204650682Y-111712920D01*
X207287080Y-114349319D01*
X207338286Y-114411714D01*
X207587248Y-114616031D01*
X207871285Y-114767852D01*
X208179484Y-114861343D01*
X208419678Y-114885000D01*
X208419680Y-114885000D01*
X208499999Y-114892911D01*
X208580319Y-114885000D01*
X213572762Y-114885000D01*
X213950232Y-115262471D01*
X213681981Y-115301401D01*
X213406253Y-115399081D01*
X213268843Y-115472528D01*
X213191208Y-115721603D01*
X214040000Y-116570395D01*
X214054143Y-116556253D01*
X214233748Y-116735858D01*
X214219605Y-116750000D01*
X215068397Y-117598792D01*
X215163875Y-117569032D01*
X215213970Y-117662752D01*
X215418287Y-117911714D01*
X215667249Y-118116031D01*
X215951286Y-118267852D01*
X216259485Y-118361343D01*
X216580000Y-118392911D01*
X216900516Y-118361343D01*
X217208715Y-118267852D01*
X217492752Y-118116031D01*
X217741714Y-117911714D01*
X217744835Y-117907911D01*
X229565000Y-117907911D01*
X229565000Y-118092089D01*
X229600932Y-118272729D01*
X229671414Y-118442889D01*
X229773738Y-118596028D01*
X229903972Y-118726262D01*
X230057111Y-118828586D01*
X230211787Y-118892654D01*
X231015001Y-119695869D01*
X231015000Y-120917049D01*
X230921414Y-121057111D01*
X230850932Y-121227271D01*
X230815000Y-121407911D01*
X230815000Y-121592089D01*
X230850932Y-121772729D01*
X230921414Y-121942889D01*
X231023738Y-122096028D01*
X231153972Y-122226262D01*
X231307111Y-122328586D01*
X231477271Y-122399068D01*
X231657911Y-122435000D01*
X231842089Y-122435000D01*
X232022729Y-122399068D01*
X232192889Y-122328586D01*
X232346028Y-122226262D01*
X232476262Y-122096028D01*
X232578586Y-121942889D01*
X232649068Y-121772729D01*
X232665000Y-121692634D01*
X232665001Y-125329503D01*
X232592089Y-125315000D01*
X232407911Y-125315000D01*
X232227271Y-125350932D01*
X232057111Y-125421414D01*
X231903972Y-125523738D01*
X231773738Y-125653972D01*
X231671414Y-125807111D01*
X231600932Y-125977271D01*
X231565000Y-126157911D01*
X231565000Y-126342089D01*
X231600932Y-126522729D01*
X231671414Y-126692889D01*
X231773738Y-126846028D01*
X231903972Y-126976262D01*
X232057111Y-127078586D01*
X232227271Y-127149068D01*
X232407911Y-127185000D01*
X232592089Y-127185000D01*
X232665000Y-127170497D01*
X232665001Y-133404131D01*
X232211787Y-133857346D01*
X232057111Y-133921414D01*
X231903972Y-134023738D01*
X231773738Y-134153972D01*
X231671414Y-134307111D01*
X231600932Y-134477271D01*
X231565000Y-134657911D01*
X231565000Y-134842089D01*
X231600932Y-135022729D01*
X231671414Y-135192889D01*
X231773738Y-135346028D01*
X231903972Y-135476262D01*
X232057111Y-135578586D01*
X232227271Y-135649068D01*
X232407911Y-135685000D01*
X232592089Y-135685000D01*
X232772729Y-135649068D01*
X232942889Y-135578586D01*
X233096028Y-135476262D01*
X233226262Y-135346028D01*
X233328586Y-135192889D01*
X233392654Y-135038213D01*
X234061432Y-134369437D01*
X234093291Y-134343291D01*
X234136190Y-134291019D01*
X234145251Y-134279977D01*
X234197636Y-134216146D01*
X234275172Y-134071087D01*
X234322918Y-133913689D01*
X234335000Y-133791019D01*
X234335000Y-133791018D01*
X234339040Y-133750000D01*
X234335000Y-133708982D01*
X234335000Y-121835000D01*
X238626725Y-121835000D01*
X238665000Y-121927404D01*
X238665001Y-125822594D01*
X238600932Y-125977271D01*
X238565000Y-126157911D01*
X238565000Y-126342089D01*
X238600932Y-126522729D01*
X238665000Y-126677404D01*
X238665001Y-134458971D01*
X238660960Y-134500000D01*
X238677082Y-134663688D01*
X238724828Y-134821086D01*
X238792471Y-134947636D01*
X238802365Y-134966146D01*
X238853103Y-135027971D01*
X238921414Y-135192889D01*
X239023738Y-135346028D01*
X239153972Y-135476262D01*
X239307111Y-135578586D01*
X239477271Y-135649068D01*
X239657911Y-135685000D01*
X239842089Y-135685000D01*
X240022729Y-135649068D01*
X240192889Y-135578586D01*
X240346028Y-135476262D01*
X240476262Y-135346028D01*
X240578586Y-135192889D01*
X240649068Y-135022729D01*
X240685000Y-134842089D01*
X240685000Y-134657911D01*
X240649068Y-134477271D01*
X240578586Y-134307111D01*
X240476262Y-134153972D01*
X240346028Y-134023738D01*
X240335000Y-134016369D01*
X240335000Y-126677404D01*
X240399068Y-126522729D01*
X240435000Y-126342089D01*
X240435000Y-126157911D01*
X240399068Y-125977271D01*
X240335000Y-125822596D01*
X240335000Y-121927404D01*
X240373275Y-121835000D01*
X246065000Y-121835000D01*
X246065000Y-121842089D01*
X246100932Y-122022729D01*
X246165000Y-122177404D01*
X246165001Y-126072594D01*
X246100932Y-126227271D01*
X246065000Y-126407911D01*
X246065000Y-126592089D01*
X246100932Y-126772729D01*
X246165000Y-126927404D01*
X246165001Y-134208971D01*
X246160960Y-134250000D01*
X246177082Y-134413688D01*
X246224828Y-134571086D01*
X246274325Y-134663688D01*
X246302365Y-134716146D01*
X246406710Y-134843291D01*
X246438574Y-134869441D01*
X246607346Y-135038213D01*
X246671414Y-135192889D01*
X246773738Y-135346028D01*
X246903972Y-135476262D01*
X247057111Y-135578586D01*
X247227271Y-135649068D01*
X247407911Y-135685000D01*
X247592089Y-135685000D01*
X247772729Y-135649068D01*
X247942889Y-135578586D01*
X248096028Y-135476262D01*
X248226262Y-135346028D01*
X248328586Y-135192889D01*
X248399068Y-135022729D01*
X248435000Y-134842089D01*
X248435000Y-134657911D01*
X248399068Y-134477271D01*
X248328586Y-134307111D01*
X248226262Y-134153972D01*
X248096028Y-134023738D01*
X247942889Y-133921414D01*
X247835000Y-133876725D01*
X247835000Y-126927404D01*
X247899068Y-126772729D01*
X247935000Y-126592089D01*
X247935000Y-126407911D01*
X247899068Y-126227271D01*
X247835000Y-126072596D01*
X247835000Y-122177404D01*
X247899068Y-122022729D01*
X247935000Y-121842089D01*
X247935000Y-121835000D01*
X253065000Y-121835000D01*
X253065000Y-121842089D01*
X253100932Y-122022729D01*
X253171414Y-122192889D01*
X253273738Y-122346028D01*
X253403972Y-122476262D01*
X253557111Y-122578586D01*
X253727271Y-122649068D01*
X253907911Y-122685000D01*
X254092089Y-122685000D01*
X254272729Y-122649068D01*
X254442889Y-122578586D01*
X254596028Y-122476262D01*
X254726262Y-122346028D01*
X254828586Y-122192889D01*
X254899068Y-122022729D01*
X254935000Y-121842089D01*
X254935000Y-121835000D01*
X255165000Y-121835000D01*
X255165001Y-124904131D01*
X254711787Y-125357346D01*
X254557111Y-125421414D01*
X254403972Y-125523738D01*
X254273738Y-125653972D01*
X254171414Y-125807111D01*
X254100932Y-125977271D01*
X254065000Y-126157911D01*
X254065000Y-126342089D01*
X254100932Y-126522729D01*
X254165000Y-126677404D01*
X254165001Y-134072594D01*
X254100932Y-134227271D01*
X254065000Y-134407911D01*
X254065000Y-134592089D01*
X254100932Y-134772729D01*
X254171414Y-134942889D01*
X254273738Y-135096028D01*
X254403972Y-135226262D01*
X254557111Y-135328586D01*
X254727271Y-135399068D01*
X254907911Y-135435000D01*
X255092089Y-135435000D01*
X255272729Y-135399068D01*
X255442889Y-135328586D01*
X255596028Y-135226262D01*
X255726262Y-135096028D01*
X255828586Y-134942889D01*
X255899068Y-134772729D01*
X255935000Y-134592089D01*
X255935000Y-134407911D01*
X255899068Y-134227271D01*
X255835000Y-134072596D01*
X255835000Y-126677404D01*
X255892654Y-126538213D01*
X256561432Y-125869437D01*
X256593291Y-125843291D01*
X256697636Y-125716146D01*
X256775172Y-125571087D01*
X256822918Y-125413689D01*
X256835000Y-125291019D01*
X256835000Y-125291018D01*
X256839040Y-125250000D01*
X256835000Y-125208982D01*
X256835000Y-121835000D01*
X261415000Y-121835000D01*
X261415001Y-126041019D01*
X261427083Y-126163689D01*
X261474829Y-126321087D01*
X261552365Y-126466146D01*
X261603103Y-126527971D01*
X261665000Y-126677404D01*
X261665001Y-134322594D01*
X261600932Y-134477271D01*
X261565000Y-134657911D01*
X261565000Y-134842089D01*
X261600932Y-135022729D01*
X261671414Y-135192889D01*
X261773738Y-135346028D01*
X261903972Y-135476262D01*
X262057111Y-135578586D01*
X262227271Y-135649068D01*
X262407911Y-135685000D01*
X262592089Y-135685000D01*
X262772729Y-135649068D01*
X262942889Y-135578586D01*
X263096028Y-135476262D01*
X263226262Y-135346028D01*
X263328586Y-135192889D01*
X263399068Y-135022729D01*
X263435000Y-134842089D01*
X263435000Y-134657911D01*
X263399068Y-134477271D01*
X263335000Y-134322596D01*
X263335000Y-126677404D01*
X263399068Y-126522729D01*
X263435000Y-126342089D01*
X263435000Y-126157911D01*
X263399068Y-125977271D01*
X263328586Y-125807111D01*
X263226262Y-125653972D01*
X263096028Y-125523738D01*
X263085000Y-125516369D01*
X263085000Y-121427404D01*
X263149068Y-121272729D01*
X263185000Y-121092089D01*
X263185000Y-120907911D01*
X263149068Y-120727271D01*
X263078586Y-120557111D01*
X262976262Y-120403972D01*
X262846028Y-120273738D01*
X262692889Y-120171414D01*
X262522729Y-120100932D01*
X262342089Y-120065000D01*
X262157911Y-120065000D01*
X261977271Y-120100932D01*
X261822596Y-120165000D01*
X256041018Y-120165000D01*
X256000000Y-120160960D01*
X255958981Y-120165000D01*
X247041018Y-120165000D01*
X247000000Y-120160960D01*
X246958981Y-120165000D01*
X239541018Y-120165000D01*
X239500000Y-120160960D01*
X239458981Y-120165000D01*
X233845868Y-120165000D01*
X232494448Y-118813581D01*
X232494439Y-118813570D01*
X231392654Y-117711787D01*
X231328586Y-117557111D01*
X231226262Y-117403972D01*
X231096028Y-117273738D01*
X230942889Y-117171414D01*
X230772729Y-117100932D01*
X230592089Y-117065000D01*
X230407911Y-117065000D01*
X230227271Y-117100932D01*
X230057111Y-117171414D01*
X229903972Y-117273738D01*
X229773738Y-117403972D01*
X229671414Y-117557111D01*
X229600932Y-117727271D01*
X229565000Y-117907911D01*
X217744835Y-117907911D01*
X217946031Y-117662752D01*
X218097852Y-117378715D01*
X218191343Y-117070516D01*
X218215000Y-116830322D01*
X218215000Y-115660319D01*
X218222911Y-115580000D01*
X218191343Y-115259483D01*
X218097852Y-114951285D01*
X218057077Y-114874999D01*
X219261928Y-114874999D01*
X219261928Y-116125001D01*
X219278992Y-116298255D01*
X219329528Y-116464851D01*
X219411595Y-116618387D01*
X219522038Y-116752962D01*
X219656613Y-116863405D01*
X219810149Y-116945472D01*
X219976745Y-116996008D01*
X220149999Y-117013072D01*
X220850001Y-117013072D01*
X221023255Y-116996008D01*
X221189851Y-116945472D01*
X221343387Y-116863405D01*
X221477962Y-116752962D01*
X221588405Y-116618387D01*
X221590967Y-116613594D01*
X221716526Y-116738078D01*
X221919467Y-116872421D01*
X222144718Y-116964591D01*
X222182391Y-116968462D01*
X222373000Y-116843731D01*
X222373000Y-115627000D01*
X222627000Y-115627000D01*
X222627000Y-116843731D01*
X222817609Y-116968462D01*
X222855282Y-116964591D01*
X223080533Y-116872421D01*
X223283474Y-116738078D01*
X223456307Y-116566725D01*
X223592390Y-116364946D01*
X223686493Y-116140496D01*
X223735000Y-115902000D01*
X223735000Y-115627000D01*
X222627000Y-115627000D01*
X222373000Y-115627000D01*
X222353000Y-115627000D01*
X222353000Y-115373000D01*
X222373000Y-115373000D01*
X222373000Y-114156269D01*
X222627000Y-114156269D01*
X222627000Y-115373000D01*
X223735000Y-115373000D01*
X223735000Y-115098000D01*
X223686493Y-114859504D01*
X223592390Y-114635054D01*
X223456307Y-114433275D01*
X223283474Y-114261922D01*
X223080533Y-114127579D01*
X222855282Y-114035409D01*
X222817609Y-114031538D01*
X222627000Y-114156269D01*
X222373000Y-114156269D01*
X222182391Y-114031538D01*
X222144718Y-114035409D01*
X221919467Y-114127579D01*
X221716526Y-114261922D01*
X221590967Y-114386406D01*
X221588405Y-114381613D01*
X221477962Y-114247038D01*
X221343387Y-114136595D01*
X221189851Y-114054528D01*
X221023255Y-114003992D01*
X220850001Y-113986928D01*
X220149999Y-113986928D01*
X219976745Y-114003992D01*
X219810149Y-114054528D01*
X219656613Y-114136595D01*
X219522038Y-114247038D01*
X219411595Y-114381613D01*
X219329528Y-114535149D01*
X219278992Y-114701745D01*
X219261928Y-114874999D01*
X218057077Y-114874999D01*
X217999804Y-114767851D01*
X217946031Y-114667248D01*
X217741714Y-114418286D01*
X217679325Y-114367085D01*
X215462924Y-112150686D01*
X215411714Y-112088286D01*
X215162752Y-111883969D01*
X214878715Y-111732148D01*
X214681779Y-111672408D01*
X218023000Y-111672408D01*
X218023000Y-111947592D01*
X218076686Y-112217490D01*
X218181995Y-112471727D01*
X218334880Y-112700535D01*
X218529465Y-112895120D01*
X218758273Y-113048005D01*
X219012510Y-113153314D01*
X219282408Y-113207000D01*
X219557592Y-113207000D01*
X219827490Y-113153314D01*
X220081727Y-113048005D01*
X220310535Y-112895120D01*
X220505120Y-112700535D01*
X220658005Y-112471727D01*
X220690000Y-112394485D01*
X220721995Y-112471727D01*
X220874880Y-112700535D01*
X221069465Y-112895120D01*
X221298273Y-113048005D01*
X221552510Y-113153314D01*
X221822408Y-113207000D01*
X222097592Y-113207000D01*
X222367490Y-113153314D01*
X222621727Y-113048005D01*
X222850535Y-112895120D01*
X223045120Y-112700535D01*
X223198005Y-112471727D01*
X223230000Y-112394485D01*
X223261995Y-112471727D01*
X223414880Y-112700535D01*
X223609465Y-112895120D01*
X223838273Y-113048005D01*
X224092510Y-113153314D01*
X224362408Y-113207000D01*
X224637592Y-113207000D01*
X224907490Y-113153314D01*
X225161727Y-113048005D01*
X225390535Y-112895120D01*
X225585120Y-112700535D01*
X225738005Y-112471727D01*
X225770000Y-112394485D01*
X225801995Y-112471727D01*
X225954880Y-112700535D01*
X226149465Y-112895120D01*
X226378273Y-113048005D01*
X226632510Y-113153314D01*
X226902408Y-113207000D01*
X227177592Y-113207000D01*
X227447490Y-113153314D01*
X227701727Y-113048005D01*
X227930535Y-112895120D01*
X228050090Y-112775565D01*
X228794040Y-112775565D01*
X228861020Y-113015656D01*
X229110048Y-113132756D01*
X229377135Y-113199023D01*
X229652017Y-113211910D01*
X229924133Y-113170922D01*
X230183023Y-113077636D01*
X230298980Y-113015656D01*
X230365960Y-112775565D01*
X229580000Y-111989605D01*
X228794040Y-112775565D01*
X228050090Y-112775565D01*
X228125120Y-112700535D01*
X228278005Y-112471727D01*
X228307692Y-112400057D01*
X228312364Y-112413023D01*
X228374344Y-112528980D01*
X228614435Y-112595960D01*
X229400395Y-111810000D01*
X229759605Y-111810000D01*
X230545565Y-112595960D01*
X230785656Y-112528980D01*
X230902756Y-112279952D01*
X230969023Y-112012865D01*
X230981910Y-111737983D01*
X230940922Y-111465867D01*
X230847636Y-111206977D01*
X230785656Y-111091020D01*
X230545565Y-111024040D01*
X229759605Y-111810000D01*
X229400395Y-111810000D01*
X228614435Y-111024040D01*
X228374344Y-111091020D01*
X228310515Y-111226760D01*
X228278005Y-111148273D01*
X228125120Y-110919465D01*
X228050090Y-110844435D01*
X228794040Y-110844435D01*
X229580000Y-111630395D01*
X230365960Y-110844435D01*
X230298980Y-110604344D01*
X230049952Y-110487244D01*
X229782865Y-110420977D01*
X229507983Y-110408090D01*
X229235867Y-110449078D01*
X228976977Y-110542364D01*
X228861020Y-110604344D01*
X228794040Y-110844435D01*
X228050090Y-110844435D01*
X227930535Y-110724880D01*
X227701727Y-110571995D01*
X227447490Y-110466686D01*
X227177592Y-110413000D01*
X226902408Y-110413000D01*
X226632510Y-110466686D01*
X226378273Y-110571995D01*
X226149465Y-110724880D01*
X225954880Y-110919465D01*
X225801995Y-111148273D01*
X225770000Y-111225515D01*
X225738005Y-111148273D01*
X225585120Y-110919465D01*
X225390535Y-110724880D01*
X225161727Y-110571995D01*
X224907490Y-110466686D01*
X224637592Y-110413000D01*
X224362408Y-110413000D01*
X224092510Y-110466686D01*
X223838273Y-110571995D01*
X223609465Y-110724880D01*
X223414880Y-110919465D01*
X223261995Y-111148273D01*
X223230000Y-111225515D01*
X223198005Y-111148273D01*
X223045120Y-110919465D01*
X222850535Y-110724880D01*
X222621727Y-110571995D01*
X222367490Y-110466686D01*
X222097592Y-110413000D01*
X221822408Y-110413000D01*
X221552510Y-110466686D01*
X221298273Y-110571995D01*
X221069465Y-110724880D01*
X220874880Y-110919465D01*
X220721995Y-111148273D01*
X220690000Y-111225515D01*
X220658005Y-111148273D01*
X220505120Y-110919465D01*
X220310535Y-110724880D01*
X220081727Y-110571995D01*
X219827490Y-110466686D01*
X219557592Y-110413000D01*
X219282408Y-110413000D01*
X219012510Y-110466686D01*
X218758273Y-110571995D01*
X218529465Y-110724880D01*
X218334880Y-110919465D01*
X218181995Y-111148273D01*
X218076686Y-111402510D01*
X218023000Y-111672408D01*
X214681779Y-111672408D01*
X214570516Y-111638657D01*
X214330322Y-111615000D01*
X214330319Y-111615000D01*
X214250000Y-111607089D01*
X214169681Y-111615000D01*
X209177239Y-111615000D01*
X207385000Y-109822762D01*
X207385000Y-102315721D01*
X213429000Y-102315721D01*
X213429000Y-102736279D01*
X213511047Y-103148756D01*
X213671988Y-103537302D01*
X213905637Y-103886983D01*
X214203017Y-104184363D01*
X214552698Y-104418012D01*
X214941244Y-104578953D01*
X215353721Y-104661000D01*
X215774279Y-104661000D01*
X216186756Y-104578953D01*
X216575302Y-104418012D01*
X216924983Y-104184363D01*
X217222363Y-103886983D01*
X217456012Y-103537302D01*
X217616953Y-103148756D01*
X217699000Y-102736279D01*
X217699000Y-102315721D01*
X217616953Y-101903244D01*
X217456012Y-101514698D01*
X217222363Y-101165017D01*
X216924983Y-100867637D01*
X216575302Y-100633988D01*
X216186756Y-100473047D01*
X215774279Y-100391000D01*
X215353721Y-100391000D01*
X214941244Y-100473047D01*
X214552698Y-100633988D01*
X214203017Y-100867637D01*
X213905637Y-101165017D01*
X213671988Y-101514698D01*
X213511047Y-101903244D01*
X213429000Y-102315721D01*
X207385000Y-102315721D01*
X207385000Y-100242621D01*
X207395518Y-100245812D01*
X207520000Y-100258072D01*
X209220000Y-100258072D01*
X209344482Y-100245812D01*
X209464180Y-100209502D01*
X209574494Y-100150537D01*
X209671185Y-100071185D01*
X209750537Y-99974494D01*
X209809502Y-99864180D01*
X209831513Y-99791620D01*
X209963368Y-99923475D01*
X210206589Y-100085990D01*
X210476842Y-100197932D01*
X210763740Y-100255000D01*
X211056260Y-100255000D01*
X211343158Y-100197932D01*
X211613411Y-100085990D01*
X211856632Y-99923475D01*
X212063475Y-99716632D01*
X212180000Y-99542240D01*
X212296525Y-99716632D01*
X212503368Y-99923475D01*
X212746589Y-100085990D01*
X213016842Y-100197932D01*
X213303740Y-100255000D01*
X213596260Y-100255000D01*
X213883158Y-100197932D01*
X214153411Y-100085990D01*
X214396632Y-99923475D01*
X214603475Y-99716632D01*
X214720000Y-99542240D01*
X214836525Y-99716632D01*
X215043368Y-99923475D01*
X215286589Y-100085990D01*
X215556842Y-100197932D01*
X215843740Y-100255000D01*
X216136260Y-100255000D01*
X216423158Y-100197932D01*
X216693411Y-100085990D01*
X216936632Y-99923475D01*
X217143475Y-99716632D01*
X217265195Y-99534466D01*
X217334822Y-99651355D01*
X217529731Y-99867588D01*
X217763080Y-100041641D01*
X218025901Y-100166825D01*
X218173110Y-100211476D01*
X218403000Y-100090155D01*
X218403000Y-98897000D01*
X218383000Y-98897000D01*
X218383000Y-98643000D01*
X218403000Y-98643000D01*
X218403000Y-98623000D01*
X218657000Y-98623000D01*
X218657000Y-98643000D01*
X218677000Y-98643000D01*
X218677000Y-98897000D01*
X218657000Y-98897000D01*
X218657000Y-100090155D01*
X218886890Y-100211476D01*
X219034099Y-100166825D01*
X219296920Y-100041641D01*
X219530269Y-99867588D01*
X219725178Y-99651355D01*
X219794805Y-99534466D01*
X219916525Y-99716632D01*
X220123368Y-99923475D01*
X220366589Y-100085990D01*
X220636842Y-100197932D01*
X220923740Y-100255000D01*
X221216260Y-100255000D01*
X221503158Y-100197932D01*
X221773411Y-100085990D01*
X222016632Y-99923475D01*
X222223475Y-99716632D01*
X222340000Y-99542240D01*
X222456525Y-99716632D01*
X222663368Y-99923475D01*
X222906589Y-100085990D01*
X223176842Y-100197932D01*
X223463740Y-100255000D01*
X223756260Y-100255000D01*
X224043158Y-100197932D01*
X224313411Y-100085990D01*
X224556632Y-99923475D01*
X224763475Y-99716632D01*
X224880000Y-99542240D01*
X224996525Y-99716632D01*
X225203368Y-99923475D01*
X225446589Y-100085990D01*
X225716842Y-100197932D01*
X226003740Y-100255000D01*
X226296260Y-100255000D01*
X226583158Y-100197932D01*
X226853411Y-100085990D01*
X227096632Y-99923475D01*
X227303475Y-99716632D01*
X227420000Y-99542240D01*
X227536525Y-99716632D01*
X227743368Y-99923475D01*
X227855000Y-99998065D01*
X227855001Y-103054410D01*
X227701727Y-102951995D01*
X227447490Y-102846686D01*
X227177592Y-102793000D01*
X226902408Y-102793000D01*
X226632510Y-102846686D01*
X226378273Y-102951995D01*
X226149465Y-103104880D01*
X225954880Y-103299465D01*
X225801995Y-103528273D01*
X225770000Y-103605515D01*
X225738005Y-103528273D01*
X225585120Y-103299465D01*
X225390535Y-103104880D01*
X225161727Y-102951995D01*
X224907490Y-102846686D01*
X224637592Y-102793000D01*
X224362408Y-102793000D01*
X224092510Y-102846686D01*
X223838273Y-102951995D01*
X223609465Y-103104880D01*
X223414880Y-103299465D01*
X223261995Y-103528273D01*
X223230000Y-103605515D01*
X223198005Y-103528273D01*
X223045120Y-103299465D01*
X222850535Y-103104880D01*
X222621727Y-102951995D01*
X222367490Y-102846686D01*
X222097592Y-102793000D01*
X221822408Y-102793000D01*
X221552510Y-102846686D01*
X221298273Y-102951995D01*
X221069465Y-103104880D01*
X220874880Y-103299465D01*
X220721995Y-103528273D01*
X220690000Y-103605515D01*
X220658005Y-103528273D01*
X220505120Y-103299465D01*
X220310535Y-103104880D01*
X220081727Y-102951995D01*
X219827490Y-102846686D01*
X219557592Y-102793000D01*
X219282408Y-102793000D01*
X219012510Y-102846686D01*
X218758273Y-102951995D01*
X218529465Y-103104880D01*
X218334880Y-103299465D01*
X218181995Y-103528273D01*
X218076686Y-103782510D01*
X218023000Y-104052408D01*
X218023000Y-104327592D01*
X218076686Y-104597490D01*
X218181995Y-104851727D01*
X218334880Y-105080535D01*
X218529465Y-105275120D01*
X218758273Y-105428005D01*
X219012510Y-105533314D01*
X219282408Y-105587000D01*
X219557592Y-105587000D01*
X219827490Y-105533314D01*
X220081727Y-105428005D01*
X220310535Y-105275120D01*
X220505120Y-105080535D01*
X220658005Y-104851727D01*
X220690000Y-104774485D01*
X220721995Y-104851727D01*
X220874880Y-105080535D01*
X221069465Y-105275120D01*
X221298273Y-105428005D01*
X221552510Y-105533314D01*
X221822408Y-105587000D01*
X222097592Y-105587000D01*
X222367490Y-105533314D01*
X222621727Y-105428005D01*
X222850535Y-105275120D01*
X223045120Y-105080535D01*
X223198005Y-104851727D01*
X223230000Y-104774485D01*
X223261995Y-104851727D01*
X223414880Y-105080535D01*
X223609465Y-105275120D01*
X223838273Y-105428005D01*
X224092510Y-105533314D01*
X224362408Y-105587000D01*
X224637592Y-105587000D01*
X224907490Y-105533314D01*
X225161727Y-105428005D01*
X225390535Y-105275120D01*
X225585120Y-105080535D01*
X225738005Y-104851727D01*
X225770000Y-104774485D01*
X225801995Y-104851727D01*
X225954880Y-105080535D01*
X226149465Y-105275120D01*
X226378273Y-105428005D01*
X226632510Y-105533314D01*
X226902408Y-105587000D01*
X227177592Y-105587000D01*
X227447490Y-105533314D01*
X227701727Y-105428005D01*
X227930535Y-105275120D01*
X228125120Y-105080535D01*
X228278005Y-104851727D01*
X228310000Y-104774485D01*
X228341995Y-104851727D01*
X228494880Y-105080535D01*
X228689465Y-105275120D01*
X228918273Y-105428005D01*
X229172510Y-105533314D01*
X229442408Y-105587000D01*
X229717592Y-105587000D01*
X229987490Y-105533314D01*
X230241727Y-105428005D01*
X230470535Y-105275120D01*
X230665120Y-105080535D01*
X230818005Y-104851727D01*
X230923314Y-104597490D01*
X230977000Y-104327592D01*
X230977000Y-104052408D01*
X230923314Y-103782510D01*
X230818005Y-103528273D01*
X230665120Y-103299465D01*
X230470535Y-103104880D01*
X230241727Y-102951995D01*
X229987490Y-102846686D01*
X229717592Y-102793000D01*
X229525000Y-102793000D01*
X229525000Y-101814446D01*
X231318069Y-103607515D01*
X231350932Y-103772729D01*
X231421414Y-103942889D01*
X231523738Y-104096028D01*
X231653972Y-104226262D01*
X231807111Y-104328586D01*
X231977271Y-104399068D01*
X232157911Y-104435000D01*
X232342089Y-104435000D01*
X232522729Y-104399068D01*
X232692889Y-104328586D01*
X232846028Y-104226262D01*
X232976262Y-104096028D01*
X233078586Y-103942889D01*
X233149068Y-103772729D01*
X233185000Y-103592089D01*
X233185000Y-103407911D01*
X233149068Y-103227271D01*
X233078586Y-103057111D01*
X232976262Y-102903972D01*
X232846028Y-102773738D01*
X232692889Y-102671414D01*
X232522729Y-102600932D01*
X232357515Y-102568069D01*
X230575001Y-100785555D01*
X230575001Y-100106043D01*
X230796842Y-100197932D01*
X231083740Y-100255000D01*
X231376260Y-100255000D01*
X231663158Y-100197932D01*
X231933411Y-100085990D01*
X232176632Y-99923475D01*
X232383475Y-99716632D01*
X232500000Y-99542240D01*
X232616525Y-99716632D01*
X232823368Y-99923475D01*
X233066589Y-100085990D01*
X233336842Y-100197932D01*
X233623740Y-100255000D01*
X233916260Y-100255000D01*
X234203158Y-100197932D01*
X234424999Y-100106043D01*
X234425000Y-110873884D01*
X234421443Y-110909999D01*
X234435634Y-111054084D01*
X234458274Y-111128715D01*
X234477663Y-111192632D01*
X234545913Y-111320319D01*
X234637762Y-111432237D01*
X234665807Y-111455253D01*
X242454746Y-119244193D01*
X242477762Y-119272238D01*
X242505806Y-119295253D01*
X242589680Y-119364087D01*
X242717366Y-119432337D01*
X242855915Y-119474365D01*
X243000000Y-119488556D01*
X243036105Y-119485000D01*
X251917049Y-119485000D01*
X252057111Y-119578586D01*
X252227271Y-119649068D01*
X252407911Y-119685000D01*
X252592089Y-119685000D01*
X252772729Y-119649068D01*
X252942889Y-119578586D01*
X253096028Y-119476262D01*
X253226262Y-119346028D01*
X253328586Y-119192889D01*
X253399068Y-119022729D01*
X253435000Y-118842089D01*
X253435000Y-118657911D01*
X253399068Y-118477271D01*
X253328586Y-118307111D01*
X253226262Y-118153972D01*
X253096028Y-118023738D01*
X252942889Y-117921414D01*
X252772729Y-117850932D01*
X252592089Y-117815000D01*
X252407911Y-117815000D01*
X252227271Y-117850932D01*
X252057111Y-117921414D01*
X251917049Y-118015000D01*
X243304447Y-118015000D01*
X241389957Y-116100511D01*
X241442889Y-116078586D01*
X241596028Y-115976262D01*
X241726262Y-115846028D01*
X241828586Y-115692889D01*
X241899068Y-115522729D01*
X241931932Y-115357515D01*
X243034198Y-114255249D01*
X243062238Y-114232237D01*
X243085251Y-114204196D01*
X243085254Y-114204193D01*
X243154087Y-114120320D01*
X243154088Y-114120319D01*
X243222338Y-113992632D01*
X243264366Y-113854084D01*
X243275001Y-113746104D01*
X243275001Y-113746095D01*
X243278556Y-113710000D01*
X243275001Y-113673905D01*
X243275001Y-113307131D01*
X243307111Y-113328586D01*
X243477271Y-113399068D01*
X243657911Y-113435000D01*
X243842089Y-113435000D01*
X244022729Y-113399068D01*
X244192889Y-113328586D01*
X244346028Y-113226262D01*
X244476262Y-113096028D01*
X244578586Y-112942889D01*
X244649068Y-112772729D01*
X244685000Y-112592089D01*
X244685000Y-112407911D01*
X244649068Y-112227271D01*
X244578586Y-112057111D01*
X244485000Y-111917049D01*
X244485000Y-100147464D01*
X244633411Y-100085990D01*
X244876632Y-99923475D01*
X245083475Y-99716632D01*
X245200000Y-99542240D01*
X245316525Y-99716632D01*
X245523368Y-99923475D01*
X245766589Y-100085990D01*
X246036842Y-100197932D01*
X246323740Y-100255000D01*
X246616260Y-100255000D01*
X246903158Y-100197932D01*
X247173411Y-100085990D01*
X247416632Y-99923475D01*
X247623475Y-99716632D01*
X247740000Y-99542240D01*
X247856525Y-99716632D01*
X248063368Y-99923475D01*
X248306589Y-100085990D01*
X248576842Y-100197932D01*
X248863740Y-100255000D01*
X249156260Y-100255000D01*
X249443158Y-100197932D01*
X249713411Y-100085990D01*
X249956632Y-99923475D01*
X250163475Y-99716632D01*
X250280000Y-99542240D01*
X250396525Y-99716632D01*
X250603368Y-99923475D01*
X250846589Y-100085990D01*
X251116842Y-100197932D01*
X251403740Y-100255000D01*
X251696260Y-100255000D01*
X251983158Y-100197932D01*
X252253411Y-100085990D01*
X252496632Y-99923475D01*
X252703475Y-99716632D01*
X252820000Y-99542240D01*
X252936525Y-99716632D01*
X253143368Y-99923475D01*
X253386589Y-100085990D01*
X253656842Y-100197932D01*
X253943740Y-100255000D01*
X254236260Y-100255000D01*
X254523158Y-100197932D01*
X254793411Y-100085990D01*
X255036632Y-99923475D01*
X255243475Y-99716632D01*
X255365195Y-99534466D01*
X255434822Y-99651355D01*
X255629731Y-99867588D01*
X255863080Y-100041641D01*
X256125901Y-100166825D01*
X256273110Y-100211476D01*
X256503000Y-100090155D01*
X256503000Y-98897000D01*
X256757000Y-98897000D01*
X256757000Y-100090155D01*
X256986890Y-100211476D01*
X257134099Y-100166825D01*
X257396920Y-100041641D01*
X257630269Y-99867588D01*
X257825178Y-99651355D01*
X257974157Y-99401252D01*
X258071481Y-99126891D01*
X257950814Y-98897000D01*
X256757000Y-98897000D01*
X256503000Y-98897000D01*
X256483000Y-98897000D01*
X256483000Y-98643000D01*
X256503000Y-98643000D01*
X256503000Y-98623000D01*
X256757000Y-98623000D01*
X256757000Y-98643000D01*
X257950814Y-98643000D01*
X258071481Y-98413109D01*
X257974157Y-98138748D01*
X257825178Y-97888645D01*
X257630269Y-97672412D01*
X257400594Y-97501100D01*
X257576632Y-97383475D01*
X257655612Y-97304495D01*
X259515000Y-97304495D01*
X259515000Y-97695505D01*
X259591282Y-98079003D01*
X259740915Y-98440250D01*
X259958149Y-98765364D01*
X260234636Y-99041851D01*
X260559750Y-99259085D01*
X260920997Y-99408718D01*
X261304495Y-99485000D01*
X261695505Y-99485000D01*
X262079003Y-99408718D01*
X262440250Y-99259085D01*
X262765364Y-99041851D01*
X263041851Y-98765364D01*
X263259085Y-98440250D01*
X263408718Y-98079003D01*
X263485000Y-97695505D01*
X263485000Y-97304495D01*
X263408718Y-96920997D01*
X263259085Y-96559750D01*
X263041851Y-96234636D01*
X262765364Y-95958149D01*
X262440250Y-95740915D01*
X262079003Y-95591282D01*
X261695505Y-95515000D01*
X261304495Y-95515000D01*
X260920997Y-95591282D01*
X260559750Y-95740915D01*
X260234636Y-95958149D01*
X259958149Y-96234636D01*
X259740915Y-96559750D01*
X259591282Y-96920997D01*
X259515000Y-97304495D01*
X257655612Y-97304495D01*
X257783475Y-97176632D01*
X257945990Y-96933411D01*
X258057932Y-96663158D01*
X258115000Y-96376260D01*
X258115000Y-96083740D01*
X258057932Y-95796842D01*
X257945990Y-95526589D01*
X257783475Y-95283368D01*
X257576632Y-95076525D01*
X257333411Y-94914010D01*
X257063158Y-94802068D01*
X256776260Y-94745000D01*
X256483740Y-94745000D01*
X256196842Y-94802068D01*
X255926589Y-94914010D01*
X255683368Y-95076525D01*
X255476525Y-95283368D01*
X255360000Y-95457760D01*
X255243475Y-95283368D01*
X255036632Y-95076525D01*
X254793411Y-94914010D01*
X254523158Y-94802068D01*
X254236260Y-94745000D01*
X253943740Y-94745000D01*
X253656842Y-94802068D01*
X253386589Y-94914010D01*
X253143368Y-95076525D01*
X252936525Y-95283368D01*
X252820000Y-95457760D01*
X252703475Y-95283368D01*
X252496632Y-95076525D01*
X252253411Y-94914010D01*
X251983158Y-94802068D01*
X251696260Y-94745000D01*
X251403740Y-94745000D01*
X251116842Y-94802068D01*
X250846589Y-94914010D01*
X250603368Y-95076525D01*
X250396525Y-95283368D01*
X250274805Y-95465534D01*
X250205178Y-95348645D01*
X250010269Y-95132412D01*
X249776920Y-94958359D01*
X249514099Y-94833175D01*
X249366890Y-94788524D01*
X249137000Y-94909845D01*
X249137000Y-96103000D01*
X249157000Y-96103000D01*
X249157000Y-96357000D01*
X249137000Y-96357000D01*
X249137000Y-96377000D01*
X248883000Y-96377000D01*
X248883000Y-96357000D01*
X248863000Y-96357000D01*
X248863000Y-96103000D01*
X248883000Y-96103000D01*
X248883000Y-94909845D01*
X248653110Y-94788524D01*
X248505901Y-94833175D01*
X248243080Y-94958359D01*
X248009731Y-95132412D01*
X247814822Y-95348645D01*
X247745195Y-95465534D01*
X247623475Y-95283368D01*
X247416632Y-95076525D01*
X247173411Y-94914010D01*
X246903158Y-94802068D01*
X246616260Y-94745000D01*
X246323740Y-94745000D01*
X246036842Y-94802068D01*
X245766589Y-94914010D01*
X245523368Y-95076525D01*
X245316525Y-95283368D01*
X245194805Y-95465534D01*
X245125178Y-95348645D01*
X244930269Y-95132412D01*
X244696920Y-94958359D01*
X244434099Y-94833175D01*
X244286890Y-94788524D01*
X244057000Y-94909845D01*
X244057000Y-96103000D01*
X244077000Y-96103000D01*
X244077000Y-96357000D01*
X244057000Y-96357000D01*
X244057000Y-96377000D01*
X243803000Y-96377000D01*
X243803000Y-96357000D01*
X243783000Y-96357000D01*
X243783000Y-96103000D01*
X243803000Y-96103000D01*
X243803000Y-94909845D01*
X243573110Y-94788524D01*
X243425901Y-94833175D01*
X243163080Y-94958359D01*
X242929731Y-95132412D01*
X242734822Y-95348645D01*
X242665195Y-95465534D01*
X242543475Y-95283368D01*
X242336632Y-95076525D01*
X242093411Y-94914010D01*
X241823158Y-94802068D01*
X241536260Y-94745000D01*
X241243740Y-94745000D01*
X240956842Y-94802068D01*
X240686589Y-94914010D01*
X240443368Y-95076525D01*
X240236525Y-95283368D01*
X240120000Y-95457760D01*
X240003475Y-95283368D01*
X239796632Y-95076525D01*
X239553411Y-94914010D01*
X239283158Y-94802068D01*
X238996260Y-94745000D01*
X238703740Y-94745000D01*
X238416842Y-94802068D01*
X238146589Y-94914010D01*
X237903368Y-95076525D01*
X237696525Y-95283368D01*
X237580000Y-95457760D01*
X237463475Y-95283368D01*
X237256632Y-95076525D01*
X237013411Y-94914010D01*
X236743158Y-94802068D01*
X236456260Y-94745000D01*
X236163740Y-94745000D01*
X235876842Y-94802068D01*
X235606589Y-94914010D01*
X235363368Y-95076525D01*
X235156525Y-95283368D01*
X235040000Y-95457760D01*
X234923475Y-95283368D01*
X234716632Y-95076525D01*
X234473411Y-94914010D01*
X234203158Y-94802068D01*
X233916260Y-94745000D01*
X233623740Y-94745000D01*
X233336842Y-94802068D01*
X233066589Y-94914010D01*
X232823368Y-95076525D01*
X232616525Y-95283368D01*
X232494805Y-95465534D01*
X232425178Y-95348645D01*
X232230269Y-95132412D01*
X231996920Y-94958359D01*
X231734099Y-94833175D01*
X231586890Y-94788524D01*
X231357000Y-94909845D01*
X231357000Y-96103000D01*
X231377000Y-96103000D01*
X231377000Y-96357000D01*
X231357000Y-96357000D01*
X231357000Y-96377000D01*
X231103000Y-96377000D01*
X231103000Y-96357000D01*
X231083000Y-96357000D01*
X231083000Y-96103000D01*
X231103000Y-96103000D01*
X231103000Y-94909845D01*
X230873110Y-94788524D01*
X230725901Y-94833175D01*
X230463080Y-94958359D01*
X230229731Y-95132412D01*
X230034822Y-95348645D01*
X229965195Y-95465534D01*
X229843475Y-95283368D01*
X229636632Y-95076525D01*
X229393411Y-94914010D01*
X229123158Y-94802068D01*
X228836260Y-94745000D01*
X228543740Y-94745000D01*
X228256842Y-94802068D01*
X227986589Y-94914010D01*
X227743368Y-95076525D01*
X227536525Y-95283368D01*
X227420000Y-95457760D01*
X227303475Y-95283368D01*
X227096632Y-95076525D01*
X226853411Y-94914010D01*
X226583158Y-94802068D01*
X226296260Y-94745000D01*
X226003740Y-94745000D01*
X225716842Y-94802068D01*
X225446589Y-94914010D01*
X225203368Y-95076525D01*
X224996525Y-95283368D01*
X224874805Y-95465534D01*
X224805178Y-95348645D01*
X224610269Y-95132412D01*
X224376920Y-94958359D01*
X224114099Y-94833175D01*
X223966890Y-94788524D01*
X223737000Y-94909845D01*
X223737000Y-96103000D01*
X223757000Y-96103000D01*
X223757000Y-96357000D01*
X223737000Y-96357000D01*
X223737000Y-96377000D01*
X223483000Y-96377000D01*
X223483000Y-96357000D01*
X223463000Y-96357000D01*
X223463000Y-96103000D01*
X223483000Y-96103000D01*
X223483000Y-94909845D01*
X223253110Y-94788524D01*
X223105901Y-94833175D01*
X222843080Y-94958359D01*
X222609731Y-95132412D01*
X222414822Y-95348645D01*
X222345195Y-95465534D01*
X222223475Y-95283368D01*
X222016632Y-95076525D01*
X221773411Y-94914010D01*
X221503158Y-94802068D01*
X221216260Y-94745000D01*
X220923740Y-94745000D01*
X220636842Y-94802068D01*
X220366589Y-94914010D01*
X220123368Y-95076525D01*
X219916525Y-95283368D01*
X219800000Y-95457760D01*
X219683475Y-95283368D01*
X219476632Y-95076525D01*
X219233411Y-94914010D01*
X218963158Y-94802068D01*
X218676260Y-94745000D01*
X218383740Y-94745000D01*
X218096842Y-94802068D01*
X217826589Y-94914010D01*
X217583368Y-95076525D01*
X217376525Y-95283368D01*
X217260000Y-95457760D01*
X217143475Y-95283368D01*
X216936632Y-95076525D01*
X216693411Y-94914010D01*
X216423158Y-94802068D01*
X216136260Y-94745000D01*
X215843740Y-94745000D01*
X215556842Y-94802068D01*
X215286589Y-94914010D01*
X215043368Y-95076525D01*
X214836525Y-95283368D01*
X214714805Y-95465534D01*
X214645178Y-95348645D01*
X214450269Y-95132412D01*
X214216920Y-94958359D01*
X213954099Y-94833175D01*
X213806890Y-94788524D01*
X213577000Y-94909845D01*
X213577000Y-96103000D01*
X213597000Y-96103000D01*
X213597000Y-96357000D01*
X213577000Y-96357000D01*
X213577000Y-96377000D01*
X213323000Y-96377000D01*
X213323000Y-96357000D01*
X213303000Y-96357000D01*
X213303000Y-96103000D01*
X213323000Y-96103000D01*
X213323000Y-94909845D01*
X213093110Y-94788524D01*
X212945901Y-94833175D01*
X212683080Y-94958359D01*
X212449731Y-95132412D01*
X212278671Y-95322187D01*
X212276031Y-95317248D01*
X212071714Y-95068286D01*
X211822752Y-94863969D01*
X211538715Y-94712148D01*
X211449220Y-94685000D01*
X261966495Y-94685000D01*
X262449016Y-94732312D01*
X262880930Y-94862714D01*
X263279285Y-95074524D01*
X263628914Y-95359675D01*
X263916497Y-95707303D01*
X264131086Y-96104177D01*
X264264498Y-96535161D01*
X264315001Y-97015663D01*
X264315000Y-146966495D01*
X264267688Y-147449016D01*
X264137287Y-147880927D01*
X263925480Y-148279280D01*
X263640325Y-148628914D01*
X263292697Y-148916497D01*
X262895825Y-149131085D01*
X262464834Y-149264500D01*
X261984346Y-149315000D01*
X203033504Y-149315000D01*
X202550984Y-149267688D01*
X202119073Y-149137287D01*
X201720720Y-148925480D01*
X201371086Y-148640325D01*
X201083503Y-148292697D01*
X200868915Y-147895825D01*
X200735500Y-147464834D01*
X200685000Y-146984346D01*
X200685000Y-146304495D01*
X201515000Y-146304495D01*
X201515000Y-146695505D01*
X201591282Y-147079003D01*
X201740915Y-147440250D01*
X201958149Y-147765364D01*
X202234636Y-148041851D01*
X202559750Y-148259085D01*
X202920997Y-148408718D01*
X203304495Y-148485000D01*
X203695505Y-148485000D01*
X204079003Y-148408718D01*
X204440250Y-148259085D01*
X204765364Y-148041851D01*
X205041851Y-147765364D01*
X205219161Y-147500000D01*
X216011928Y-147500000D01*
X216024188Y-147624482D01*
X216060498Y-147744180D01*
X216119463Y-147854494D01*
X216198815Y-147951185D01*
X216295506Y-148030537D01*
X216405820Y-148089502D01*
X216525518Y-148125812D01*
X216650000Y-148138072D01*
X217214250Y-148135000D01*
X217373000Y-147976250D01*
X217373000Y-146627000D01*
X216173750Y-146627000D01*
X216015000Y-146785750D01*
X216011928Y-147500000D01*
X205219161Y-147500000D01*
X205259085Y-147440250D01*
X205408718Y-147079003D01*
X205485000Y-146695505D01*
X205485000Y-146304495D01*
X205408718Y-145920997D01*
X205259085Y-145559750D01*
X205219162Y-145500000D01*
X216011928Y-145500000D01*
X216015000Y-146214250D01*
X216173750Y-146373000D01*
X217373000Y-146373000D01*
X217373000Y-145023750D01*
X217627000Y-145023750D01*
X217627000Y-146373000D01*
X217647000Y-146373000D01*
X217647000Y-146627000D01*
X217627000Y-146627000D01*
X217627000Y-147976250D01*
X217785750Y-148135000D01*
X218350000Y-148138072D01*
X218474482Y-148125812D01*
X218594180Y-148089502D01*
X218704494Y-148030537D01*
X218801185Y-147951185D01*
X218880537Y-147854494D01*
X218939279Y-147744597D01*
X219087248Y-147866031D01*
X219371285Y-148017852D01*
X219679484Y-148111343D01*
X219919678Y-148135000D01*
X219927050Y-148135000D01*
X220000000Y-148142185D01*
X220072950Y-148135000D01*
X223419681Y-148135000D01*
X223500000Y-148142911D01*
X223580319Y-148135000D01*
X223580322Y-148135000D01*
X223820516Y-148111343D01*
X224128715Y-148017852D01*
X224412752Y-147866031D01*
X224432285Y-147850000D01*
X225636928Y-147850000D01*
X225649188Y-147974482D01*
X225685498Y-148094180D01*
X225744463Y-148204494D01*
X225823815Y-148301185D01*
X225920506Y-148380537D01*
X226030820Y-148439502D01*
X226150518Y-148475812D01*
X226275000Y-148488072D01*
X226964250Y-148485000D01*
X227123000Y-148326250D01*
X227123000Y-147127000D01*
X227377000Y-147127000D01*
X227377000Y-148326250D01*
X227535750Y-148485000D01*
X228225000Y-148488072D01*
X228349482Y-148475812D01*
X228469180Y-148439502D01*
X228579494Y-148380537D01*
X228676185Y-148301185D01*
X228755537Y-148204494D01*
X228814502Y-148094180D01*
X228850812Y-147974482D01*
X228863072Y-147850000D01*
X229636928Y-147850000D01*
X229649188Y-147974482D01*
X229685498Y-148094180D01*
X229744463Y-148204494D01*
X229823815Y-148301185D01*
X229920506Y-148380537D01*
X230030820Y-148439502D01*
X230150518Y-148475812D01*
X230275000Y-148488072D01*
X230964250Y-148485000D01*
X231123000Y-148326250D01*
X231123000Y-147127000D01*
X231377000Y-147127000D01*
X231377000Y-148326250D01*
X231535750Y-148485000D01*
X232225000Y-148488072D01*
X232349482Y-148475812D01*
X232469180Y-148439502D01*
X232579494Y-148380537D01*
X232676185Y-148301185D01*
X232755537Y-148204494D01*
X232814502Y-148094180D01*
X232850812Y-147974482D01*
X232863072Y-147850000D01*
X235636928Y-147850000D01*
X235649188Y-147974482D01*
X235685498Y-148094180D01*
X235744463Y-148204494D01*
X235823815Y-148301185D01*
X235920506Y-148380537D01*
X236030820Y-148439502D01*
X236150518Y-148475812D01*
X236275000Y-148488072D01*
X236964250Y-148485000D01*
X237123000Y-148326250D01*
X237123000Y-147127000D01*
X237377000Y-147127000D01*
X237377000Y-148326250D01*
X237535750Y-148485000D01*
X238225000Y-148488072D01*
X238349482Y-148475812D01*
X238469180Y-148439502D01*
X238579494Y-148380537D01*
X238676185Y-148301185D01*
X238755537Y-148204494D01*
X238814502Y-148094180D01*
X238850812Y-147974482D01*
X238863072Y-147850000D01*
X241636928Y-147850000D01*
X241649188Y-147974482D01*
X241685498Y-148094180D01*
X241744463Y-148204494D01*
X241823815Y-148301185D01*
X241920506Y-148380537D01*
X242030820Y-148439502D01*
X242150518Y-148475812D01*
X242275000Y-148488072D01*
X242964250Y-148485000D01*
X243123000Y-148326250D01*
X243123000Y-147127000D01*
X243377000Y-147127000D01*
X243377000Y-148326250D01*
X243535750Y-148485000D01*
X244225000Y-148488072D01*
X244349482Y-148475812D01*
X244469180Y-148439502D01*
X244579494Y-148380537D01*
X244676185Y-148301185D01*
X244755537Y-148204494D01*
X244814502Y-148094180D01*
X244850812Y-147974482D01*
X244863072Y-147850000D01*
X247636928Y-147850000D01*
X247649188Y-147974482D01*
X247685498Y-148094180D01*
X247744463Y-148204494D01*
X247823815Y-148301185D01*
X247920506Y-148380537D01*
X248030820Y-148439502D01*
X248150518Y-148475812D01*
X248275000Y-148488072D01*
X248964250Y-148485000D01*
X249123000Y-148326250D01*
X249123000Y-147127000D01*
X249377000Y-147127000D01*
X249377000Y-148326250D01*
X249535750Y-148485000D01*
X250225000Y-148488072D01*
X250349482Y-148475812D01*
X250469180Y-148439502D01*
X250579494Y-148380537D01*
X250676185Y-148301185D01*
X250755537Y-148204494D01*
X250814502Y-148094180D01*
X250850812Y-147974482D01*
X250863072Y-147850000D01*
X253636928Y-147850000D01*
X253649188Y-147974482D01*
X253685498Y-148094180D01*
X253744463Y-148204494D01*
X253823815Y-148301185D01*
X253920506Y-148380537D01*
X254030820Y-148439502D01*
X254150518Y-148475812D01*
X254275000Y-148488072D01*
X254964250Y-148485000D01*
X255123000Y-148326250D01*
X255123000Y-147127000D01*
X255377000Y-147127000D01*
X255377000Y-148326250D01*
X255535750Y-148485000D01*
X256225000Y-148488072D01*
X256349482Y-148475812D01*
X256469180Y-148439502D01*
X256579494Y-148380537D01*
X256676185Y-148301185D01*
X256755537Y-148204494D01*
X256814502Y-148094180D01*
X256850812Y-147974482D01*
X256863072Y-147850000D01*
X256860000Y-147285750D01*
X256701250Y-147127000D01*
X255377000Y-147127000D01*
X255123000Y-147127000D01*
X253798750Y-147127000D01*
X253640000Y-147285750D01*
X253636928Y-147850000D01*
X250863072Y-147850000D01*
X250860000Y-147285750D01*
X250701250Y-147127000D01*
X249377000Y-147127000D01*
X249123000Y-147127000D01*
X247798750Y-147127000D01*
X247640000Y-147285750D01*
X247636928Y-147850000D01*
X244863072Y-147850000D01*
X244860000Y-147285750D01*
X244701250Y-147127000D01*
X243377000Y-147127000D01*
X243123000Y-147127000D01*
X241798750Y-147127000D01*
X241640000Y-147285750D01*
X241636928Y-147850000D01*
X238863072Y-147850000D01*
X238860000Y-147285750D01*
X238701250Y-147127000D01*
X237377000Y-147127000D01*
X237123000Y-147127000D01*
X235798750Y-147127000D01*
X235640000Y-147285750D01*
X235636928Y-147850000D01*
X232863072Y-147850000D01*
X232860000Y-147285750D01*
X232701250Y-147127000D01*
X231377000Y-147127000D01*
X231123000Y-147127000D01*
X229798750Y-147127000D01*
X229640000Y-147285750D01*
X229636928Y-147850000D01*
X228863072Y-147850000D01*
X228860000Y-147285750D01*
X228701250Y-147127000D01*
X227377000Y-147127000D01*
X227123000Y-147127000D01*
X225798750Y-147127000D01*
X225640000Y-147285750D01*
X225636928Y-147850000D01*
X224432285Y-147850000D01*
X224661714Y-147661714D01*
X224712925Y-147599313D01*
X225639773Y-146672466D01*
X225640000Y-146714250D01*
X225798750Y-146873000D01*
X227123000Y-146873000D01*
X227123000Y-146853000D01*
X227377000Y-146853000D01*
X227377000Y-146873000D01*
X228701250Y-146873000D01*
X228860000Y-146714250D01*
X228863072Y-146150000D01*
X228861595Y-146135000D01*
X229638405Y-146135000D01*
X229636928Y-146150000D01*
X229640000Y-146714250D01*
X229798750Y-146873000D01*
X231123000Y-146873000D01*
X231123000Y-146853000D01*
X231377000Y-146853000D01*
X231377000Y-146873000D01*
X232701250Y-146873000D01*
X232860000Y-146714250D01*
X232863072Y-146150000D01*
X232861595Y-146135000D01*
X235638405Y-146135000D01*
X235636928Y-146150000D01*
X235640000Y-146714250D01*
X235798750Y-146873000D01*
X237123000Y-146873000D01*
X237123000Y-146853000D01*
X237377000Y-146853000D01*
X237377000Y-146873000D01*
X238701250Y-146873000D01*
X238860000Y-146714250D01*
X238863072Y-146150000D01*
X238861595Y-146135000D01*
X241638405Y-146135000D01*
X241636928Y-146150000D01*
X241640000Y-146714250D01*
X241798750Y-146873000D01*
X243123000Y-146873000D01*
X243123000Y-146853000D01*
X243377000Y-146853000D01*
X243377000Y-146873000D01*
X244701250Y-146873000D01*
X244860000Y-146714250D01*
X244863072Y-146150000D01*
X244861595Y-146135000D01*
X247638405Y-146135000D01*
X247636928Y-146150000D01*
X247640000Y-146714250D01*
X247798750Y-146873000D01*
X249123000Y-146873000D01*
X249123000Y-146853000D01*
X249377000Y-146853000D01*
X249377000Y-146873000D01*
X250701250Y-146873000D01*
X250860000Y-146714250D01*
X250863072Y-146150000D01*
X250861595Y-146135000D01*
X253638405Y-146135000D01*
X253636928Y-146150000D01*
X253640000Y-146714250D01*
X253798750Y-146873000D01*
X255123000Y-146873000D01*
X255123000Y-146853000D01*
X255377000Y-146853000D01*
X255377000Y-146873000D01*
X256701250Y-146873000D01*
X256860000Y-146714250D01*
X256862230Y-146304495D01*
X259515000Y-146304495D01*
X259515000Y-146695505D01*
X259591282Y-147079003D01*
X259740915Y-147440250D01*
X259958149Y-147765364D01*
X260234636Y-148041851D01*
X260559750Y-148259085D01*
X260920997Y-148408718D01*
X261304495Y-148485000D01*
X261695505Y-148485000D01*
X262079003Y-148408718D01*
X262440250Y-148259085D01*
X262765364Y-148041851D01*
X263041851Y-147765364D01*
X263259085Y-147440250D01*
X263408718Y-147079003D01*
X263485000Y-146695505D01*
X263485000Y-146304495D01*
X263408718Y-145920997D01*
X263259085Y-145559750D01*
X263041851Y-145234636D01*
X262765364Y-144958149D01*
X262440250Y-144740915D01*
X262079003Y-144591282D01*
X261695505Y-144515000D01*
X261304495Y-144515000D01*
X260920997Y-144591282D01*
X260559750Y-144740915D01*
X260234636Y-144958149D01*
X259958149Y-145234636D01*
X259740915Y-145559750D01*
X259591282Y-145920997D01*
X259515000Y-146304495D01*
X256862230Y-146304495D01*
X256863072Y-146150000D01*
X256850812Y-146025518D01*
X256814502Y-145905820D01*
X256755537Y-145795506D01*
X256676185Y-145698815D01*
X256579494Y-145619463D01*
X256486974Y-145570009D01*
X256616031Y-145412752D01*
X256767852Y-145128715D01*
X256861343Y-144820516D01*
X256892911Y-144500000D01*
X256861343Y-144179484D01*
X256767852Y-143871285D01*
X256616031Y-143587248D01*
X256411714Y-143338286D01*
X256248413Y-143204269D01*
X256430134Y-143055134D01*
X256615706Y-142829014D01*
X256753599Y-142571034D01*
X256838513Y-142291111D01*
X256867185Y-142000000D01*
X256838513Y-141708889D01*
X256753599Y-141428966D01*
X256615706Y-141170986D01*
X256430134Y-140944866D01*
X256204014Y-140759294D01*
X256186626Y-140750000D01*
X256204014Y-140740706D01*
X256430134Y-140555134D01*
X256615706Y-140329014D01*
X256753599Y-140071034D01*
X256838513Y-139791111D01*
X256867185Y-139500000D01*
X256838513Y-139208889D01*
X256753599Y-138928966D01*
X256615706Y-138670986D01*
X256430134Y-138444866D01*
X256204014Y-138259294D01*
X255946034Y-138121401D01*
X255666111Y-138036487D01*
X255447950Y-138015000D01*
X255052050Y-138015000D01*
X254833889Y-138036487D01*
X254553966Y-138121401D01*
X254295986Y-138259294D01*
X254069866Y-138444866D01*
X253884294Y-138670986D01*
X253746401Y-138928966D01*
X253661487Y-139208889D01*
X253632815Y-139500000D01*
X253661487Y-139791111D01*
X253746401Y-140071034D01*
X253884294Y-140329014D01*
X254069866Y-140555134D01*
X254295986Y-140740706D01*
X254313374Y-140750000D01*
X254295986Y-140759294D01*
X254069866Y-140944866D01*
X253884294Y-141170986D01*
X253746401Y-141428966D01*
X253661487Y-141708889D01*
X253632815Y-142000000D01*
X253661487Y-142291111D01*
X253746401Y-142571034D01*
X253884294Y-142829014D01*
X253913827Y-142865000D01*
X250586173Y-142865000D01*
X250615706Y-142829014D01*
X250753599Y-142571034D01*
X250838513Y-142291111D01*
X250867185Y-142000000D01*
X250838513Y-141708889D01*
X250753599Y-141428966D01*
X250615706Y-141170986D01*
X250430134Y-140944866D01*
X250204014Y-140759294D01*
X250186626Y-140750000D01*
X250204014Y-140740706D01*
X250430134Y-140555134D01*
X250615706Y-140329014D01*
X250753599Y-140071034D01*
X250838513Y-139791111D01*
X250867185Y-139500000D01*
X250838513Y-139208889D01*
X250753599Y-138928966D01*
X250615706Y-138670986D01*
X250430134Y-138444866D01*
X250204014Y-138259294D01*
X249946034Y-138121401D01*
X249666111Y-138036487D01*
X249447950Y-138015000D01*
X249052050Y-138015000D01*
X248833889Y-138036487D01*
X248553966Y-138121401D01*
X248295986Y-138259294D01*
X248069866Y-138444866D01*
X247884294Y-138670986D01*
X247746401Y-138928966D01*
X247661487Y-139208889D01*
X247632815Y-139500000D01*
X247661487Y-139791111D01*
X247746401Y-140071034D01*
X247884294Y-140329014D01*
X248069866Y-140555134D01*
X248295986Y-140740706D01*
X248313374Y-140750000D01*
X248295986Y-140759294D01*
X248069866Y-140944866D01*
X247884294Y-141170986D01*
X247746401Y-141428966D01*
X247661487Y-141708889D01*
X247632815Y-142000000D01*
X247661487Y-142291111D01*
X247746401Y-142571034D01*
X247884294Y-142829014D01*
X247913827Y-142865000D01*
X244586173Y-142865000D01*
X244615706Y-142829014D01*
X244753599Y-142571034D01*
X244838513Y-142291111D01*
X244867185Y-142000000D01*
X244838513Y-141708889D01*
X244753599Y-141428966D01*
X244615706Y-141170986D01*
X244430134Y-140944866D01*
X244204014Y-140759294D01*
X244186626Y-140750000D01*
X244204014Y-140740706D01*
X244430134Y-140555134D01*
X244615706Y-140329014D01*
X244753599Y-140071034D01*
X244838513Y-139791111D01*
X244867185Y-139500000D01*
X244838513Y-139208889D01*
X244753599Y-138928966D01*
X244615706Y-138670986D01*
X244430134Y-138444866D01*
X244204014Y-138259294D01*
X243946034Y-138121401D01*
X243666111Y-138036487D01*
X243447950Y-138015000D01*
X243052050Y-138015000D01*
X242833889Y-138036487D01*
X242553966Y-138121401D01*
X242295986Y-138259294D01*
X242069866Y-138444866D01*
X241884294Y-138670986D01*
X241746401Y-138928966D01*
X241661487Y-139208889D01*
X241632815Y-139500000D01*
X241661487Y-139791111D01*
X241746401Y-140071034D01*
X241884294Y-140329014D01*
X242069866Y-140555134D01*
X242295986Y-140740706D01*
X242313374Y-140750000D01*
X242295986Y-140759294D01*
X242069866Y-140944866D01*
X241884294Y-141170986D01*
X241746401Y-141428966D01*
X241661487Y-141708889D01*
X241632815Y-142000000D01*
X241661487Y-142291111D01*
X241746401Y-142571034D01*
X241884294Y-142829014D01*
X241913827Y-142865000D01*
X238586173Y-142865000D01*
X238615706Y-142829014D01*
X238753599Y-142571034D01*
X238838513Y-142291111D01*
X238867185Y-142000000D01*
X238838513Y-141708889D01*
X238753599Y-141428966D01*
X238615706Y-141170986D01*
X238430134Y-140944866D01*
X238204014Y-140759294D01*
X238186626Y-140750000D01*
X238204014Y-140740706D01*
X238430134Y-140555134D01*
X238615706Y-140329014D01*
X238753599Y-140071034D01*
X238838513Y-139791111D01*
X238867185Y-139500000D01*
X238838513Y-139208889D01*
X238753599Y-138928966D01*
X238615706Y-138670986D01*
X238430134Y-138444866D01*
X238204014Y-138259294D01*
X237946034Y-138121401D01*
X237666111Y-138036487D01*
X237447950Y-138015000D01*
X237052050Y-138015000D01*
X236833889Y-138036487D01*
X236553966Y-138121401D01*
X236295986Y-138259294D01*
X236069866Y-138444866D01*
X235884294Y-138670986D01*
X235746401Y-138928966D01*
X235661487Y-139208889D01*
X235632815Y-139500000D01*
X235661487Y-139791111D01*
X235746401Y-140071034D01*
X235884294Y-140329014D01*
X236069866Y-140555134D01*
X236295986Y-140740706D01*
X236313374Y-140750000D01*
X236295986Y-140759294D01*
X236069866Y-140944866D01*
X235884294Y-141170986D01*
X235746401Y-141428966D01*
X235661487Y-141708889D01*
X235632815Y-142000000D01*
X235661487Y-142291111D01*
X235746401Y-142571034D01*
X235884294Y-142829014D01*
X235913827Y-142865000D01*
X232586173Y-142865000D01*
X232615706Y-142829014D01*
X232753599Y-142571034D01*
X232838513Y-142291111D01*
X232867185Y-142000000D01*
X232838513Y-141708889D01*
X232753599Y-141428966D01*
X232615706Y-141170986D01*
X232430134Y-140944866D01*
X232204014Y-140759294D01*
X232186626Y-140750000D01*
X232204014Y-140740706D01*
X232430134Y-140555134D01*
X232615706Y-140329014D01*
X232753599Y-140071034D01*
X232838513Y-139791111D01*
X232867185Y-139500000D01*
X232838513Y-139208889D01*
X232753599Y-138928966D01*
X232615706Y-138670986D01*
X232430134Y-138444866D01*
X232204014Y-138259294D01*
X231946034Y-138121401D01*
X231666111Y-138036487D01*
X231447950Y-138015000D01*
X231052050Y-138015000D01*
X230833889Y-138036487D01*
X230553966Y-138121401D01*
X230295986Y-138259294D01*
X230069866Y-138444866D01*
X229884294Y-138670986D01*
X229834043Y-138765000D01*
X228665957Y-138765000D01*
X228615706Y-138670986D01*
X228430134Y-138444866D01*
X228204014Y-138259294D01*
X227946034Y-138121401D01*
X227666111Y-138036487D01*
X227447950Y-138015000D01*
X227052050Y-138015000D01*
X226833889Y-138036487D01*
X226553966Y-138121401D01*
X226295986Y-138259294D01*
X226069866Y-138444866D01*
X225884294Y-138670986D01*
X225746401Y-138928966D01*
X225661487Y-139208889D01*
X225632815Y-139500000D01*
X225661487Y-139791111D01*
X225746401Y-140071034D01*
X225884294Y-140329014D01*
X226069866Y-140555134D01*
X226295986Y-140740706D01*
X226313374Y-140750000D01*
X226295986Y-140759294D01*
X226069866Y-140944866D01*
X225884294Y-141170986D01*
X225746401Y-141428966D01*
X225661487Y-141708889D01*
X225632815Y-142000000D01*
X225661487Y-142291111D01*
X225746401Y-142571034D01*
X225884294Y-142829014D01*
X225913827Y-142865000D01*
X225580319Y-142865000D01*
X225499999Y-142857089D01*
X225419680Y-142865000D01*
X225419678Y-142865000D01*
X225179484Y-142888657D01*
X224871285Y-142982148D01*
X224587248Y-143133969D01*
X224338286Y-143338286D01*
X224287080Y-143400682D01*
X222822762Y-144865000D01*
X220072950Y-144865000D01*
X220000000Y-144857815D01*
X219927050Y-144865000D01*
X219919678Y-144865000D01*
X219679484Y-144888657D01*
X219371285Y-144982148D01*
X219087248Y-145133969D01*
X218939279Y-145255403D01*
X218880537Y-145145506D01*
X218801185Y-145048815D01*
X218704494Y-144969463D01*
X218594180Y-144910498D01*
X218474482Y-144874188D01*
X218350000Y-144861928D01*
X217785750Y-144865000D01*
X217627000Y-145023750D01*
X217373000Y-145023750D01*
X217214250Y-144865000D01*
X216650000Y-144861928D01*
X216525518Y-144874188D01*
X216405820Y-144910498D01*
X216295506Y-144969463D01*
X216198815Y-145048815D01*
X216119463Y-145145506D01*
X216060498Y-145255820D01*
X216024188Y-145375518D01*
X216011928Y-145500000D01*
X205219162Y-145500000D01*
X205041851Y-145234636D01*
X204765364Y-144958149D01*
X204440250Y-144740915D01*
X204079003Y-144591282D01*
X203695505Y-144515000D01*
X203304495Y-144515000D01*
X202920997Y-144591282D01*
X202559750Y-144740915D01*
X202234636Y-144958149D01*
X201958149Y-145234636D01*
X201740915Y-145559750D01*
X201591282Y-145920997D01*
X201515000Y-146304495D01*
X200685000Y-146304495D01*
X200685000Y-142323009D01*
X200756861Y-142430557D01*
X201069443Y-142743139D01*
X201437000Y-142988732D01*
X201845408Y-143157900D01*
X202278971Y-143244142D01*
X202721029Y-143244142D01*
X203154592Y-143157900D01*
X203563000Y-142988732D01*
X203930557Y-142743139D01*
X204243139Y-142430557D01*
X204488732Y-142063000D01*
X204657900Y-141654592D01*
X204744142Y-141221029D01*
X204744142Y-140778971D01*
X204732065Y-140718257D01*
X205655866Y-141406001D01*
X206910206Y-142130195D01*
X208240139Y-142703872D01*
X209627679Y-143119274D01*
X211054063Y-143370784D01*
X212500000Y-143455000D01*
X213945937Y-143370784D01*
X215372321Y-143119274D01*
X216759861Y-142703872D01*
X218089794Y-142130195D01*
X219344134Y-141406001D01*
X220267935Y-140718257D01*
X220255858Y-140778971D01*
X220255858Y-141221029D01*
X220342100Y-141654592D01*
X220511268Y-142063000D01*
X220756861Y-142430557D01*
X221069443Y-142743139D01*
X221437000Y-142988732D01*
X221845408Y-143157900D01*
X222278971Y-143244142D01*
X222721029Y-143244142D01*
X223154592Y-143157900D01*
X223563000Y-142988732D01*
X223930557Y-142743139D01*
X224243139Y-142430557D01*
X224488732Y-142063000D01*
X224657900Y-141654592D01*
X224744142Y-141221029D01*
X224744142Y-140778971D01*
X224657900Y-140345408D01*
X224488732Y-139937000D01*
X224243139Y-139569443D01*
X223930557Y-139256861D01*
X223563000Y-139011268D01*
X223154592Y-138842100D01*
X222721029Y-138755858D01*
X222278971Y-138755858D01*
X222212269Y-138769126D01*
X222490444Y-138437610D01*
X223286346Y-137227500D01*
X223936382Y-135933173D01*
X224431759Y-134572134D01*
X224765781Y-133162788D01*
X224933928Y-131724194D01*
X224933928Y-130275806D01*
X224765781Y-128837212D01*
X224431759Y-127427866D01*
X223936382Y-126066827D01*
X223286346Y-124772500D01*
X222490444Y-123562390D01*
X222212269Y-123230874D01*
X222278971Y-123244142D01*
X222721029Y-123244142D01*
X223154592Y-123157900D01*
X223563000Y-122988732D01*
X223930557Y-122743139D01*
X224243139Y-122430557D01*
X224488732Y-122063000D01*
X224657900Y-121654592D01*
X224744142Y-121221029D01*
X224744142Y-120778971D01*
X224657900Y-120345408D01*
X224488732Y-119937000D01*
X224243139Y-119569443D01*
X223930557Y-119256861D01*
X223563000Y-119011268D01*
X223154592Y-118842100D01*
X222721029Y-118755858D01*
X222278971Y-118755858D01*
X221845408Y-118842100D01*
X221437000Y-119011268D01*
X221069443Y-119256861D01*
X220756861Y-119569443D01*
X220511268Y-119937000D01*
X220342100Y-120345408D01*
X220255858Y-120778971D01*
X220255858Y-121221029D01*
X220267935Y-121281743D01*
X219344134Y-120593999D01*
X218089794Y-119869805D01*
X216759861Y-119296128D01*
X215372321Y-118880726D01*
X213945937Y-118629216D01*
X212500000Y-118545000D01*
X211054063Y-118629216D01*
X209627679Y-118880726D01*
X208240139Y-119296128D01*
X206910206Y-119869805D01*
X205655866Y-120593999D01*
X204732065Y-121281743D01*
X204744142Y-121221029D01*
X204744142Y-120778971D01*
X204657900Y-120345408D01*
X204488732Y-119937000D01*
X204243139Y-119569443D01*
X203930557Y-119256861D01*
X203563000Y-119011268D01*
X203154592Y-118842100D01*
X202721029Y-118755858D01*
X202278971Y-118755858D01*
X201845408Y-118842100D01*
X201437000Y-119011268D01*
X201069443Y-119256861D01*
X200756861Y-119569443D01*
X200685000Y-119676991D01*
X200685000Y-117076070D01*
X200697637Y-117094983D01*
X200995017Y-117392363D01*
X201344698Y-117626012D01*
X201733244Y-117786953D01*
X202145721Y-117869000D01*
X202566279Y-117869000D01*
X202978756Y-117786953D01*
X203367302Y-117626012D01*
X203716983Y-117392363D01*
X204014363Y-117094983D01*
X204248012Y-116745302D01*
X204306648Y-116603740D01*
X204935000Y-116603740D01*
X204935000Y-116896260D01*
X204992068Y-117183158D01*
X205104010Y-117453411D01*
X205266525Y-117696632D01*
X205473368Y-117903475D01*
X205716589Y-118065990D01*
X205986842Y-118177932D01*
X206273740Y-118235000D01*
X206566260Y-118235000D01*
X206853158Y-118177932D01*
X207123411Y-118065990D01*
X207366632Y-117903475D01*
X207573475Y-117696632D01*
X207690000Y-117522240D01*
X207806525Y-117696632D01*
X208013368Y-117903475D01*
X208256589Y-118065990D01*
X208526842Y-118177932D01*
X208813740Y-118235000D01*
X209106260Y-118235000D01*
X209393158Y-118177932D01*
X209663411Y-118065990D01*
X209906632Y-117903475D01*
X210031710Y-117778397D01*
X210651208Y-117778397D01*
X210728843Y-118027472D01*
X210992883Y-118153371D01*
X211276411Y-118225339D01*
X211568531Y-118240611D01*
X211858019Y-118198599D01*
X212133747Y-118100919D01*
X212271157Y-118027472D01*
X212348792Y-117778397D01*
X213191208Y-117778397D01*
X213268843Y-118027472D01*
X213532883Y-118153371D01*
X213816411Y-118225339D01*
X214108531Y-118240611D01*
X214398019Y-118198599D01*
X214673747Y-118100919D01*
X214811157Y-118027472D01*
X214888792Y-117778397D01*
X214040000Y-116929605D01*
X213191208Y-117778397D01*
X212348792Y-117778397D01*
X211500000Y-116929605D01*
X210651208Y-117778397D01*
X210031710Y-117778397D01*
X210113475Y-117696632D01*
X210229311Y-117523271D01*
X210471603Y-117598792D01*
X211320395Y-116750000D01*
X211679605Y-116750000D01*
X212528397Y-117598792D01*
X212770000Y-117523486D01*
X213011603Y-117598792D01*
X213860395Y-116750000D01*
X213011603Y-115901208D01*
X212770000Y-115976514D01*
X212528397Y-115901208D01*
X211679605Y-116750000D01*
X211320395Y-116750000D01*
X210471603Y-115901208D01*
X210229311Y-115976729D01*
X210113475Y-115803368D01*
X210031710Y-115721603D01*
X210651208Y-115721603D01*
X211500000Y-116570395D01*
X212348792Y-115721603D01*
X212271157Y-115472528D01*
X212007117Y-115346629D01*
X211723589Y-115274661D01*
X211431469Y-115259389D01*
X211141981Y-115301401D01*
X210866253Y-115399081D01*
X210728843Y-115472528D01*
X210651208Y-115721603D01*
X210031710Y-115721603D01*
X209906632Y-115596525D01*
X209663411Y-115434010D01*
X209393158Y-115322068D01*
X209106260Y-115265000D01*
X208813740Y-115265000D01*
X208526842Y-115322068D01*
X208256589Y-115434010D01*
X208013368Y-115596525D01*
X207806525Y-115803368D01*
X207690000Y-115977760D01*
X207573475Y-115803368D01*
X207366632Y-115596525D01*
X207123411Y-115434010D01*
X206853158Y-115322068D01*
X206566260Y-115265000D01*
X206273740Y-115265000D01*
X205986842Y-115322068D01*
X205716589Y-115434010D01*
X205473368Y-115596525D01*
X205266525Y-115803368D01*
X205104010Y-116046589D01*
X204992068Y-116316842D01*
X204935000Y-116603740D01*
X204306648Y-116603740D01*
X204408953Y-116356756D01*
X204491000Y-115944279D01*
X204491000Y-115523721D01*
X204408953Y-115111244D01*
X204248012Y-114722698D01*
X204014363Y-114373017D01*
X203716983Y-114075637D01*
X203367302Y-113841988D01*
X202978756Y-113681047D01*
X202566279Y-113599000D01*
X202145721Y-113599000D01*
X201733244Y-113681047D01*
X201344698Y-113841988D01*
X200995017Y-114075637D01*
X200697637Y-114373017D01*
X200685000Y-114391930D01*
X200685000Y-97033505D01*
X200732312Y-96550984D01*
X200862714Y-96119070D01*
X201074524Y-95720715D01*
X201359675Y-95371086D01*
X201707303Y-95083503D01*
X202104177Y-94868914D01*
X202535161Y-94735502D01*
X203015654Y-94685000D01*
X206510778Y-94685000D01*
X206509265Y-94685459D01*
G04 #@! TA.AperFunction,Conductor*
D24*
G36*
X206509265Y-94685459D02*
G01*
X206421283Y-94712148D01*
X206137246Y-94863969D01*
X205888284Y-95068286D01*
X205837077Y-95130682D01*
X204650686Y-96317074D01*
X204588286Y-96368284D01*
X204383969Y-96617247D01*
X204232148Y-96901284D01*
X204138657Y-97209483D01*
X204116649Y-97432939D01*
X204107089Y-97529998D01*
X204115000Y-97610317D01*
X204115001Y-110419671D01*
X204107089Y-110500000D01*
X204138658Y-110820516D01*
X204232148Y-111128714D01*
X204345109Y-111340048D01*
X204383970Y-111412752D01*
X204588287Y-111661714D01*
X204650682Y-111712920D01*
X207287080Y-114349319D01*
X207338286Y-114411714D01*
X207587248Y-114616031D01*
X207871285Y-114767852D01*
X208179484Y-114861343D01*
X208419678Y-114885000D01*
X208419680Y-114885000D01*
X208499999Y-114892911D01*
X208580319Y-114885000D01*
X213572762Y-114885000D01*
X213950232Y-115262471D01*
X213681981Y-115301401D01*
X213406253Y-115399081D01*
X213268843Y-115472528D01*
X213191208Y-115721603D01*
X214040000Y-116570395D01*
X214054143Y-116556253D01*
X214233748Y-116735858D01*
X214219605Y-116750000D01*
X215068397Y-117598792D01*
X215163875Y-117569032D01*
X215213970Y-117662752D01*
X215418287Y-117911714D01*
X215667249Y-118116031D01*
X215951286Y-118267852D01*
X216259485Y-118361343D01*
X216580000Y-118392911D01*
X216900516Y-118361343D01*
X217208715Y-118267852D01*
X217492752Y-118116031D01*
X217741714Y-117911714D01*
X217744835Y-117907911D01*
X229565000Y-117907911D01*
X229565000Y-118092089D01*
X229600932Y-118272729D01*
X229671414Y-118442889D01*
X229773738Y-118596028D01*
X229903972Y-118726262D01*
X230057111Y-118828586D01*
X230211787Y-118892654D01*
X231015001Y-119695869D01*
X231015000Y-120917049D01*
X230921414Y-121057111D01*
X230850932Y-121227271D01*
X230815000Y-121407911D01*
X230815000Y-121592089D01*
X230850932Y-121772729D01*
X230921414Y-121942889D01*
X231023738Y-122096028D01*
X231153972Y-122226262D01*
X231307111Y-122328586D01*
X231477271Y-122399068D01*
X231657911Y-122435000D01*
X231842089Y-122435000D01*
X232022729Y-122399068D01*
X232192889Y-122328586D01*
X232346028Y-122226262D01*
X232476262Y-122096028D01*
X232578586Y-121942889D01*
X232649068Y-121772729D01*
X232665000Y-121692634D01*
X232665001Y-125329503D01*
X232592089Y-125315000D01*
X232407911Y-125315000D01*
X232227271Y-125350932D01*
X232057111Y-125421414D01*
X231903972Y-125523738D01*
X231773738Y-125653972D01*
X231671414Y-125807111D01*
X231600932Y-125977271D01*
X231565000Y-126157911D01*
X231565000Y-126342089D01*
X231600932Y-126522729D01*
X231671414Y-126692889D01*
X231773738Y-126846028D01*
X231903972Y-126976262D01*
X232057111Y-127078586D01*
X232227271Y-127149068D01*
X232407911Y-127185000D01*
X232592089Y-127185000D01*
X232665000Y-127170497D01*
X232665001Y-133404131D01*
X232211787Y-133857346D01*
X232057111Y-133921414D01*
X231903972Y-134023738D01*
X231773738Y-134153972D01*
X231671414Y-134307111D01*
X231600932Y-134477271D01*
X231565000Y-134657911D01*
X231565000Y-134842089D01*
X231600932Y-135022729D01*
X231671414Y-135192889D01*
X231773738Y-135346028D01*
X231903972Y-135476262D01*
X232057111Y-135578586D01*
X232227271Y-135649068D01*
X232407911Y-135685000D01*
X232592089Y-135685000D01*
X232772729Y-135649068D01*
X232942889Y-135578586D01*
X233096028Y-135476262D01*
X233226262Y-135346028D01*
X233328586Y-135192889D01*
X233392654Y-135038213D01*
X234061432Y-134369437D01*
X234093291Y-134343291D01*
X234136190Y-134291019D01*
X234145251Y-134279977D01*
X234197636Y-134216146D01*
X234275172Y-134071087D01*
X234322918Y-133913689D01*
X234335000Y-133791019D01*
X234335000Y-133791018D01*
X234339040Y-133750000D01*
X234335000Y-133708982D01*
X234335000Y-121835000D01*
X238626725Y-121835000D01*
X238665000Y-121927404D01*
X238665001Y-125822594D01*
X238600932Y-125977271D01*
X238565000Y-126157911D01*
X238565000Y-126342089D01*
X238600932Y-126522729D01*
X238665000Y-126677404D01*
X238665001Y-134458971D01*
X238660960Y-134500000D01*
X238677082Y-134663688D01*
X238724828Y-134821086D01*
X238792471Y-134947636D01*
X238802365Y-134966146D01*
X238853103Y-135027971D01*
X238921414Y-135192889D01*
X239023738Y-135346028D01*
X239153972Y-135476262D01*
X239307111Y-135578586D01*
X239477271Y-135649068D01*
X239657911Y-135685000D01*
X239842089Y-135685000D01*
X240022729Y-135649068D01*
X240192889Y-135578586D01*
X240346028Y-135476262D01*
X240476262Y-135346028D01*
X240578586Y-135192889D01*
X240649068Y-135022729D01*
X240685000Y-134842089D01*
X240685000Y-134657911D01*
X240649068Y-134477271D01*
X240578586Y-134307111D01*
X240476262Y-134153972D01*
X240346028Y-134023738D01*
X240335000Y-134016369D01*
X240335000Y-126677404D01*
X240399068Y-126522729D01*
X240435000Y-126342089D01*
X240435000Y-126157911D01*
X240399068Y-125977271D01*
X240335000Y-125822596D01*
X240335000Y-121927404D01*
X240373275Y-121835000D01*
X246065000Y-121835000D01*
X246065000Y-121842089D01*
X246100932Y-122022729D01*
X246165000Y-122177404D01*
X246165001Y-126072594D01*
X246100932Y-126227271D01*
X246065000Y-126407911D01*
X246065000Y-126592089D01*
X246100932Y-126772729D01*
X246165000Y-126927404D01*
X246165001Y-134208971D01*
X246160960Y-134250000D01*
X246177082Y-134413688D01*
X246224828Y-134571086D01*
X246274325Y-134663688D01*
X246302365Y-134716146D01*
X246406710Y-134843291D01*
X246438574Y-134869441D01*
X246607346Y-135038213D01*
X246671414Y-135192889D01*
X246773738Y-135346028D01*
X246903972Y-135476262D01*
X247057111Y-135578586D01*
X247227271Y-135649068D01*
X247407911Y-135685000D01*
X247592089Y-135685000D01*
X247772729Y-135649068D01*
X247942889Y-135578586D01*
X248096028Y-135476262D01*
X248226262Y-135346028D01*
X248328586Y-135192889D01*
X248399068Y-135022729D01*
X248435000Y-134842089D01*
X248435000Y-134657911D01*
X248399068Y-134477271D01*
X248328586Y-134307111D01*
X248226262Y-134153972D01*
X248096028Y-134023738D01*
X247942889Y-133921414D01*
X247835000Y-133876725D01*
X247835000Y-126927404D01*
X247899068Y-126772729D01*
X247935000Y-126592089D01*
X247935000Y-126407911D01*
X247899068Y-126227271D01*
X247835000Y-126072596D01*
X247835000Y-122177404D01*
X247899068Y-122022729D01*
X247935000Y-121842089D01*
X247935000Y-121835000D01*
X253065000Y-121835000D01*
X253065000Y-121842089D01*
X253100932Y-122022729D01*
X253171414Y-122192889D01*
X253273738Y-122346028D01*
X253403972Y-122476262D01*
X253557111Y-122578586D01*
X253727271Y-122649068D01*
X253907911Y-122685000D01*
X254092089Y-122685000D01*
X254272729Y-122649068D01*
X254442889Y-122578586D01*
X254596028Y-122476262D01*
X254726262Y-122346028D01*
X254828586Y-122192889D01*
X254899068Y-122022729D01*
X254935000Y-121842089D01*
X254935000Y-121835000D01*
X255165000Y-121835000D01*
X255165001Y-124904131D01*
X254711787Y-125357346D01*
X254557111Y-125421414D01*
X254403972Y-125523738D01*
X254273738Y-125653972D01*
X254171414Y-125807111D01*
X254100932Y-125977271D01*
X254065000Y-126157911D01*
X254065000Y-126342089D01*
X254100932Y-126522729D01*
X254165000Y-126677404D01*
X254165001Y-134072594D01*
X254100932Y-134227271D01*
X254065000Y-134407911D01*
X254065000Y-134592089D01*
X254100932Y-134772729D01*
X254171414Y-134942889D01*
X254273738Y-135096028D01*
X254403972Y-135226262D01*
X254557111Y-135328586D01*
X254727271Y-135399068D01*
X254907911Y-135435000D01*
X255092089Y-135435000D01*
X255272729Y-135399068D01*
X255442889Y-135328586D01*
X255596028Y-135226262D01*
X255726262Y-135096028D01*
X255828586Y-134942889D01*
X255899068Y-134772729D01*
X255935000Y-134592089D01*
X255935000Y-134407911D01*
X255899068Y-134227271D01*
X255835000Y-134072596D01*
X255835000Y-126677404D01*
X255892654Y-126538213D01*
X256561432Y-125869437D01*
X256593291Y-125843291D01*
X256697636Y-125716146D01*
X256775172Y-125571087D01*
X256822918Y-125413689D01*
X256835000Y-125291019D01*
X256835000Y-125291018D01*
X256839040Y-125250000D01*
X256835000Y-125208982D01*
X256835000Y-121835000D01*
X261415000Y-121835000D01*
X261415001Y-126041019D01*
X261427083Y-126163689D01*
X261474829Y-126321087D01*
X261552365Y-126466146D01*
X261603103Y-126527971D01*
X261665000Y-126677404D01*
X261665001Y-134322594D01*
X261600932Y-134477271D01*
X261565000Y-134657911D01*
X261565000Y-134842089D01*
X261600932Y-135022729D01*
X261671414Y-135192889D01*
X261773738Y-135346028D01*
X261903972Y-135476262D01*
X262057111Y-135578586D01*
X262227271Y-135649068D01*
X262407911Y-135685000D01*
X262592089Y-135685000D01*
X262772729Y-135649068D01*
X262942889Y-135578586D01*
X263096028Y-135476262D01*
X263226262Y-135346028D01*
X263328586Y-135192889D01*
X263399068Y-135022729D01*
X263435000Y-134842089D01*
X263435000Y-134657911D01*
X263399068Y-134477271D01*
X263335000Y-134322596D01*
X263335000Y-126677404D01*
X263399068Y-126522729D01*
X263435000Y-126342089D01*
X263435000Y-126157911D01*
X263399068Y-125977271D01*
X263328586Y-125807111D01*
X263226262Y-125653972D01*
X263096028Y-125523738D01*
X263085000Y-125516369D01*
X263085000Y-121427404D01*
X263149068Y-121272729D01*
X263185000Y-121092089D01*
X263185000Y-120907911D01*
X263149068Y-120727271D01*
X263078586Y-120557111D01*
X262976262Y-120403972D01*
X262846028Y-120273738D01*
X262692889Y-120171414D01*
X262522729Y-120100932D01*
X262342089Y-120065000D01*
X262157911Y-120065000D01*
X261977271Y-120100932D01*
X261822596Y-120165000D01*
X256041018Y-120165000D01*
X256000000Y-120160960D01*
X255958981Y-120165000D01*
X247041018Y-120165000D01*
X247000000Y-120160960D01*
X246958981Y-120165000D01*
X239541018Y-120165000D01*
X239500000Y-120160960D01*
X239458981Y-120165000D01*
X233845868Y-120165000D01*
X232494448Y-118813581D01*
X232494439Y-118813570D01*
X231392654Y-117711787D01*
X231328586Y-117557111D01*
X231226262Y-117403972D01*
X231096028Y-117273738D01*
X230942889Y-117171414D01*
X230772729Y-117100932D01*
X230592089Y-117065000D01*
X230407911Y-117065000D01*
X230227271Y-117100932D01*
X230057111Y-117171414D01*
X229903972Y-117273738D01*
X229773738Y-117403972D01*
X229671414Y-117557111D01*
X229600932Y-117727271D01*
X229565000Y-117907911D01*
X217744835Y-117907911D01*
X217946031Y-117662752D01*
X218097852Y-117378715D01*
X218191343Y-117070516D01*
X218215000Y-116830322D01*
X218215000Y-115660319D01*
X218222911Y-115580000D01*
X218191343Y-115259483D01*
X218097852Y-114951285D01*
X218057077Y-114874999D01*
X219261928Y-114874999D01*
X219261928Y-116125001D01*
X219278992Y-116298255D01*
X219329528Y-116464851D01*
X219411595Y-116618387D01*
X219522038Y-116752962D01*
X219656613Y-116863405D01*
X219810149Y-116945472D01*
X219976745Y-116996008D01*
X220149999Y-117013072D01*
X220850001Y-117013072D01*
X221023255Y-116996008D01*
X221189851Y-116945472D01*
X221343387Y-116863405D01*
X221477962Y-116752962D01*
X221588405Y-116618387D01*
X221590967Y-116613594D01*
X221716526Y-116738078D01*
X221919467Y-116872421D01*
X222144718Y-116964591D01*
X222182391Y-116968462D01*
X222373000Y-116843731D01*
X222373000Y-115627000D01*
X222627000Y-115627000D01*
X222627000Y-116843731D01*
X222817609Y-116968462D01*
X222855282Y-116964591D01*
X223080533Y-116872421D01*
X223283474Y-116738078D01*
X223456307Y-116566725D01*
X223592390Y-116364946D01*
X223686493Y-116140496D01*
X223735000Y-115902000D01*
X223735000Y-115627000D01*
X222627000Y-115627000D01*
X222373000Y-115627000D01*
X222353000Y-115627000D01*
X222353000Y-115373000D01*
X222373000Y-115373000D01*
X222373000Y-114156269D01*
X222627000Y-114156269D01*
X222627000Y-115373000D01*
X223735000Y-115373000D01*
X223735000Y-115098000D01*
X223686493Y-114859504D01*
X223592390Y-114635054D01*
X223456307Y-114433275D01*
X223283474Y-114261922D01*
X223080533Y-114127579D01*
X222855282Y-114035409D01*
X222817609Y-114031538D01*
X222627000Y-114156269D01*
X222373000Y-114156269D01*
X222182391Y-114031538D01*
X222144718Y-114035409D01*
X221919467Y-114127579D01*
X221716526Y-114261922D01*
X221590967Y-114386406D01*
X221588405Y-114381613D01*
X221477962Y-114247038D01*
X221343387Y-114136595D01*
X221189851Y-114054528D01*
X221023255Y-114003992D01*
X220850001Y-113986928D01*
X220149999Y-113986928D01*
X219976745Y-114003992D01*
X219810149Y-114054528D01*
X219656613Y-114136595D01*
X219522038Y-114247038D01*
X219411595Y-114381613D01*
X219329528Y-114535149D01*
X219278992Y-114701745D01*
X219261928Y-114874999D01*
X218057077Y-114874999D01*
X217999804Y-114767851D01*
X217946031Y-114667248D01*
X217741714Y-114418286D01*
X217679325Y-114367085D01*
X215462924Y-112150686D01*
X215411714Y-112088286D01*
X215162752Y-111883969D01*
X214878715Y-111732148D01*
X214681779Y-111672408D01*
X218023000Y-111672408D01*
X218023000Y-111947592D01*
X218076686Y-112217490D01*
X218181995Y-112471727D01*
X218334880Y-112700535D01*
X218529465Y-112895120D01*
X218758273Y-113048005D01*
X219012510Y-113153314D01*
X219282408Y-113207000D01*
X219557592Y-113207000D01*
X219827490Y-113153314D01*
X220081727Y-113048005D01*
X220310535Y-112895120D01*
X220505120Y-112700535D01*
X220658005Y-112471727D01*
X220690000Y-112394485D01*
X220721995Y-112471727D01*
X220874880Y-112700535D01*
X221069465Y-112895120D01*
X221298273Y-113048005D01*
X221552510Y-113153314D01*
X221822408Y-113207000D01*
X222097592Y-113207000D01*
X222367490Y-113153314D01*
X222621727Y-113048005D01*
X222850535Y-112895120D01*
X223045120Y-112700535D01*
X223198005Y-112471727D01*
X223230000Y-112394485D01*
X223261995Y-112471727D01*
X223414880Y-112700535D01*
X223609465Y-112895120D01*
X223838273Y-113048005D01*
X224092510Y-113153314D01*
X224362408Y-113207000D01*
X224637592Y-113207000D01*
X224907490Y-113153314D01*
X225161727Y-113048005D01*
X225390535Y-112895120D01*
X225585120Y-112700535D01*
X225738005Y-112471727D01*
X225770000Y-112394485D01*
X225801995Y-112471727D01*
X225954880Y-112700535D01*
X226149465Y-112895120D01*
X226378273Y-113048005D01*
X226632510Y-113153314D01*
X226902408Y-113207000D01*
X227177592Y-113207000D01*
X227447490Y-113153314D01*
X227701727Y-113048005D01*
X227930535Y-112895120D01*
X228050090Y-112775565D01*
X228794040Y-112775565D01*
X228861020Y-113015656D01*
X229110048Y-113132756D01*
X229377135Y-113199023D01*
X229652017Y-113211910D01*
X229924133Y-113170922D01*
X230183023Y-113077636D01*
X230298980Y-113015656D01*
X230365960Y-112775565D01*
X229580000Y-111989605D01*
X228794040Y-112775565D01*
X228050090Y-112775565D01*
X228125120Y-112700535D01*
X228278005Y-112471727D01*
X228307692Y-112400057D01*
X228312364Y-112413023D01*
X228374344Y-112528980D01*
X228614435Y-112595960D01*
X229400395Y-111810000D01*
X229759605Y-111810000D01*
X230545565Y-112595960D01*
X230785656Y-112528980D01*
X230902756Y-112279952D01*
X230969023Y-112012865D01*
X230981910Y-111737983D01*
X230940922Y-111465867D01*
X230847636Y-111206977D01*
X230785656Y-111091020D01*
X230545565Y-111024040D01*
X229759605Y-111810000D01*
X229400395Y-111810000D01*
X228614435Y-111024040D01*
X228374344Y-111091020D01*
X228310515Y-111226760D01*
X228278005Y-111148273D01*
X228125120Y-110919465D01*
X228050090Y-110844435D01*
X228794040Y-110844435D01*
X229580000Y-111630395D01*
X230365960Y-110844435D01*
X230298980Y-110604344D01*
X230049952Y-110487244D01*
X229782865Y-110420977D01*
X229507983Y-110408090D01*
X229235867Y-110449078D01*
X228976977Y-110542364D01*
X228861020Y-110604344D01*
X228794040Y-110844435D01*
X228050090Y-110844435D01*
X227930535Y-110724880D01*
X227701727Y-110571995D01*
X227447490Y-110466686D01*
X227177592Y-110413000D01*
X226902408Y-110413000D01*
X226632510Y-110466686D01*
X226378273Y-110571995D01*
X226149465Y-110724880D01*
X225954880Y-110919465D01*
X225801995Y-111148273D01*
X225770000Y-111225515D01*
X225738005Y-111148273D01*
X225585120Y-110919465D01*
X225390535Y-110724880D01*
X225161727Y-110571995D01*
X224907490Y-110466686D01*
X224637592Y-110413000D01*
X224362408Y-110413000D01*
X224092510Y-110466686D01*
X223838273Y-110571995D01*
X223609465Y-110724880D01*
X223414880Y-110919465D01*
X223261995Y-111148273D01*
X223230000Y-111225515D01*
X223198005Y-111148273D01*
X223045120Y-110919465D01*
X222850535Y-110724880D01*
X222621727Y-110571995D01*
X222367490Y-110466686D01*
X222097592Y-110413000D01*
X221822408Y-110413000D01*
X221552510Y-110466686D01*
X221298273Y-110571995D01*
X221069465Y-110724880D01*
X220874880Y-110919465D01*
X220721995Y-111148273D01*
X220690000Y-111225515D01*
X220658005Y-111148273D01*
X220505120Y-110919465D01*
X220310535Y-110724880D01*
X220081727Y-110571995D01*
X219827490Y-110466686D01*
X219557592Y-110413000D01*
X219282408Y-110413000D01*
X219012510Y-110466686D01*
X218758273Y-110571995D01*
X218529465Y-110724880D01*
X218334880Y-110919465D01*
X218181995Y-111148273D01*
X218076686Y-111402510D01*
X218023000Y-111672408D01*
X214681779Y-111672408D01*
X214570516Y-111638657D01*
X214330322Y-111615000D01*
X214330319Y-111615000D01*
X214250000Y-111607089D01*
X214169681Y-111615000D01*
X209177239Y-111615000D01*
X207385000Y-109822762D01*
X207385000Y-102315721D01*
X213429000Y-102315721D01*
X213429000Y-102736279D01*
X213511047Y-103148756D01*
X213671988Y-103537302D01*
X213905637Y-103886983D01*
X214203017Y-104184363D01*
X214552698Y-104418012D01*
X214941244Y-104578953D01*
X215353721Y-104661000D01*
X215774279Y-104661000D01*
X216186756Y-104578953D01*
X216575302Y-104418012D01*
X216924983Y-104184363D01*
X217222363Y-103886983D01*
X217456012Y-103537302D01*
X217616953Y-103148756D01*
X217699000Y-102736279D01*
X217699000Y-102315721D01*
X217616953Y-101903244D01*
X217456012Y-101514698D01*
X217222363Y-101165017D01*
X216924983Y-100867637D01*
X216575302Y-100633988D01*
X216186756Y-100473047D01*
X215774279Y-100391000D01*
X215353721Y-100391000D01*
X214941244Y-100473047D01*
X214552698Y-100633988D01*
X214203017Y-100867637D01*
X213905637Y-101165017D01*
X213671988Y-101514698D01*
X213511047Y-101903244D01*
X213429000Y-102315721D01*
X207385000Y-102315721D01*
X207385000Y-100242621D01*
X207395518Y-100245812D01*
X207520000Y-100258072D01*
X209220000Y-100258072D01*
X209344482Y-100245812D01*
X209464180Y-100209502D01*
X209574494Y-100150537D01*
X209671185Y-100071185D01*
X209750537Y-99974494D01*
X209809502Y-99864180D01*
X209831513Y-99791620D01*
X209963368Y-99923475D01*
X210206589Y-100085990D01*
X210476842Y-100197932D01*
X210763740Y-100255000D01*
X211056260Y-100255000D01*
X211343158Y-100197932D01*
X211613411Y-100085990D01*
X211856632Y-99923475D01*
X212063475Y-99716632D01*
X212180000Y-99542240D01*
X212296525Y-99716632D01*
X212503368Y-99923475D01*
X212746589Y-100085990D01*
X213016842Y-100197932D01*
X213303740Y-100255000D01*
X213596260Y-100255000D01*
X213883158Y-100197932D01*
X214153411Y-100085990D01*
X214396632Y-99923475D01*
X214603475Y-99716632D01*
X214720000Y-99542240D01*
X214836525Y-99716632D01*
X215043368Y-99923475D01*
X215286589Y-100085990D01*
X215556842Y-100197932D01*
X215843740Y-100255000D01*
X216136260Y-100255000D01*
X216423158Y-100197932D01*
X216693411Y-100085990D01*
X216936632Y-99923475D01*
X217143475Y-99716632D01*
X217265195Y-99534466D01*
X217334822Y-99651355D01*
X217529731Y-99867588D01*
X217763080Y-100041641D01*
X218025901Y-100166825D01*
X218173110Y-100211476D01*
X218403000Y-100090155D01*
X218403000Y-98897000D01*
X218383000Y-98897000D01*
X218383000Y-98643000D01*
X218403000Y-98643000D01*
X218403000Y-98623000D01*
X218657000Y-98623000D01*
X218657000Y-98643000D01*
X218677000Y-98643000D01*
X218677000Y-98897000D01*
X218657000Y-98897000D01*
X218657000Y-100090155D01*
X218886890Y-100211476D01*
X219034099Y-100166825D01*
X219296920Y-100041641D01*
X219530269Y-99867588D01*
X219725178Y-99651355D01*
X219794805Y-99534466D01*
X219916525Y-99716632D01*
X220123368Y-99923475D01*
X220366589Y-100085990D01*
X220636842Y-100197932D01*
X220923740Y-100255000D01*
X221216260Y-100255000D01*
X221503158Y-100197932D01*
X221773411Y-100085990D01*
X222016632Y-99923475D01*
X222223475Y-99716632D01*
X222340000Y-99542240D01*
X222456525Y-99716632D01*
X222663368Y-99923475D01*
X222906589Y-100085990D01*
X223176842Y-100197932D01*
X223463740Y-100255000D01*
X223756260Y-100255000D01*
X224043158Y-100197932D01*
X224313411Y-100085990D01*
X224556632Y-99923475D01*
X224763475Y-99716632D01*
X224880000Y-99542240D01*
X224996525Y-99716632D01*
X225203368Y-99923475D01*
X225446589Y-100085990D01*
X225716842Y-100197932D01*
X226003740Y-100255000D01*
X226296260Y-100255000D01*
X226583158Y-100197932D01*
X226853411Y-100085990D01*
X227096632Y-99923475D01*
X227303475Y-99716632D01*
X227420000Y-99542240D01*
X227536525Y-99716632D01*
X227743368Y-99923475D01*
X227855000Y-99998065D01*
X227855001Y-103054410D01*
X227701727Y-102951995D01*
X227447490Y-102846686D01*
X227177592Y-102793000D01*
X226902408Y-102793000D01*
X226632510Y-102846686D01*
X226378273Y-102951995D01*
X226149465Y-103104880D01*
X225954880Y-103299465D01*
X225801995Y-103528273D01*
X225770000Y-103605515D01*
X225738005Y-103528273D01*
X225585120Y-103299465D01*
X225390535Y-103104880D01*
X225161727Y-102951995D01*
X224907490Y-102846686D01*
X224637592Y-102793000D01*
X224362408Y-102793000D01*
X224092510Y-102846686D01*
X223838273Y-102951995D01*
X223609465Y-103104880D01*
X223414880Y-103299465D01*
X223261995Y-103528273D01*
X223230000Y-103605515D01*
X223198005Y-103528273D01*
X223045120Y-103299465D01*
X222850535Y-103104880D01*
X222621727Y-102951995D01*
X222367490Y-102846686D01*
X222097592Y-102793000D01*
X221822408Y-102793000D01*
X221552510Y-102846686D01*
X221298273Y-102951995D01*
X221069465Y-103104880D01*
X220874880Y-103299465D01*
X220721995Y-103528273D01*
X220690000Y-103605515D01*
X220658005Y-103528273D01*
X220505120Y-103299465D01*
X220310535Y-103104880D01*
X220081727Y-102951995D01*
X219827490Y-102846686D01*
X219557592Y-102793000D01*
X219282408Y-102793000D01*
X219012510Y-102846686D01*
X218758273Y-102951995D01*
X218529465Y-103104880D01*
X218334880Y-103299465D01*
X218181995Y-103528273D01*
X218076686Y-103782510D01*
X218023000Y-104052408D01*
X218023000Y-104327592D01*
X218076686Y-104597490D01*
X218181995Y-104851727D01*
X218334880Y-105080535D01*
X218529465Y-105275120D01*
X218758273Y-105428005D01*
X219012510Y-105533314D01*
X219282408Y-105587000D01*
X219557592Y-105587000D01*
X219827490Y-105533314D01*
X220081727Y-105428005D01*
X220310535Y-105275120D01*
X220505120Y-105080535D01*
X220658005Y-104851727D01*
X220690000Y-104774485D01*
X220721995Y-104851727D01*
X220874880Y-105080535D01*
X221069465Y-105275120D01*
X221298273Y-105428005D01*
X221552510Y-105533314D01*
X221822408Y-105587000D01*
X222097592Y-105587000D01*
X222367490Y-105533314D01*
X222621727Y-105428005D01*
X222850535Y-105275120D01*
X223045120Y-105080535D01*
X223198005Y-104851727D01*
X223230000Y-104774485D01*
X223261995Y-104851727D01*
X223414880Y-105080535D01*
X223609465Y-105275120D01*
X223838273Y-105428005D01*
X224092510Y-105533314D01*
X224362408Y-105587000D01*
X224637592Y-105587000D01*
X224907490Y-105533314D01*
X225161727Y-105428005D01*
X225390535Y-105275120D01*
X225585120Y-105080535D01*
X225738005Y-104851727D01*
X225770000Y-104774485D01*
X225801995Y-104851727D01*
X225954880Y-105080535D01*
X226149465Y-105275120D01*
X226378273Y-105428005D01*
X226632510Y-105533314D01*
X226902408Y-105587000D01*
X227177592Y-105587000D01*
X227447490Y-105533314D01*
X227701727Y-105428005D01*
X227930535Y-105275120D01*
X228125120Y-105080535D01*
X228278005Y-104851727D01*
X228310000Y-104774485D01*
X228341995Y-104851727D01*
X228494880Y-105080535D01*
X228689465Y-105275120D01*
X228918273Y-105428005D01*
X229172510Y-105533314D01*
X229442408Y-105587000D01*
X229717592Y-105587000D01*
X229987490Y-105533314D01*
X230241727Y-105428005D01*
X230470535Y-105275120D01*
X230665120Y-105080535D01*
X230818005Y-104851727D01*
X230923314Y-104597490D01*
X230977000Y-104327592D01*
X230977000Y-104052408D01*
X230923314Y-103782510D01*
X230818005Y-103528273D01*
X230665120Y-103299465D01*
X230470535Y-103104880D01*
X230241727Y-102951995D01*
X229987490Y-102846686D01*
X229717592Y-102793000D01*
X229525000Y-102793000D01*
X229525000Y-101814446D01*
X231318069Y-103607515D01*
X231350932Y-103772729D01*
X231421414Y-103942889D01*
X231523738Y-104096028D01*
X231653972Y-104226262D01*
X231807111Y-104328586D01*
X231977271Y-104399068D01*
X232157911Y-104435000D01*
X232342089Y-104435000D01*
X232522729Y-104399068D01*
X232692889Y-104328586D01*
X232846028Y-104226262D01*
X232976262Y-104096028D01*
X233078586Y-103942889D01*
X233149068Y-103772729D01*
X233185000Y-103592089D01*
X233185000Y-103407911D01*
X233149068Y-103227271D01*
X233078586Y-103057111D01*
X232976262Y-102903972D01*
X232846028Y-102773738D01*
X232692889Y-102671414D01*
X232522729Y-102600932D01*
X232357515Y-102568069D01*
X230575001Y-100785555D01*
X230575001Y-100106043D01*
X230796842Y-100197932D01*
X231083740Y-100255000D01*
X231376260Y-100255000D01*
X231663158Y-100197932D01*
X231933411Y-100085990D01*
X232176632Y-99923475D01*
X232383475Y-99716632D01*
X232500000Y-99542240D01*
X232616525Y-99716632D01*
X232823368Y-99923475D01*
X233066589Y-100085990D01*
X233336842Y-100197932D01*
X233623740Y-100255000D01*
X233916260Y-100255000D01*
X234203158Y-100197932D01*
X234424999Y-100106043D01*
X234425000Y-110873884D01*
X234421443Y-110909999D01*
X234435634Y-111054084D01*
X234458274Y-111128715D01*
X234477663Y-111192632D01*
X234545913Y-111320319D01*
X234637762Y-111432237D01*
X234665807Y-111455253D01*
X242454746Y-119244193D01*
X242477762Y-119272238D01*
X242505806Y-119295253D01*
X242589680Y-119364087D01*
X242717366Y-119432337D01*
X242855915Y-119474365D01*
X243000000Y-119488556D01*
X243036105Y-119485000D01*
X251917049Y-119485000D01*
X252057111Y-119578586D01*
X252227271Y-119649068D01*
X252407911Y-119685000D01*
X252592089Y-119685000D01*
X252772729Y-119649068D01*
X252942889Y-119578586D01*
X253096028Y-119476262D01*
X253226262Y-119346028D01*
X253328586Y-119192889D01*
X253399068Y-119022729D01*
X253435000Y-118842089D01*
X253435000Y-118657911D01*
X253399068Y-118477271D01*
X253328586Y-118307111D01*
X253226262Y-118153972D01*
X253096028Y-118023738D01*
X252942889Y-117921414D01*
X252772729Y-117850932D01*
X252592089Y-117815000D01*
X252407911Y-117815000D01*
X252227271Y-117850932D01*
X252057111Y-117921414D01*
X251917049Y-118015000D01*
X243304447Y-118015000D01*
X241389957Y-116100511D01*
X241442889Y-116078586D01*
X241596028Y-115976262D01*
X241726262Y-115846028D01*
X241828586Y-115692889D01*
X241899068Y-115522729D01*
X241931932Y-115357515D01*
X243034198Y-114255249D01*
X243062238Y-114232237D01*
X243085251Y-114204196D01*
X243085254Y-114204193D01*
X243154087Y-114120320D01*
X243154088Y-114120319D01*
X243222338Y-113992632D01*
X243264366Y-113854084D01*
X243275001Y-113746104D01*
X243275001Y-113746095D01*
X243278556Y-113710000D01*
X243275001Y-113673905D01*
X243275001Y-113307131D01*
X243307111Y-113328586D01*
X243477271Y-113399068D01*
X243657911Y-113435000D01*
X243842089Y-113435000D01*
X244022729Y-113399068D01*
X244192889Y-113328586D01*
X244346028Y-113226262D01*
X244476262Y-113096028D01*
X244578586Y-112942889D01*
X244649068Y-112772729D01*
X244685000Y-112592089D01*
X244685000Y-112407911D01*
X244649068Y-112227271D01*
X244578586Y-112057111D01*
X244485000Y-111917049D01*
X244485000Y-100147464D01*
X244633411Y-100085990D01*
X244876632Y-99923475D01*
X245083475Y-99716632D01*
X245200000Y-99542240D01*
X245316525Y-99716632D01*
X245523368Y-99923475D01*
X245766589Y-100085990D01*
X246036842Y-100197932D01*
X246323740Y-100255000D01*
X246616260Y-100255000D01*
X246903158Y-100197932D01*
X247173411Y-100085990D01*
X247416632Y-99923475D01*
X247623475Y-99716632D01*
X247740000Y-99542240D01*
X247856525Y-99716632D01*
X248063368Y-99923475D01*
X248306589Y-100085990D01*
X248576842Y-100197932D01*
X248863740Y-100255000D01*
X249156260Y-100255000D01*
X249443158Y-100197932D01*
X249713411Y-100085990D01*
X249956632Y-99923475D01*
X250163475Y-99716632D01*
X250280000Y-99542240D01*
X250396525Y-99716632D01*
X250603368Y-99923475D01*
X250846589Y-100085990D01*
X251116842Y-100197932D01*
X251403740Y-100255000D01*
X251696260Y-100255000D01*
X251983158Y-100197932D01*
X252253411Y-100085990D01*
X252496632Y-99923475D01*
X252703475Y-99716632D01*
X252820000Y-99542240D01*
X252936525Y-99716632D01*
X253143368Y-99923475D01*
X253386589Y-100085990D01*
X253656842Y-100197932D01*
X253943740Y-100255000D01*
X254236260Y-100255000D01*
X254523158Y-100197932D01*
X254793411Y-100085990D01*
X255036632Y-99923475D01*
X255243475Y-99716632D01*
X255365195Y-99534466D01*
X255434822Y-99651355D01*
X255629731Y-99867588D01*
X255863080Y-100041641D01*
X256125901Y-100166825D01*
X256273110Y-100211476D01*
X256503000Y-100090155D01*
X256503000Y-98897000D01*
X256757000Y-98897000D01*
X256757000Y-100090155D01*
X256986890Y-100211476D01*
X257134099Y-100166825D01*
X257396920Y-100041641D01*
X257630269Y-99867588D01*
X257825178Y-99651355D01*
X257974157Y-99401252D01*
X258071481Y-99126891D01*
X257950814Y-98897000D01*
X256757000Y-98897000D01*
X256503000Y-98897000D01*
X256483000Y-98897000D01*
X256483000Y-98643000D01*
X256503000Y-98643000D01*
X256503000Y-98623000D01*
X256757000Y-98623000D01*
X256757000Y-98643000D01*
X257950814Y-98643000D01*
X258071481Y-98413109D01*
X257974157Y-98138748D01*
X257825178Y-97888645D01*
X257630269Y-97672412D01*
X257400594Y-97501100D01*
X257576632Y-97383475D01*
X257655612Y-97304495D01*
X259515000Y-97304495D01*
X259515000Y-97695505D01*
X259591282Y-98079003D01*
X259740915Y-98440250D01*
X259958149Y-98765364D01*
X260234636Y-99041851D01*
X260559750Y-99259085D01*
X260920997Y-99408718D01*
X261304495Y-99485000D01*
X261695505Y-99485000D01*
X262079003Y-99408718D01*
X262440250Y-99259085D01*
X262765364Y-99041851D01*
X263041851Y-98765364D01*
X263259085Y-98440250D01*
X263408718Y-98079003D01*
X263485000Y-97695505D01*
X263485000Y-97304495D01*
X263408718Y-96920997D01*
X263259085Y-96559750D01*
X263041851Y-96234636D01*
X262765364Y-95958149D01*
X262440250Y-95740915D01*
X262079003Y-95591282D01*
X261695505Y-95515000D01*
X261304495Y-95515000D01*
X260920997Y-95591282D01*
X260559750Y-95740915D01*
X260234636Y-95958149D01*
X259958149Y-96234636D01*
X259740915Y-96559750D01*
X259591282Y-96920997D01*
X259515000Y-97304495D01*
X257655612Y-97304495D01*
X257783475Y-97176632D01*
X257945990Y-96933411D01*
X258057932Y-96663158D01*
X258115000Y-96376260D01*
X258115000Y-96083740D01*
X258057932Y-95796842D01*
X257945990Y-95526589D01*
X257783475Y-95283368D01*
X257576632Y-95076525D01*
X257333411Y-94914010D01*
X257063158Y-94802068D01*
X256776260Y-94745000D01*
X256483740Y-94745000D01*
X256196842Y-94802068D01*
X255926589Y-94914010D01*
X255683368Y-95076525D01*
X255476525Y-95283368D01*
X255360000Y-95457760D01*
X255243475Y-95283368D01*
X255036632Y-95076525D01*
X254793411Y-94914010D01*
X254523158Y-94802068D01*
X254236260Y-94745000D01*
X253943740Y-94745000D01*
X253656842Y-94802068D01*
X253386589Y-94914010D01*
X253143368Y-95076525D01*
X252936525Y-95283368D01*
X252820000Y-95457760D01*
X252703475Y-95283368D01*
X252496632Y-95076525D01*
X252253411Y-94914010D01*
X251983158Y-94802068D01*
X251696260Y-94745000D01*
X251403740Y-94745000D01*
X251116842Y-94802068D01*
X250846589Y-94914010D01*
X250603368Y-95076525D01*
X250396525Y-95283368D01*
X250274805Y-95465534D01*
X250205178Y-95348645D01*
X250010269Y-95132412D01*
X249776920Y-94958359D01*
X249514099Y-94833175D01*
X249366890Y-94788524D01*
X249137000Y-94909845D01*
X249137000Y-96103000D01*
X249157000Y-96103000D01*
X249157000Y-96357000D01*
X249137000Y-96357000D01*
X249137000Y-96377000D01*
X248883000Y-96377000D01*
X248883000Y-96357000D01*
X248863000Y-96357000D01*
X248863000Y-96103000D01*
X248883000Y-96103000D01*
X248883000Y-94909845D01*
X248653110Y-94788524D01*
X248505901Y-94833175D01*
X248243080Y-94958359D01*
X248009731Y-95132412D01*
X247814822Y-95348645D01*
X247745195Y-95465534D01*
X247623475Y-95283368D01*
X247416632Y-95076525D01*
X247173411Y-94914010D01*
X246903158Y-94802068D01*
X246616260Y-94745000D01*
X246323740Y-94745000D01*
X246036842Y-94802068D01*
X245766589Y-94914010D01*
X245523368Y-95076525D01*
X245316525Y-95283368D01*
X245194805Y-95465534D01*
X245125178Y-95348645D01*
X244930269Y-95132412D01*
X244696920Y-94958359D01*
X244434099Y-94833175D01*
X244286890Y-94788524D01*
X244057000Y-94909845D01*
X244057000Y-96103000D01*
X244077000Y-96103000D01*
X244077000Y-96357000D01*
X244057000Y-96357000D01*
X244057000Y-96377000D01*
X243803000Y-96377000D01*
X243803000Y-96357000D01*
X243783000Y-96357000D01*
X243783000Y-96103000D01*
X243803000Y-96103000D01*
X243803000Y-94909845D01*
X243573110Y-94788524D01*
X243425901Y-94833175D01*
X243163080Y-94958359D01*
X242929731Y-95132412D01*
X242734822Y-95348645D01*
X242665195Y-95465534D01*
X242543475Y-95283368D01*
X242336632Y-95076525D01*
X242093411Y-94914010D01*
X241823158Y-94802068D01*
X241536260Y-94745000D01*
X241243740Y-94745000D01*
X240956842Y-94802068D01*
X240686589Y-94914010D01*
X240443368Y-95076525D01*
X240236525Y-95283368D01*
X240120000Y-95457760D01*
X240003475Y-95283368D01*
X239796632Y-95076525D01*
X239553411Y-94914010D01*
X239283158Y-94802068D01*
X238996260Y-94745000D01*
X238703740Y-94745000D01*
X238416842Y-94802068D01*
X238146589Y-94914010D01*
X237903368Y-95076525D01*
X237696525Y-95283368D01*
X237580000Y-95457760D01*
X237463475Y-95283368D01*
X237256632Y-95076525D01*
X237013411Y-94914010D01*
X236743158Y-94802068D01*
X236456260Y-94745000D01*
X236163740Y-94745000D01*
X235876842Y-94802068D01*
X235606589Y-94914010D01*
X235363368Y-95076525D01*
X235156525Y-95283368D01*
X235040000Y-95457760D01*
X234923475Y-95283368D01*
X234716632Y-95076525D01*
X234473411Y-94914010D01*
X234203158Y-94802068D01*
X233916260Y-94745000D01*
X233623740Y-94745000D01*
X233336842Y-94802068D01*
X233066589Y-94914010D01*
X232823368Y-95076525D01*
X232616525Y-95283368D01*
X232494805Y-95465534D01*
X232425178Y-95348645D01*
X232230269Y-95132412D01*
X231996920Y-94958359D01*
X231734099Y-94833175D01*
X231586890Y-94788524D01*
X231357000Y-94909845D01*
X231357000Y-96103000D01*
X231377000Y-96103000D01*
X231377000Y-96357000D01*
X231357000Y-96357000D01*
X231357000Y-96377000D01*
X231103000Y-96377000D01*
X231103000Y-96357000D01*
X231083000Y-96357000D01*
X231083000Y-96103000D01*
X231103000Y-96103000D01*
X231103000Y-94909845D01*
X230873110Y-94788524D01*
X230725901Y-94833175D01*
X230463080Y-94958359D01*
X230229731Y-95132412D01*
X230034822Y-95348645D01*
X229965195Y-95465534D01*
X229843475Y-95283368D01*
X229636632Y-95076525D01*
X229393411Y-94914010D01*
X229123158Y-94802068D01*
X228836260Y-94745000D01*
X228543740Y-94745000D01*
X228256842Y-94802068D01*
X227986589Y-94914010D01*
X227743368Y-95076525D01*
X227536525Y-95283368D01*
X227420000Y-95457760D01*
X227303475Y-95283368D01*
X227096632Y-95076525D01*
X226853411Y-94914010D01*
X226583158Y-94802068D01*
X226296260Y-94745000D01*
X226003740Y-94745000D01*
X225716842Y-94802068D01*
X225446589Y-94914010D01*
X225203368Y-95076525D01*
X224996525Y-95283368D01*
X224874805Y-95465534D01*
X224805178Y-95348645D01*
X224610269Y-95132412D01*
X224376920Y-94958359D01*
X224114099Y-94833175D01*
X223966890Y-94788524D01*
X223737000Y-94909845D01*
X223737000Y-96103000D01*
X223757000Y-96103000D01*
X223757000Y-96357000D01*
X223737000Y-96357000D01*
X223737000Y-96377000D01*
X223483000Y-96377000D01*
X223483000Y-96357000D01*
X223463000Y-96357000D01*
X223463000Y-96103000D01*
X223483000Y-96103000D01*
X223483000Y-94909845D01*
X223253110Y-94788524D01*
X223105901Y-94833175D01*
X222843080Y-94958359D01*
X222609731Y-95132412D01*
X222414822Y-95348645D01*
X222345195Y-95465534D01*
X222223475Y-95283368D01*
X222016632Y-95076525D01*
X221773411Y-94914010D01*
X221503158Y-94802068D01*
X221216260Y-94745000D01*
X220923740Y-94745000D01*
X220636842Y-94802068D01*
X220366589Y-94914010D01*
X220123368Y-95076525D01*
X219916525Y-95283368D01*
X219800000Y-95457760D01*
X219683475Y-95283368D01*
X219476632Y-95076525D01*
X219233411Y-94914010D01*
X218963158Y-94802068D01*
X218676260Y-94745000D01*
X218383740Y-94745000D01*
X218096842Y-94802068D01*
X217826589Y-94914010D01*
X217583368Y-95076525D01*
X217376525Y-95283368D01*
X217260000Y-95457760D01*
X217143475Y-95283368D01*
X216936632Y-95076525D01*
X216693411Y-94914010D01*
X216423158Y-94802068D01*
X216136260Y-94745000D01*
X215843740Y-94745000D01*
X215556842Y-94802068D01*
X215286589Y-94914010D01*
X215043368Y-95076525D01*
X214836525Y-95283368D01*
X214714805Y-95465534D01*
X214645178Y-95348645D01*
X214450269Y-95132412D01*
X214216920Y-94958359D01*
X213954099Y-94833175D01*
X213806890Y-94788524D01*
X213577000Y-94909845D01*
X213577000Y-96103000D01*
X213597000Y-96103000D01*
X213597000Y-96357000D01*
X213577000Y-96357000D01*
X213577000Y-96377000D01*
X213323000Y-96377000D01*
X213323000Y-96357000D01*
X213303000Y-96357000D01*
X213303000Y-96103000D01*
X213323000Y-96103000D01*
X213323000Y-94909845D01*
X213093110Y-94788524D01*
X212945901Y-94833175D01*
X212683080Y-94958359D01*
X212449731Y-95132412D01*
X212278671Y-95322187D01*
X212276031Y-95317248D01*
X212071714Y-95068286D01*
X211822752Y-94863969D01*
X211538715Y-94712148D01*
X211449220Y-94685000D01*
X261966495Y-94685000D01*
X262449016Y-94732312D01*
X262880930Y-94862714D01*
X263279285Y-95074524D01*
X263628914Y-95359675D01*
X263916497Y-95707303D01*
X264131086Y-96104177D01*
X264264498Y-96535161D01*
X264315001Y-97015663D01*
X264315000Y-146966495D01*
X264267688Y-147449016D01*
X264137287Y-147880927D01*
X263925480Y-148279280D01*
X263640325Y-148628914D01*
X263292697Y-148916497D01*
X262895825Y-149131085D01*
X262464834Y-149264500D01*
X261984346Y-149315000D01*
X203033504Y-149315000D01*
X202550984Y-149267688D01*
X202119073Y-149137287D01*
X201720720Y-148925480D01*
X201371086Y-148640325D01*
X201083503Y-148292697D01*
X200868915Y-147895825D01*
X200735500Y-147464834D01*
X200685000Y-146984346D01*
X200685000Y-146304495D01*
X201515000Y-146304495D01*
X201515000Y-146695505D01*
X201591282Y-147079003D01*
X201740915Y-147440250D01*
X201958149Y-147765364D01*
X202234636Y-148041851D01*
X202559750Y-148259085D01*
X202920997Y-148408718D01*
X203304495Y-148485000D01*
X203695505Y-148485000D01*
X204079003Y-148408718D01*
X204440250Y-148259085D01*
X204765364Y-148041851D01*
X205041851Y-147765364D01*
X205219161Y-147500000D01*
X216011928Y-147500000D01*
X216024188Y-147624482D01*
X216060498Y-147744180D01*
X216119463Y-147854494D01*
X216198815Y-147951185D01*
X216295506Y-148030537D01*
X216405820Y-148089502D01*
X216525518Y-148125812D01*
X216650000Y-148138072D01*
X217214250Y-148135000D01*
X217373000Y-147976250D01*
X217373000Y-146627000D01*
X216173750Y-146627000D01*
X216015000Y-146785750D01*
X216011928Y-147500000D01*
X205219161Y-147500000D01*
X205259085Y-147440250D01*
X205408718Y-147079003D01*
X205485000Y-146695505D01*
X205485000Y-146304495D01*
X205408718Y-145920997D01*
X205259085Y-145559750D01*
X205219162Y-145500000D01*
X216011928Y-145500000D01*
X216015000Y-146214250D01*
X216173750Y-146373000D01*
X217373000Y-146373000D01*
X217373000Y-145023750D01*
X217627000Y-145023750D01*
X217627000Y-146373000D01*
X217647000Y-146373000D01*
X217647000Y-146627000D01*
X217627000Y-146627000D01*
X217627000Y-147976250D01*
X217785750Y-148135000D01*
X218350000Y-148138072D01*
X218474482Y-148125812D01*
X218594180Y-148089502D01*
X218704494Y-148030537D01*
X218801185Y-147951185D01*
X218880537Y-147854494D01*
X218939279Y-147744597D01*
X219087248Y-147866031D01*
X219371285Y-148017852D01*
X219679484Y-148111343D01*
X219919678Y-148135000D01*
X219927050Y-148135000D01*
X220000000Y-148142185D01*
X220072950Y-148135000D01*
X223419681Y-148135000D01*
X223500000Y-148142911D01*
X223580319Y-148135000D01*
X223580322Y-148135000D01*
X223820516Y-148111343D01*
X224128715Y-148017852D01*
X224412752Y-147866031D01*
X224432285Y-147850000D01*
X225636928Y-147850000D01*
X225649188Y-147974482D01*
X225685498Y-148094180D01*
X225744463Y-148204494D01*
X225823815Y-148301185D01*
X225920506Y-148380537D01*
X226030820Y-148439502D01*
X226150518Y-148475812D01*
X226275000Y-148488072D01*
X226964250Y-148485000D01*
X227123000Y-148326250D01*
X227123000Y-147127000D01*
X227377000Y-147127000D01*
X227377000Y-148326250D01*
X227535750Y-148485000D01*
X228225000Y-148488072D01*
X228349482Y-148475812D01*
X228469180Y-148439502D01*
X228579494Y-148380537D01*
X228676185Y-148301185D01*
X228755537Y-148204494D01*
X228814502Y-148094180D01*
X228850812Y-147974482D01*
X228863072Y-147850000D01*
X229636928Y-147850000D01*
X229649188Y-147974482D01*
X229685498Y-148094180D01*
X229744463Y-148204494D01*
X229823815Y-148301185D01*
X229920506Y-148380537D01*
X230030820Y-148439502D01*
X230150518Y-148475812D01*
X230275000Y-148488072D01*
X230964250Y-148485000D01*
X231123000Y-148326250D01*
X231123000Y-147127000D01*
X231377000Y-147127000D01*
X231377000Y-148326250D01*
X231535750Y-148485000D01*
X232225000Y-148488072D01*
X232349482Y-148475812D01*
X232469180Y-148439502D01*
X232579494Y-148380537D01*
X232676185Y-148301185D01*
X232755537Y-148204494D01*
X232814502Y-148094180D01*
X232850812Y-147974482D01*
X232863072Y-147850000D01*
X235636928Y-147850000D01*
X235649188Y-147974482D01*
X235685498Y-148094180D01*
X235744463Y-148204494D01*
X235823815Y-148301185D01*
X235920506Y-148380537D01*
X236030820Y-148439502D01*
X236150518Y-148475812D01*
X236275000Y-148488072D01*
X236964250Y-148485000D01*
X237123000Y-148326250D01*
X237123000Y-147127000D01*
X237377000Y-147127000D01*
X237377000Y-148326250D01*
X237535750Y-148485000D01*
X238225000Y-148488072D01*
X238349482Y-148475812D01*
X238469180Y-148439502D01*
X238579494Y-148380537D01*
X238676185Y-148301185D01*
X238755537Y-148204494D01*
X238814502Y-148094180D01*
X238850812Y-147974482D01*
X238863072Y-147850000D01*
X241636928Y-147850000D01*
X241649188Y-147974482D01*
X241685498Y-148094180D01*
X241744463Y-148204494D01*
X241823815Y-148301185D01*
X241920506Y-148380537D01*
X242030820Y-148439502D01*
X242150518Y-148475812D01*
X242275000Y-148488072D01*
X242964250Y-148485000D01*
X243123000Y-148326250D01*
X243123000Y-147127000D01*
X243377000Y-147127000D01*
X243377000Y-148326250D01*
X243535750Y-148485000D01*
X244225000Y-148488072D01*
X244349482Y-148475812D01*
X244469180Y-148439502D01*
X244579494Y-148380537D01*
X244676185Y-148301185D01*
X244755537Y-148204494D01*
X244814502Y-148094180D01*
X244850812Y-147974482D01*
X244863072Y-147850000D01*
X247636928Y-147850000D01*
X247649188Y-147974482D01*
X247685498Y-148094180D01*
X247744463Y-148204494D01*
X247823815Y-148301185D01*
X247920506Y-148380537D01*
X248030820Y-148439502D01*
X248150518Y-148475812D01*
X248275000Y-148488072D01*
X248964250Y-148485000D01*
X249123000Y-148326250D01*
X249123000Y-147127000D01*
X249377000Y-147127000D01*
X249377000Y-148326250D01*
X249535750Y-148485000D01*
X250225000Y-148488072D01*
X250349482Y-148475812D01*
X250469180Y-148439502D01*
X250579494Y-148380537D01*
X250676185Y-148301185D01*
X250755537Y-148204494D01*
X250814502Y-148094180D01*
X250850812Y-147974482D01*
X250863072Y-147850000D01*
X253636928Y-147850000D01*
X253649188Y-147974482D01*
X253685498Y-148094180D01*
X253744463Y-148204494D01*
X253823815Y-148301185D01*
X253920506Y-148380537D01*
X254030820Y-148439502D01*
X254150518Y-148475812D01*
X254275000Y-148488072D01*
X254964250Y-148485000D01*
X255123000Y-148326250D01*
X255123000Y-147127000D01*
X255377000Y-147127000D01*
X255377000Y-148326250D01*
X255535750Y-148485000D01*
X256225000Y-148488072D01*
X256349482Y-148475812D01*
X256469180Y-148439502D01*
X256579494Y-148380537D01*
X256676185Y-148301185D01*
X256755537Y-148204494D01*
X256814502Y-148094180D01*
X256850812Y-147974482D01*
X256863072Y-147850000D01*
X256860000Y-147285750D01*
X256701250Y-147127000D01*
X255377000Y-147127000D01*
X255123000Y-147127000D01*
X253798750Y-147127000D01*
X253640000Y-147285750D01*
X253636928Y-147850000D01*
X250863072Y-147850000D01*
X250860000Y-147285750D01*
X250701250Y-147127000D01*
X249377000Y-147127000D01*
X249123000Y-147127000D01*
X247798750Y-147127000D01*
X247640000Y-147285750D01*
X247636928Y-147850000D01*
X244863072Y-147850000D01*
X244860000Y-147285750D01*
X244701250Y-147127000D01*
X243377000Y-147127000D01*
X243123000Y-147127000D01*
X241798750Y-147127000D01*
X241640000Y-147285750D01*
X241636928Y-147850000D01*
X238863072Y-147850000D01*
X238860000Y-147285750D01*
X238701250Y-147127000D01*
X237377000Y-147127000D01*
X237123000Y-147127000D01*
X235798750Y-147127000D01*
X235640000Y-147285750D01*
X235636928Y-147850000D01*
X232863072Y-147850000D01*
X232860000Y-147285750D01*
X232701250Y-147127000D01*
X231377000Y-147127000D01*
X231123000Y-147127000D01*
X229798750Y-147127000D01*
X229640000Y-147285750D01*
X229636928Y-147850000D01*
X228863072Y-147850000D01*
X228860000Y-147285750D01*
X228701250Y-147127000D01*
X227377000Y-147127000D01*
X227123000Y-147127000D01*
X225798750Y-147127000D01*
X225640000Y-147285750D01*
X225636928Y-147850000D01*
X224432285Y-147850000D01*
X224661714Y-147661714D01*
X224712925Y-147599313D01*
X225639773Y-146672466D01*
X225640000Y-146714250D01*
X225798750Y-146873000D01*
X227123000Y-146873000D01*
X227123000Y-146853000D01*
X227377000Y-146853000D01*
X227377000Y-146873000D01*
X228701250Y-146873000D01*
X228860000Y-146714250D01*
X228863072Y-146150000D01*
X228861595Y-146135000D01*
X229638405Y-146135000D01*
X229636928Y-146150000D01*
X229640000Y-146714250D01*
X229798750Y-146873000D01*
X231123000Y-146873000D01*
X231123000Y-146853000D01*
X231377000Y-146853000D01*
X231377000Y-146873000D01*
X232701250Y-146873000D01*
X232860000Y-146714250D01*
X232863072Y-146150000D01*
X232861595Y-146135000D01*
X235638405Y-146135000D01*
X235636928Y-146150000D01*
X235640000Y-146714250D01*
X235798750Y-146873000D01*
X237123000Y-146873000D01*
X237123000Y-146853000D01*
X237377000Y-146853000D01*
X237377000Y-146873000D01*
X238701250Y-146873000D01*
X238860000Y-146714250D01*
X238863072Y-146150000D01*
X238861595Y-146135000D01*
X241638405Y-146135000D01*
X241636928Y-146150000D01*
X241640000Y-146714250D01*
X241798750Y-146873000D01*
X243123000Y-146873000D01*
X243123000Y-146853000D01*
X243377000Y-146853000D01*
X243377000Y-146873000D01*
X244701250Y-146873000D01*
X244860000Y-146714250D01*
X244863072Y-146150000D01*
X244861595Y-146135000D01*
X247638405Y-146135000D01*
X247636928Y-146150000D01*
X247640000Y-146714250D01*
X247798750Y-146873000D01*
X249123000Y-146873000D01*
X249123000Y-146853000D01*
X249377000Y-146853000D01*
X249377000Y-146873000D01*
X250701250Y-146873000D01*
X250860000Y-146714250D01*
X250863072Y-146150000D01*
X250861595Y-146135000D01*
X253638405Y-146135000D01*
X253636928Y-146150000D01*
X253640000Y-146714250D01*
X253798750Y-146873000D01*
X255123000Y-146873000D01*
X255123000Y-146853000D01*
X255377000Y-146853000D01*
X255377000Y-146873000D01*
X256701250Y-146873000D01*
X256860000Y-146714250D01*
X256862230Y-146304495D01*
X259515000Y-146304495D01*
X259515000Y-146695505D01*
X259591282Y-147079003D01*
X259740915Y-147440250D01*
X259958149Y-147765364D01*
X260234636Y-148041851D01*
X260559750Y-148259085D01*
X260920997Y-148408718D01*
X261304495Y-148485000D01*
X261695505Y-148485000D01*
X262079003Y-148408718D01*
X262440250Y-148259085D01*
X262765364Y-148041851D01*
X263041851Y-147765364D01*
X263259085Y-147440250D01*
X263408718Y-147079003D01*
X263485000Y-146695505D01*
X263485000Y-146304495D01*
X263408718Y-145920997D01*
X263259085Y-145559750D01*
X263041851Y-145234636D01*
X262765364Y-144958149D01*
X262440250Y-144740915D01*
X262079003Y-144591282D01*
X261695505Y-144515000D01*
X261304495Y-144515000D01*
X260920997Y-144591282D01*
X260559750Y-144740915D01*
X260234636Y-144958149D01*
X259958149Y-145234636D01*
X259740915Y-145559750D01*
X259591282Y-145920997D01*
X259515000Y-146304495D01*
X256862230Y-146304495D01*
X256863072Y-146150000D01*
X256850812Y-146025518D01*
X256814502Y-145905820D01*
X256755537Y-145795506D01*
X256676185Y-145698815D01*
X256579494Y-145619463D01*
X256486974Y-145570009D01*
X256616031Y-145412752D01*
X256767852Y-145128715D01*
X256861343Y-144820516D01*
X256892911Y-144500000D01*
X256861343Y-144179484D01*
X256767852Y-143871285D01*
X256616031Y-143587248D01*
X256411714Y-143338286D01*
X256248413Y-143204269D01*
X256430134Y-143055134D01*
X256615706Y-142829014D01*
X256753599Y-142571034D01*
X256838513Y-142291111D01*
X256867185Y-142000000D01*
X256838513Y-141708889D01*
X256753599Y-141428966D01*
X256615706Y-141170986D01*
X256430134Y-140944866D01*
X256204014Y-140759294D01*
X256186626Y-140750000D01*
X256204014Y-140740706D01*
X256430134Y-140555134D01*
X256615706Y-140329014D01*
X256753599Y-140071034D01*
X256838513Y-139791111D01*
X256867185Y-139500000D01*
X256838513Y-139208889D01*
X256753599Y-138928966D01*
X256615706Y-138670986D01*
X256430134Y-138444866D01*
X256204014Y-138259294D01*
X255946034Y-138121401D01*
X255666111Y-138036487D01*
X255447950Y-138015000D01*
X255052050Y-138015000D01*
X254833889Y-138036487D01*
X254553966Y-138121401D01*
X254295986Y-138259294D01*
X254069866Y-138444866D01*
X253884294Y-138670986D01*
X253746401Y-138928966D01*
X253661487Y-139208889D01*
X253632815Y-139500000D01*
X253661487Y-139791111D01*
X253746401Y-140071034D01*
X253884294Y-140329014D01*
X254069866Y-140555134D01*
X254295986Y-140740706D01*
X254313374Y-140750000D01*
X254295986Y-140759294D01*
X254069866Y-140944866D01*
X253884294Y-141170986D01*
X253746401Y-141428966D01*
X253661487Y-141708889D01*
X253632815Y-142000000D01*
X253661487Y-142291111D01*
X253746401Y-142571034D01*
X253884294Y-142829014D01*
X253913827Y-142865000D01*
X250586173Y-142865000D01*
X250615706Y-142829014D01*
X250753599Y-142571034D01*
X250838513Y-142291111D01*
X250867185Y-142000000D01*
X250838513Y-141708889D01*
X250753599Y-141428966D01*
X250615706Y-141170986D01*
X250430134Y-140944866D01*
X250204014Y-140759294D01*
X250186626Y-140750000D01*
X250204014Y-140740706D01*
X250430134Y-140555134D01*
X250615706Y-140329014D01*
X250753599Y-140071034D01*
X250838513Y-139791111D01*
X250867185Y-139500000D01*
X250838513Y-139208889D01*
X250753599Y-138928966D01*
X250615706Y-138670986D01*
X250430134Y-138444866D01*
X250204014Y-138259294D01*
X249946034Y-138121401D01*
X249666111Y-138036487D01*
X249447950Y-138015000D01*
X249052050Y-138015000D01*
X248833889Y-138036487D01*
X248553966Y-138121401D01*
X248295986Y-138259294D01*
X248069866Y-138444866D01*
X247884294Y-138670986D01*
X247746401Y-138928966D01*
X247661487Y-139208889D01*
X247632815Y-139500000D01*
X247661487Y-139791111D01*
X247746401Y-140071034D01*
X247884294Y-140329014D01*
X248069866Y-140555134D01*
X248295986Y-140740706D01*
X248313374Y-140750000D01*
X248295986Y-140759294D01*
X248069866Y-140944866D01*
X247884294Y-141170986D01*
X247746401Y-141428966D01*
X247661487Y-141708889D01*
X247632815Y-142000000D01*
X247661487Y-142291111D01*
X247746401Y-142571034D01*
X247884294Y-142829014D01*
X247913827Y-142865000D01*
X244586173Y-142865000D01*
X244615706Y-142829014D01*
X244753599Y-142571034D01*
X244838513Y-142291111D01*
X244867185Y-142000000D01*
X244838513Y-141708889D01*
X244753599Y-141428966D01*
X244615706Y-141170986D01*
X244430134Y-140944866D01*
X244204014Y-140759294D01*
X244186626Y-140750000D01*
X244204014Y-140740706D01*
X244430134Y-140555134D01*
X244615706Y-140329014D01*
X244753599Y-140071034D01*
X244838513Y-139791111D01*
X244867185Y-139500000D01*
X244838513Y-139208889D01*
X244753599Y-138928966D01*
X244615706Y-138670986D01*
X244430134Y-138444866D01*
X244204014Y-138259294D01*
X243946034Y-138121401D01*
X243666111Y-138036487D01*
X243447950Y-138015000D01*
X243052050Y-138015000D01*
X242833889Y-138036487D01*
X242553966Y-138121401D01*
X242295986Y-138259294D01*
X242069866Y-138444866D01*
X241884294Y-138670986D01*
X241746401Y-138928966D01*
X241661487Y-139208889D01*
X241632815Y-139500000D01*
X241661487Y-139791111D01*
X241746401Y-140071034D01*
X241884294Y-140329014D01*
X242069866Y-140555134D01*
X242295986Y-140740706D01*
X242313374Y-140750000D01*
X242295986Y-140759294D01*
X242069866Y-140944866D01*
X241884294Y-141170986D01*
X241746401Y-141428966D01*
X241661487Y-141708889D01*
X241632815Y-142000000D01*
X241661487Y-142291111D01*
X241746401Y-142571034D01*
X241884294Y-142829014D01*
X241913827Y-142865000D01*
X238586173Y-142865000D01*
X238615706Y-142829014D01*
X238753599Y-142571034D01*
X238838513Y-142291111D01*
X238867185Y-142000000D01*
X238838513Y-141708889D01*
X238753599Y-141428966D01*
X238615706Y-141170986D01*
X238430134Y-140944866D01*
X238204014Y-140759294D01*
X238186626Y-140750000D01*
X238204014Y-140740706D01*
X238430134Y-140555134D01*
X238615706Y-140329014D01*
X238753599Y-140071034D01*
X238838513Y-139791111D01*
X238867185Y-139500000D01*
X238838513Y-139208889D01*
X238753599Y-138928966D01*
X238615706Y-138670986D01*
X238430134Y-138444866D01*
X238204014Y-138259294D01*
X237946034Y-138121401D01*
X237666111Y-138036487D01*
X237447950Y-138015000D01*
X237052050Y-138015000D01*
X236833889Y-138036487D01*
X236553966Y-138121401D01*
X236295986Y-138259294D01*
X236069866Y-138444866D01*
X235884294Y-138670986D01*
X235746401Y-138928966D01*
X235661487Y-139208889D01*
X235632815Y-139500000D01*
X235661487Y-139791111D01*
X235746401Y-140071034D01*
X235884294Y-140329014D01*
X236069866Y-140555134D01*
X236295986Y-140740706D01*
X236313374Y-140750000D01*
X236295986Y-140759294D01*
X236069866Y-140944866D01*
X235884294Y-141170986D01*
X235746401Y-141428966D01*
X235661487Y-141708889D01*
X235632815Y-142000000D01*
X235661487Y-142291111D01*
X235746401Y-142571034D01*
X235884294Y-142829014D01*
X235913827Y-142865000D01*
X232586173Y-142865000D01*
X232615706Y-142829014D01*
X232753599Y-142571034D01*
X232838513Y-142291111D01*
X232867185Y-142000000D01*
X232838513Y-141708889D01*
X232753599Y-141428966D01*
X232615706Y-141170986D01*
X232430134Y-140944866D01*
X232204014Y-140759294D01*
X232186626Y-140750000D01*
X232204014Y-140740706D01*
X232430134Y-140555134D01*
X232615706Y-140329014D01*
X232753599Y-140071034D01*
X232838513Y-139791111D01*
X232867185Y-139500000D01*
X232838513Y-139208889D01*
X232753599Y-138928966D01*
X232615706Y-138670986D01*
X232430134Y-138444866D01*
X232204014Y-138259294D01*
X231946034Y-138121401D01*
X231666111Y-138036487D01*
X231447950Y-138015000D01*
X231052050Y-138015000D01*
X230833889Y-138036487D01*
X230553966Y-138121401D01*
X230295986Y-138259294D01*
X230069866Y-138444866D01*
X229884294Y-138670986D01*
X229834043Y-138765000D01*
X228665957Y-138765000D01*
X228615706Y-138670986D01*
X228430134Y-138444866D01*
X228204014Y-138259294D01*
X227946034Y-138121401D01*
X227666111Y-138036487D01*
X227447950Y-138015000D01*
X227052050Y-138015000D01*
X226833889Y-138036487D01*
X226553966Y-138121401D01*
X226295986Y-138259294D01*
X226069866Y-138444866D01*
X225884294Y-138670986D01*
X225746401Y-138928966D01*
X225661487Y-139208889D01*
X225632815Y-139500000D01*
X225661487Y-139791111D01*
X225746401Y-140071034D01*
X225884294Y-140329014D01*
X226069866Y-140555134D01*
X226295986Y-140740706D01*
X226313374Y-140750000D01*
X226295986Y-140759294D01*
X226069866Y-140944866D01*
X225884294Y-141170986D01*
X225746401Y-141428966D01*
X225661487Y-141708889D01*
X225632815Y-142000000D01*
X225661487Y-142291111D01*
X225746401Y-142571034D01*
X225884294Y-142829014D01*
X225913827Y-142865000D01*
X225580319Y-142865000D01*
X225499999Y-142857089D01*
X225419680Y-142865000D01*
X225419678Y-142865000D01*
X225179484Y-142888657D01*
X224871285Y-142982148D01*
X224587248Y-143133969D01*
X224338286Y-143338286D01*
X224287080Y-143400682D01*
X222822762Y-144865000D01*
X220072950Y-144865000D01*
X220000000Y-144857815D01*
X219927050Y-144865000D01*
X219919678Y-144865000D01*
X219679484Y-144888657D01*
X219371285Y-144982148D01*
X219087248Y-145133969D01*
X218939279Y-145255403D01*
X218880537Y-145145506D01*
X218801185Y-145048815D01*
X218704494Y-144969463D01*
X218594180Y-144910498D01*
X218474482Y-144874188D01*
X218350000Y-144861928D01*
X217785750Y-144865000D01*
X217627000Y-145023750D01*
X217373000Y-145023750D01*
X217214250Y-144865000D01*
X216650000Y-144861928D01*
X216525518Y-144874188D01*
X216405820Y-144910498D01*
X216295506Y-144969463D01*
X216198815Y-145048815D01*
X216119463Y-145145506D01*
X216060498Y-145255820D01*
X216024188Y-145375518D01*
X216011928Y-145500000D01*
X205219162Y-145500000D01*
X205041851Y-145234636D01*
X204765364Y-144958149D01*
X204440250Y-144740915D01*
X204079003Y-144591282D01*
X203695505Y-144515000D01*
X203304495Y-144515000D01*
X202920997Y-144591282D01*
X202559750Y-144740915D01*
X202234636Y-144958149D01*
X201958149Y-145234636D01*
X201740915Y-145559750D01*
X201591282Y-145920997D01*
X201515000Y-146304495D01*
X200685000Y-146304495D01*
X200685000Y-142323009D01*
X200756861Y-142430557D01*
X201069443Y-142743139D01*
X201437000Y-142988732D01*
X201845408Y-143157900D01*
X202278971Y-143244142D01*
X202721029Y-143244142D01*
X203154592Y-143157900D01*
X203563000Y-142988732D01*
X203930557Y-142743139D01*
X204243139Y-142430557D01*
X204488732Y-142063000D01*
X204657900Y-141654592D01*
X204744142Y-141221029D01*
X204744142Y-140778971D01*
X204732065Y-140718257D01*
X205655866Y-141406001D01*
X206910206Y-142130195D01*
X208240139Y-142703872D01*
X209627679Y-143119274D01*
X211054063Y-143370784D01*
X212500000Y-143455000D01*
X213945937Y-143370784D01*
X215372321Y-143119274D01*
X216759861Y-142703872D01*
X218089794Y-142130195D01*
X219344134Y-141406001D01*
X220267935Y-140718257D01*
X220255858Y-140778971D01*
X220255858Y-141221029D01*
X220342100Y-141654592D01*
X220511268Y-142063000D01*
X220756861Y-142430557D01*
X221069443Y-142743139D01*
X221437000Y-142988732D01*
X221845408Y-143157900D01*
X222278971Y-143244142D01*
X222721029Y-143244142D01*
X223154592Y-143157900D01*
X223563000Y-142988732D01*
X223930557Y-142743139D01*
X224243139Y-142430557D01*
X224488732Y-142063000D01*
X224657900Y-141654592D01*
X224744142Y-141221029D01*
X224744142Y-140778971D01*
X224657900Y-140345408D01*
X224488732Y-139937000D01*
X224243139Y-139569443D01*
X223930557Y-139256861D01*
X223563000Y-139011268D01*
X223154592Y-138842100D01*
X222721029Y-138755858D01*
X222278971Y-138755858D01*
X222212269Y-138769126D01*
X222490444Y-138437610D01*
X223286346Y-137227500D01*
X223936382Y-135933173D01*
X224431759Y-134572134D01*
X224765781Y-133162788D01*
X224933928Y-131724194D01*
X224933928Y-130275806D01*
X224765781Y-128837212D01*
X224431759Y-127427866D01*
X223936382Y-126066827D01*
X223286346Y-124772500D01*
X222490444Y-123562390D01*
X222212269Y-123230874D01*
X222278971Y-123244142D01*
X222721029Y-123244142D01*
X223154592Y-123157900D01*
X223563000Y-122988732D01*
X223930557Y-122743139D01*
X224243139Y-122430557D01*
X224488732Y-122063000D01*
X224657900Y-121654592D01*
X224744142Y-121221029D01*
X224744142Y-120778971D01*
X224657900Y-120345408D01*
X224488732Y-119937000D01*
X224243139Y-119569443D01*
X223930557Y-119256861D01*
X223563000Y-119011268D01*
X223154592Y-118842100D01*
X222721029Y-118755858D01*
X222278971Y-118755858D01*
X221845408Y-118842100D01*
X221437000Y-119011268D01*
X221069443Y-119256861D01*
X220756861Y-119569443D01*
X220511268Y-119937000D01*
X220342100Y-120345408D01*
X220255858Y-120778971D01*
X220255858Y-121221029D01*
X220267935Y-121281743D01*
X219344134Y-120593999D01*
X218089794Y-119869805D01*
X216759861Y-119296128D01*
X215372321Y-118880726D01*
X213945937Y-118629216D01*
X212500000Y-118545000D01*
X211054063Y-118629216D01*
X209627679Y-118880726D01*
X208240139Y-119296128D01*
X206910206Y-119869805D01*
X205655866Y-120593999D01*
X204732065Y-121281743D01*
X204744142Y-121221029D01*
X204744142Y-120778971D01*
X204657900Y-120345408D01*
X204488732Y-119937000D01*
X204243139Y-119569443D01*
X203930557Y-119256861D01*
X203563000Y-119011268D01*
X203154592Y-118842100D01*
X202721029Y-118755858D01*
X202278971Y-118755858D01*
X201845408Y-118842100D01*
X201437000Y-119011268D01*
X201069443Y-119256861D01*
X200756861Y-119569443D01*
X200685000Y-119676991D01*
X200685000Y-117076070D01*
X200697637Y-117094983D01*
X200995017Y-117392363D01*
X201344698Y-117626012D01*
X201733244Y-117786953D01*
X202145721Y-117869000D01*
X202566279Y-117869000D01*
X202978756Y-117786953D01*
X203367302Y-117626012D01*
X203716983Y-117392363D01*
X204014363Y-117094983D01*
X204248012Y-116745302D01*
X204306648Y-116603740D01*
X204935000Y-116603740D01*
X204935000Y-116896260D01*
X204992068Y-117183158D01*
X205104010Y-117453411D01*
X205266525Y-117696632D01*
X205473368Y-117903475D01*
X205716589Y-118065990D01*
X205986842Y-118177932D01*
X206273740Y-118235000D01*
X206566260Y-118235000D01*
X206853158Y-118177932D01*
X207123411Y-118065990D01*
X207366632Y-117903475D01*
X207573475Y-117696632D01*
X207690000Y-117522240D01*
X207806525Y-117696632D01*
X208013368Y-117903475D01*
X208256589Y-118065990D01*
X208526842Y-118177932D01*
X208813740Y-118235000D01*
X209106260Y-118235000D01*
X209393158Y-118177932D01*
X209663411Y-118065990D01*
X209906632Y-117903475D01*
X210031710Y-117778397D01*
X210651208Y-117778397D01*
X210728843Y-118027472D01*
X210992883Y-118153371D01*
X211276411Y-118225339D01*
X211568531Y-118240611D01*
X211858019Y-118198599D01*
X212133747Y-118100919D01*
X212271157Y-118027472D01*
X212348792Y-117778397D01*
X213191208Y-117778397D01*
X213268843Y-118027472D01*
X213532883Y-118153371D01*
X213816411Y-118225339D01*
X214108531Y-118240611D01*
X214398019Y-118198599D01*
X214673747Y-118100919D01*
X214811157Y-118027472D01*
X214888792Y-117778397D01*
X214040000Y-116929605D01*
X213191208Y-117778397D01*
X212348792Y-117778397D01*
X211500000Y-116929605D01*
X210651208Y-117778397D01*
X210031710Y-117778397D01*
X210113475Y-117696632D01*
X210229311Y-117523271D01*
X210471603Y-117598792D01*
X211320395Y-116750000D01*
X211679605Y-116750000D01*
X212528397Y-117598792D01*
X212770000Y-117523486D01*
X213011603Y-117598792D01*
X213860395Y-116750000D01*
X213011603Y-115901208D01*
X212770000Y-115976514D01*
X212528397Y-115901208D01*
X211679605Y-116750000D01*
X211320395Y-116750000D01*
X210471603Y-115901208D01*
X210229311Y-115976729D01*
X210113475Y-115803368D01*
X210031710Y-115721603D01*
X210651208Y-115721603D01*
X211500000Y-116570395D01*
X212348792Y-115721603D01*
X212271157Y-115472528D01*
X212007117Y-115346629D01*
X211723589Y-115274661D01*
X211431469Y-115259389D01*
X211141981Y-115301401D01*
X210866253Y-115399081D01*
X210728843Y-115472528D01*
X210651208Y-115721603D01*
X210031710Y-115721603D01*
X209906632Y-115596525D01*
X209663411Y-115434010D01*
X209393158Y-115322068D01*
X209106260Y-115265000D01*
X208813740Y-115265000D01*
X208526842Y-115322068D01*
X208256589Y-115434010D01*
X208013368Y-115596525D01*
X207806525Y-115803368D01*
X207690000Y-115977760D01*
X207573475Y-115803368D01*
X207366632Y-115596525D01*
X207123411Y-115434010D01*
X206853158Y-115322068D01*
X206566260Y-115265000D01*
X206273740Y-115265000D01*
X205986842Y-115322068D01*
X205716589Y-115434010D01*
X205473368Y-115596525D01*
X205266525Y-115803368D01*
X205104010Y-116046589D01*
X204992068Y-116316842D01*
X204935000Y-116603740D01*
X204306648Y-116603740D01*
X204408953Y-116356756D01*
X204491000Y-115944279D01*
X204491000Y-115523721D01*
X204408953Y-115111244D01*
X204248012Y-114722698D01*
X204014363Y-114373017D01*
X203716983Y-114075637D01*
X203367302Y-113841988D01*
X202978756Y-113681047D01*
X202566279Y-113599000D01*
X202145721Y-113599000D01*
X201733244Y-113681047D01*
X201344698Y-113841988D01*
X200995017Y-114075637D01*
X200697637Y-114373017D01*
X200685000Y-114391930D01*
X200685000Y-97033505D01*
X200732312Y-96550984D01*
X200862714Y-96119070D01*
X201074524Y-95720715D01*
X201359675Y-95371086D01*
X201707303Y-95083503D01*
X202104177Y-94868914D01*
X202535161Y-94735502D01*
X203015654Y-94685000D01*
X206510778Y-94685000D01*
X206509265Y-94685459D01*
G37*
G04 #@! TD.AperFunction*
D23*
X241805001Y-113405552D02*
X240892485Y-114318068D01*
X240727271Y-114350932D01*
X240557111Y-114421414D01*
X240403972Y-114523738D01*
X240273738Y-114653972D01*
X240171414Y-114807111D01*
X240149489Y-114860043D01*
X237702487Y-112413040D01*
X237772729Y-112399068D01*
X237942889Y-112328586D01*
X238096028Y-112226262D01*
X238226262Y-112096028D01*
X238328586Y-111942889D01*
X238399068Y-111772729D01*
X238435000Y-111592089D01*
X238435000Y-111407911D01*
X238399068Y-111227271D01*
X238328586Y-111057111D01*
X238235000Y-110917049D01*
X238235000Y-102964446D01*
X240994103Y-100205344D01*
X241243740Y-100255000D01*
X241536260Y-100255000D01*
X241805002Y-100201544D01*
X241805001Y-113405552D01*
G04 #@! TA.AperFunction,Conductor*
D24*
G36*
X241805001Y-113405552D02*
G01*
X240892485Y-114318068D01*
X240727271Y-114350932D01*
X240557111Y-114421414D01*
X240403972Y-114523738D01*
X240273738Y-114653972D01*
X240171414Y-114807111D01*
X240149489Y-114860043D01*
X237702487Y-112413040D01*
X237772729Y-112399068D01*
X237942889Y-112328586D01*
X238096028Y-112226262D01*
X238226262Y-112096028D01*
X238328586Y-111942889D01*
X238399068Y-111772729D01*
X238435000Y-111592089D01*
X238435000Y-111407911D01*
X238399068Y-111227271D01*
X238328586Y-111057111D01*
X238235000Y-110917049D01*
X238235000Y-102964446D01*
X240994103Y-100205344D01*
X241243740Y-100255000D01*
X241536260Y-100255000D01*
X241805002Y-100201544D01*
X241805001Y-113405552D01*
G37*
G04 #@! TD.AperFunction*
D23*
X238977000Y-98643000D02*
X238997000Y-98643000D01*
X238997000Y-98897000D01*
X238977000Y-98897000D01*
X238977000Y-100090155D01*
X239011953Y-100108601D01*
X237005808Y-102114746D01*
X236977763Y-102137762D01*
X236885914Y-102249680D01*
X236817664Y-102377367D01*
X236775635Y-102515915D01*
X236761444Y-102660000D01*
X236765001Y-102696115D01*
X236765000Y-110917049D01*
X236671414Y-111057111D01*
X236600932Y-111227271D01*
X236586960Y-111297514D01*
X235894999Y-110605553D01*
X235894999Y-100201544D01*
X236163740Y-100255000D01*
X236456260Y-100255000D01*
X236743158Y-100197932D01*
X237013411Y-100085990D01*
X237256632Y-99923475D01*
X237463475Y-99716632D01*
X237585195Y-99534466D01*
X237654822Y-99651355D01*
X237849731Y-99867588D01*
X238083080Y-100041641D01*
X238345901Y-100166825D01*
X238493110Y-100211476D01*
X238723000Y-100090155D01*
X238723000Y-98897000D01*
X238703000Y-98897000D01*
X238703000Y-98643000D01*
X238723000Y-98643000D01*
X238723000Y-98623000D01*
X238977000Y-98623000D01*
X238977000Y-98643000D01*
G04 #@! TA.AperFunction,Conductor*
D24*
G36*
X238977000Y-98643000D02*
G01*
X238997000Y-98643000D01*
X238997000Y-98897000D01*
X238977000Y-98897000D01*
X238977000Y-100090155D01*
X239011953Y-100108601D01*
X237005808Y-102114746D01*
X236977763Y-102137762D01*
X236885914Y-102249680D01*
X236817664Y-102377367D01*
X236775635Y-102515915D01*
X236761444Y-102660000D01*
X236765001Y-102696115D01*
X236765000Y-110917049D01*
X236671414Y-111057111D01*
X236600932Y-111227271D01*
X236586960Y-111297514D01*
X235894999Y-110605553D01*
X235894999Y-100201544D01*
X236163740Y-100255000D01*
X236456260Y-100255000D01*
X236743158Y-100197932D01*
X237013411Y-100085990D01*
X237256632Y-99923475D01*
X237463475Y-99716632D01*
X237585195Y-99534466D01*
X237654822Y-99651355D01*
X237849731Y-99867588D01*
X238083080Y-100041641D01*
X238345901Y-100166825D01*
X238493110Y-100211476D01*
X238723000Y-100090155D01*
X238723000Y-98897000D01*
X238703000Y-98897000D01*
X238703000Y-98643000D01*
X238723000Y-98643000D01*
X238723000Y-98623000D01*
X238977000Y-98623000D01*
X238977000Y-98643000D01*
G37*
G04 #@! TD.AperFunction*
M02*
