G04 #@! TF.GenerationSoftware,KiCad,Pcbnew,(5.1.8)-1*
G04 #@! TF.CreationDate,2020-12-29T14:13:16+09:00*
G04 #@! TF.ProjectId,RasPi4-UART-RS485,52617350-6934-42d5-9541-52542d525334,rev?*
G04 #@! TF.SameCoordinates,Original*
G04 #@! TF.FileFunction,Legend,Bot*
G04 #@! TF.FilePolarity,Positive*
%FSLAX46Y46*%
G04 Gerber Fmt 4.6, Leading zero omitted, Abs format (unit mm)*
G04 Created by KiCad (PCBNEW (5.1.8)-1) date 2020-12-29 14:13:16*
%MOMM*%
%LPD*%
G01*
G04 APERTURE LIST*
%ADD10C,0.150000*%
%ADD11C,0.120000*%
G04 APERTURE END LIST*
D10*
X230130952Y-142452380D02*
X230130952Y-141452380D01*
X229892857Y-141452380D01*
X229750000Y-141500000D01*
X229654761Y-141595238D01*
X229607142Y-141690476D01*
X229559523Y-141880952D01*
X229559523Y-142023809D01*
X229607142Y-142214285D01*
X229654761Y-142309523D01*
X229750000Y-142404761D01*
X229892857Y-142452380D01*
X230130952Y-142452380D01*
X229130952Y-142071428D02*
X228369047Y-142071428D01*
X230130952Y-139952380D02*
X230130952Y-138952380D01*
X229892857Y-138952380D01*
X229750000Y-139000000D01*
X229654761Y-139095238D01*
X229607142Y-139190476D01*
X229559523Y-139380952D01*
X229559523Y-139523809D01*
X229607142Y-139714285D01*
X229654761Y-139809523D01*
X229750000Y-139904761D01*
X229892857Y-139952380D01*
X230130952Y-139952380D01*
X229130952Y-139571428D02*
X228369047Y-139571428D01*
X235130952Y-139952380D02*
X235130952Y-138952380D01*
X234892857Y-138952380D01*
X234750000Y-139000000D01*
X234654761Y-139095238D01*
X234607142Y-139190476D01*
X234559523Y-139380952D01*
X234559523Y-139523809D01*
X234607142Y-139714285D01*
X234654761Y-139809523D01*
X234750000Y-139904761D01*
X234892857Y-139952380D01*
X235130952Y-139952380D01*
X234130952Y-139571428D02*
X233369047Y-139571428D01*
X240880952Y-139952380D02*
X240880952Y-138952380D01*
X240642857Y-138952380D01*
X240500000Y-139000000D01*
X240404761Y-139095238D01*
X240357142Y-139190476D01*
X240309523Y-139380952D01*
X240309523Y-139523809D01*
X240357142Y-139714285D01*
X240404761Y-139809523D01*
X240500000Y-139904761D01*
X240642857Y-139952380D01*
X240880952Y-139952380D01*
X239880952Y-139571428D02*
X239119047Y-139571428D01*
X246880952Y-139952380D02*
X246880952Y-138952380D01*
X246642857Y-138952380D01*
X246500000Y-139000000D01*
X246404761Y-139095238D01*
X246357142Y-139190476D01*
X246309523Y-139380952D01*
X246309523Y-139523809D01*
X246357142Y-139714285D01*
X246404761Y-139809523D01*
X246500000Y-139904761D01*
X246642857Y-139952380D01*
X246880952Y-139952380D01*
X245880952Y-139571428D02*
X245119047Y-139571428D01*
X252880952Y-139952380D02*
X252880952Y-138952380D01*
X252642857Y-138952380D01*
X252500000Y-139000000D01*
X252404761Y-139095238D01*
X252357142Y-139190476D01*
X252309523Y-139380952D01*
X252309523Y-139523809D01*
X252357142Y-139714285D01*
X252404761Y-139809523D01*
X252500000Y-139904761D01*
X252642857Y-139952380D01*
X252880952Y-139952380D01*
X251880952Y-139571428D02*
X251119047Y-139571428D01*
X252880952Y-142452380D02*
X252880952Y-141452380D01*
X252642857Y-141452380D01*
X252500000Y-141500000D01*
X252404761Y-141595238D01*
X252357142Y-141690476D01*
X252309523Y-141880952D01*
X252309523Y-142023809D01*
X252357142Y-142214285D01*
X252404761Y-142309523D01*
X252500000Y-142404761D01*
X252642857Y-142452380D01*
X252880952Y-142452380D01*
X251880952Y-142071428D02*
X251119047Y-142071428D01*
X251500000Y-142452380D02*
X251500000Y-141690476D01*
X246880952Y-142452380D02*
X246880952Y-141452380D01*
X246642857Y-141452380D01*
X246500000Y-141500000D01*
X246404761Y-141595238D01*
X246357142Y-141690476D01*
X246309523Y-141880952D01*
X246309523Y-142023809D01*
X246357142Y-142214285D01*
X246404761Y-142309523D01*
X246500000Y-142404761D01*
X246642857Y-142452380D01*
X246880952Y-142452380D01*
X245880952Y-142071428D02*
X245119047Y-142071428D01*
X245500000Y-142452380D02*
X245500000Y-141690476D01*
X240880952Y-142452380D02*
X240880952Y-141452380D01*
X240642857Y-141452380D01*
X240500000Y-141500000D01*
X240404761Y-141595238D01*
X240357142Y-141690476D01*
X240309523Y-141880952D01*
X240309523Y-142023809D01*
X240357142Y-142214285D01*
X240404761Y-142309523D01*
X240500000Y-142404761D01*
X240642857Y-142452380D01*
X240880952Y-142452380D01*
X239880952Y-142071428D02*
X239119047Y-142071428D01*
X239500000Y-142452380D02*
X239500000Y-141690476D01*
X235130952Y-142452380D02*
X235130952Y-141452380D01*
X234892857Y-141452380D01*
X234750000Y-141500000D01*
X234654761Y-141595238D01*
X234607142Y-141690476D01*
X234559523Y-141880952D01*
X234559523Y-142023809D01*
X234607142Y-142214285D01*
X234654761Y-142309523D01*
X234750000Y-142404761D01*
X234892857Y-142452380D01*
X235130952Y-142452380D01*
X234130952Y-142071428D02*
X233369047Y-142071428D01*
X233750000Y-142452380D02*
X233750000Y-141690476D01*
X218011904Y-148000000D02*
X218107142Y-147952380D01*
X218250000Y-147952380D01*
X218392857Y-148000000D01*
X218488095Y-148095238D01*
X218535714Y-148190476D01*
X218583333Y-148380952D01*
X218583333Y-148523809D01*
X218535714Y-148714285D01*
X218488095Y-148809523D01*
X218392857Y-148904761D01*
X218250000Y-148952380D01*
X218154761Y-148952380D01*
X218011904Y-148904761D01*
X217964285Y-148857142D01*
X217964285Y-148523809D01*
X218154761Y-148523809D01*
X217535714Y-148952380D02*
X217535714Y-147952380D01*
X216964285Y-148952380D01*
X216964285Y-147952380D01*
X216488095Y-148952380D02*
X216488095Y-147952380D01*
X216250000Y-147952380D01*
X216107142Y-148000000D01*
X216011904Y-148095238D01*
X215964285Y-148190476D01*
X215916666Y-148380952D01*
X215916666Y-148523809D01*
X215964285Y-148714285D01*
X216011904Y-148809523D01*
X216107142Y-148904761D01*
X216250000Y-148952380D01*
X216488095Y-148952380D01*
X221619047Y-148428571D02*
X221476190Y-148476190D01*
X221428571Y-148523809D01*
X221380952Y-148619047D01*
X221380952Y-148761904D01*
X221428571Y-148857142D01*
X221476190Y-148904761D01*
X221571428Y-148952380D01*
X221952380Y-148952380D01*
X221952380Y-147952380D01*
X221619047Y-147952380D01*
X221523809Y-148000000D01*
X221476190Y-148047619D01*
X221428571Y-148142857D01*
X221428571Y-148238095D01*
X221476190Y-148333333D01*
X221523809Y-148380952D01*
X221619047Y-148428571D01*
X221952380Y-148428571D01*
X221000000Y-148666666D02*
X220523809Y-148666666D01*
X221095238Y-148952380D02*
X220761904Y-147952380D01*
X220428571Y-148952380D01*
X220238095Y-147952380D02*
X219666666Y-147952380D01*
X219952380Y-148952380D02*
X219952380Y-147952380D01*
X219476190Y-147952380D02*
X218904761Y-147952380D01*
X219190476Y-148952380D02*
X219190476Y-147952380D01*
X225369047Y-144428571D02*
X225226190Y-144476190D01*
X225178571Y-144523809D01*
X225130952Y-144619047D01*
X225130952Y-144761904D01*
X225178571Y-144857142D01*
X225226190Y-144904761D01*
X225321428Y-144952380D01*
X225702380Y-144952380D01*
X225702380Y-143952380D01*
X225369047Y-143952380D01*
X225273809Y-144000000D01*
X225226190Y-144047619D01*
X225178571Y-144142857D01*
X225178571Y-144238095D01*
X225226190Y-144333333D01*
X225273809Y-144380952D01*
X225369047Y-144428571D01*
X225702380Y-144428571D01*
X224750000Y-144666666D02*
X224273809Y-144666666D01*
X224845238Y-144952380D02*
X224511904Y-143952380D01*
X224178571Y-144952380D01*
X223988095Y-143952380D02*
X223416666Y-143952380D01*
X223702380Y-144952380D02*
X223702380Y-143952380D01*
X223226190Y-143952380D02*
X222654761Y-143952380D01*
X222940476Y-144952380D02*
X222940476Y-143952380D01*
X235369047Y-144428571D02*
X235226190Y-144476190D01*
X235178571Y-144523809D01*
X235130952Y-144619047D01*
X235130952Y-144761904D01*
X235178571Y-144857142D01*
X235226190Y-144904761D01*
X235321428Y-144952380D01*
X235702380Y-144952380D01*
X235702380Y-143952380D01*
X235369047Y-143952380D01*
X235273809Y-144000000D01*
X235226190Y-144047619D01*
X235178571Y-144142857D01*
X235178571Y-144238095D01*
X235226190Y-144333333D01*
X235273809Y-144380952D01*
X235369047Y-144428571D01*
X235702380Y-144428571D01*
X234750000Y-144666666D02*
X234273809Y-144666666D01*
X234845238Y-144952380D02*
X234511904Y-143952380D01*
X234178571Y-144952380D01*
X233988095Y-143952380D02*
X233416666Y-143952380D01*
X233702380Y-144952380D02*
X233702380Y-143952380D01*
X233226190Y-143952380D02*
X232654761Y-143952380D01*
X232940476Y-144952380D02*
X232940476Y-143952380D01*
X241369047Y-144428571D02*
X241226190Y-144476190D01*
X241178571Y-144523809D01*
X241130952Y-144619047D01*
X241130952Y-144761904D01*
X241178571Y-144857142D01*
X241226190Y-144904761D01*
X241321428Y-144952380D01*
X241702380Y-144952380D01*
X241702380Y-143952380D01*
X241369047Y-143952380D01*
X241273809Y-144000000D01*
X241226190Y-144047619D01*
X241178571Y-144142857D01*
X241178571Y-144238095D01*
X241226190Y-144333333D01*
X241273809Y-144380952D01*
X241369047Y-144428571D01*
X241702380Y-144428571D01*
X240750000Y-144666666D02*
X240273809Y-144666666D01*
X240845238Y-144952380D02*
X240511904Y-143952380D01*
X240178571Y-144952380D01*
X239988095Y-143952380D02*
X239416666Y-143952380D01*
X239702380Y-144952380D02*
X239702380Y-143952380D01*
X239226190Y-143952380D02*
X238654761Y-143952380D01*
X238940476Y-144952380D02*
X238940476Y-143952380D01*
X247369047Y-144428571D02*
X247226190Y-144476190D01*
X247178571Y-144523809D01*
X247130952Y-144619047D01*
X247130952Y-144761904D01*
X247178571Y-144857142D01*
X247226190Y-144904761D01*
X247321428Y-144952380D01*
X247702380Y-144952380D01*
X247702380Y-143952380D01*
X247369047Y-143952380D01*
X247273809Y-144000000D01*
X247226190Y-144047619D01*
X247178571Y-144142857D01*
X247178571Y-144238095D01*
X247226190Y-144333333D01*
X247273809Y-144380952D01*
X247369047Y-144428571D01*
X247702380Y-144428571D01*
X246750000Y-144666666D02*
X246273809Y-144666666D01*
X246845238Y-144952380D02*
X246511904Y-143952380D01*
X246178571Y-144952380D01*
X245988095Y-143952380D02*
X245416666Y-143952380D01*
X245702380Y-144952380D02*
X245702380Y-143952380D01*
X245226190Y-143952380D02*
X244654761Y-143952380D01*
X244940476Y-144952380D02*
X244940476Y-143952380D01*
X253369047Y-144428571D02*
X253226190Y-144476190D01*
X253178571Y-144523809D01*
X253130952Y-144619047D01*
X253130952Y-144761904D01*
X253178571Y-144857142D01*
X253226190Y-144904761D01*
X253321428Y-144952380D01*
X253702380Y-144952380D01*
X253702380Y-143952380D01*
X253369047Y-143952380D01*
X253273809Y-144000000D01*
X253226190Y-144047619D01*
X253178571Y-144142857D01*
X253178571Y-144238095D01*
X253226190Y-144333333D01*
X253273809Y-144380952D01*
X253369047Y-144428571D01*
X253702380Y-144428571D01*
X252750000Y-144666666D02*
X252273809Y-144666666D01*
X252845238Y-144952380D02*
X252511904Y-143952380D01*
X252178571Y-144952380D01*
X251988095Y-143952380D02*
X251416666Y-143952380D01*
X251702380Y-144952380D02*
X251702380Y-143952380D01*
X251226190Y-143952380D02*
X250654761Y-143952380D01*
X250940476Y-144952380D02*
X250940476Y-143952380D01*
X225261904Y-146500000D02*
X225357142Y-146452380D01*
X225500000Y-146452380D01*
X225642857Y-146500000D01*
X225738095Y-146595238D01*
X225785714Y-146690476D01*
X225833333Y-146880952D01*
X225833333Y-147023809D01*
X225785714Y-147214285D01*
X225738095Y-147309523D01*
X225642857Y-147404761D01*
X225500000Y-147452380D01*
X225404761Y-147452380D01*
X225261904Y-147404761D01*
X225214285Y-147357142D01*
X225214285Y-147023809D01*
X225404761Y-147023809D01*
X224785714Y-147452380D02*
X224785714Y-146452380D01*
X224214285Y-147452380D01*
X224214285Y-146452380D01*
X223738095Y-147452380D02*
X223738095Y-146452380D01*
X223500000Y-146452380D01*
X223357142Y-146500000D01*
X223261904Y-146595238D01*
X223214285Y-146690476D01*
X223166666Y-146880952D01*
X223166666Y-147023809D01*
X223214285Y-147214285D01*
X223261904Y-147309523D01*
X223357142Y-147404761D01*
X223500000Y-147452380D01*
X223738095Y-147452380D01*
X235011904Y-146500000D02*
X235107142Y-146452380D01*
X235250000Y-146452380D01*
X235392857Y-146500000D01*
X235488095Y-146595238D01*
X235535714Y-146690476D01*
X235583333Y-146880952D01*
X235583333Y-147023809D01*
X235535714Y-147214285D01*
X235488095Y-147309523D01*
X235392857Y-147404761D01*
X235250000Y-147452380D01*
X235154761Y-147452380D01*
X235011904Y-147404761D01*
X234964285Y-147357142D01*
X234964285Y-147023809D01*
X235154761Y-147023809D01*
X234535714Y-147452380D02*
X234535714Y-146452380D01*
X233964285Y-147452380D01*
X233964285Y-146452380D01*
X233488095Y-147452380D02*
X233488095Y-146452380D01*
X233250000Y-146452380D01*
X233107142Y-146500000D01*
X233011904Y-146595238D01*
X232964285Y-146690476D01*
X232916666Y-146880952D01*
X232916666Y-147023809D01*
X232964285Y-147214285D01*
X233011904Y-147309523D01*
X233107142Y-147404761D01*
X233250000Y-147452380D01*
X233488095Y-147452380D01*
X241011904Y-146500000D02*
X241107142Y-146452380D01*
X241250000Y-146452380D01*
X241392857Y-146500000D01*
X241488095Y-146595238D01*
X241535714Y-146690476D01*
X241583333Y-146880952D01*
X241583333Y-147023809D01*
X241535714Y-147214285D01*
X241488095Y-147309523D01*
X241392857Y-147404761D01*
X241250000Y-147452380D01*
X241154761Y-147452380D01*
X241011904Y-147404761D01*
X240964285Y-147357142D01*
X240964285Y-147023809D01*
X241154761Y-147023809D01*
X240535714Y-147452380D02*
X240535714Y-146452380D01*
X239964285Y-147452380D01*
X239964285Y-146452380D01*
X239488095Y-147452380D02*
X239488095Y-146452380D01*
X239250000Y-146452380D01*
X239107142Y-146500000D01*
X239011904Y-146595238D01*
X238964285Y-146690476D01*
X238916666Y-146880952D01*
X238916666Y-147023809D01*
X238964285Y-147214285D01*
X239011904Y-147309523D01*
X239107142Y-147404761D01*
X239250000Y-147452380D01*
X239488095Y-147452380D01*
X247011904Y-146500000D02*
X247107142Y-146452380D01*
X247250000Y-146452380D01*
X247392857Y-146500000D01*
X247488095Y-146595238D01*
X247535714Y-146690476D01*
X247583333Y-146880952D01*
X247583333Y-147023809D01*
X247535714Y-147214285D01*
X247488095Y-147309523D01*
X247392857Y-147404761D01*
X247250000Y-147452380D01*
X247154761Y-147452380D01*
X247011904Y-147404761D01*
X246964285Y-147357142D01*
X246964285Y-147023809D01*
X247154761Y-147023809D01*
X246535714Y-147452380D02*
X246535714Y-146452380D01*
X245964285Y-147452380D01*
X245964285Y-146452380D01*
X245488095Y-147452380D02*
X245488095Y-146452380D01*
X245250000Y-146452380D01*
X245107142Y-146500000D01*
X245011904Y-146595238D01*
X244964285Y-146690476D01*
X244916666Y-146880952D01*
X244916666Y-147023809D01*
X244964285Y-147214285D01*
X245011904Y-147309523D01*
X245107142Y-147404761D01*
X245250000Y-147452380D01*
X245488095Y-147452380D01*
X253011904Y-146500000D02*
X253107142Y-146452380D01*
X253250000Y-146452380D01*
X253392857Y-146500000D01*
X253488095Y-146595238D01*
X253535714Y-146690476D01*
X253583333Y-146880952D01*
X253583333Y-147023809D01*
X253535714Y-147214285D01*
X253488095Y-147309523D01*
X253392857Y-147404761D01*
X253250000Y-147452380D01*
X253154761Y-147452380D01*
X253011904Y-147404761D01*
X252964285Y-147357142D01*
X252964285Y-147023809D01*
X253154761Y-147023809D01*
X252535714Y-147452380D02*
X252535714Y-146452380D01*
X251964285Y-147452380D01*
X251964285Y-146452380D01*
X251488095Y-147452380D02*
X251488095Y-146452380D01*
X251250000Y-146452380D01*
X251107142Y-146500000D01*
X251011904Y-146595238D01*
X250964285Y-146690476D01*
X250916666Y-146880952D01*
X250916666Y-147023809D01*
X250964285Y-147214285D01*
X251011904Y-147309523D01*
X251107142Y-147404761D01*
X251250000Y-147452380D01*
X251488095Y-147452380D01*
D11*
X207040000Y-94900000D02*
X207040000Y-97500000D01*
X207040000Y-94900000D02*
X257960000Y-94900000D01*
X257960000Y-94900000D02*
X257960000Y-100100000D01*
X209640000Y-100100000D02*
X257960000Y-100100000D01*
X209640000Y-97500000D02*
X209640000Y-100100000D01*
X207040000Y-97500000D02*
X209640000Y-97500000D01*
X207040000Y-100100000D02*
X208370000Y-100100000D01*
X207040000Y-98770000D02*
X207040000Y-100100000D01*
D10*
X206738095Y-100452380D02*
X206738095Y-99452380D01*
X206357142Y-99452380D01*
X206261904Y-99500000D01*
X206214285Y-99547619D01*
X206166666Y-99642857D01*
X206166666Y-99785714D01*
X206214285Y-99880952D01*
X206261904Y-99928571D01*
X206357142Y-99976190D01*
X206738095Y-99976190D01*
X205214285Y-100452380D02*
X205785714Y-100452380D01*
X205500000Y-100452380D02*
X205500000Y-99452380D01*
X205595238Y-99595238D01*
X205690476Y-99690476D01*
X205785714Y-99738095D01*
M02*
