G04 #@! TF.GenerationSoftware,KiCad,Pcbnew,(5.1.8)-1*
G04 #@! TF.CreationDate,2020-12-29T14:13:16+09:00*
G04 #@! TF.ProjectId,RasPi4-UART-RS485,52617350-6934-42d5-9541-52542d525334,rev?*
G04 #@! TF.SameCoordinates,Original*
G04 #@! TF.FileFunction,Legend,Top*
G04 #@! TF.FilePolarity,Positive*
%FSLAX46Y46*%
G04 Gerber Fmt 4.6, Leading zero omitted, Abs format (unit mm)*
G04 Created by KiCad (PCBNEW (5.1.8)-1) date 2020-12-29 14:13:16*
%MOMM*%
%LPD*%
G01*
G04 APERTURE LIST*
%ADD10C,0.150000*%
%ADD11C,0.120000*%
G04 APERTURE END LIST*
D10*
X243011904Y-101877380D02*
X242678571Y-101401190D01*
X242440476Y-101877380D02*
X242440476Y-100877380D01*
X242821428Y-100877380D01*
X242916666Y-100925000D01*
X242964285Y-100972619D01*
X243011904Y-101067857D01*
X243011904Y-101210714D01*
X242964285Y-101305952D01*
X242916666Y-101353571D01*
X242821428Y-101401190D01*
X242440476Y-101401190D01*
X243869047Y-101877380D02*
X243869047Y-101353571D01*
X243821428Y-101258333D01*
X243726190Y-101210714D01*
X243535714Y-101210714D01*
X243440476Y-101258333D01*
X243869047Y-101829761D02*
X243773809Y-101877380D01*
X243535714Y-101877380D01*
X243440476Y-101829761D01*
X243392857Y-101734523D01*
X243392857Y-101639285D01*
X243440476Y-101544047D01*
X243535714Y-101496428D01*
X243773809Y-101496428D01*
X243869047Y-101448809D01*
X244297619Y-101829761D02*
X244392857Y-101877380D01*
X244583333Y-101877380D01*
X244678571Y-101829761D01*
X244726190Y-101734523D01*
X244726190Y-101686904D01*
X244678571Y-101591666D01*
X244583333Y-101544047D01*
X244440476Y-101544047D01*
X244345238Y-101496428D01*
X244297619Y-101401190D01*
X244297619Y-101353571D01*
X244345238Y-101258333D01*
X244440476Y-101210714D01*
X244583333Y-101210714D01*
X244678571Y-101258333D01*
X245154761Y-101877380D02*
X245154761Y-100877380D01*
X245535714Y-100877380D01*
X245630952Y-100925000D01*
X245678571Y-100972619D01*
X245726190Y-101067857D01*
X245726190Y-101210714D01*
X245678571Y-101305952D01*
X245630952Y-101353571D01*
X245535714Y-101401190D01*
X245154761Y-101401190D01*
X246154761Y-101877380D02*
X246154761Y-101210714D01*
X246154761Y-100877380D02*
X246107142Y-100925000D01*
X246154761Y-100972619D01*
X246202380Y-100925000D01*
X246154761Y-100877380D01*
X246154761Y-100972619D01*
X247059523Y-101210714D02*
X247059523Y-101877380D01*
X246821428Y-100829761D02*
X246583333Y-101544047D01*
X247202380Y-101544047D01*
X247583333Y-101496428D02*
X248345238Y-101496428D01*
X248821428Y-100877380D02*
X248821428Y-101686904D01*
X248869047Y-101782142D01*
X248916666Y-101829761D01*
X249011904Y-101877380D01*
X249202380Y-101877380D01*
X249297619Y-101829761D01*
X249345238Y-101782142D01*
X249392857Y-101686904D01*
X249392857Y-100877380D01*
X249821428Y-101591666D02*
X250297619Y-101591666D01*
X249726190Y-101877380D02*
X250059523Y-100877380D01*
X250392857Y-101877380D01*
X251297619Y-101877380D02*
X250964285Y-101401190D01*
X250726190Y-101877380D02*
X250726190Y-100877380D01*
X251107142Y-100877380D01*
X251202380Y-100925000D01*
X251250000Y-100972619D01*
X251297619Y-101067857D01*
X251297619Y-101210714D01*
X251250000Y-101305952D01*
X251202380Y-101353571D01*
X251107142Y-101401190D01*
X250726190Y-101401190D01*
X251583333Y-100877380D02*
X252154761Y-100877380D01*
X251869047Y-101877380D02*
X251869047Y-100877380D01*
X252488095Y-101496428D02*
X253250000Y-101496428D01*
X254297619Y-101877380D02*
X253964285Y-101401190D01*
X253726190Y-101877380D02*
X253726190Y-100877380D01*
X254107142Y-100877380D01*
X254202380Y-100925000D01*
X254250000Y-100972619D01*
X254297619Y-101067857D01*
X254297619Y-101210714D01*
X254250000Y-101305952D01*
X254202380Y-101353571D01*
X254107142Y-101401190D01*
X253726190Y-101401190D01*
X254678571Y-101829761D02*
X254821428Y-101877380D01*
X255059523Y-101877380D01*
X255154761Y-101829761D01*
X255202380Y-101782142D01*
X255250000Y-101686904D01*
X255250000Y-101591666D01*
X255202380Y-101496428D01*
X255154761Y-101448809D01*
X255059523Y-101401190D01*
X254869047Y-101353571D01*
X254773809Y-101305952D01*
X254726190Y-101258333D01*
X254678571Y-101163095D01*
X254678571Y-101067857D01*
X254726190Y-100972619D01*
X254773809Y-100925000D01*
X254869047Y-100877380D01*
X255107142Y-100877380D01*
X255250000Y-100925000D01*
X256107142Y-101210714D02*
X256107142Y-101877380D01*
X255869047Y-100829761D02*
X255630952Y-101544047D01*
X256250000Y-101544047D01*
X256773809Y-101305952D02*
X256678571Y-101258333D01*
X256630952Y-101210714D01*
X256583333Y-101115476D01*
X256583333Y-101067857D01*
X256630952Y-100972619D01*
X256678571Y-100925000D01*
X256773809Y-100877380D01*
X256964285Y-100877380D01*
X257059523Y-100925000D01*
X257107142Y-100972619D01*
X257154761Y-101067857D01*
X257154761Y-101115476D01*
X257107142Y-101210714D01*
X257059523Y-101258333D01*
X256964285Y-101305952D01*
X256773809Y-101305952D01*
X256678571Y-101353571D01*
X256630952Y-101401190D01*
X256583333Y-101496428D01*
X256583333Y-101686904D01*
X256630952Y-101782142D01*
X256678571Y-101829761D01*
X256773809Y-101877380D01*
X256964285Y-101877380D01*
X257059523Y-101829761D01*
X257107142Y-101782142D01*
X257154761Y-101686904D01*
X257154761Y-101496428D01*
X257107142Y-101401190D01*
X257059523Y-101353571D01*
X256964285Y-101305952D01*
X258059523Y-100877380D02*
X257583333Y-100877380D01*
X257535714Y-101353571D01*
X257583333Y-101305952D01*
X257678571Y-101258333D01*
X257916666Y-101258333D01*
X258011904Y-101305952D01*
X258059523Y-101353571D01*
X258107142Y-101448809D01*
X258107142Y-101686904D01*
X258059523Y-101782142D01*
X258011904Y-101829761D01*
X257916666Y-101877380D01*
X257678571Y-101877380D01*
X257583333Y-101829761D01*
X257535714Y-101782142D01*
X245464285Y-102860714D02*
X245702380Y-103527380D01*
X245940476Y-102860714D01*
X246321428Y-103432142D02*
X246369047Y-103479761D01*
X246321428Y-103527380D01*
X246273809Y-103479761D01*
X246321428Y-103432142D01*
X246321428Y-103527380D01*
X246988095Y-102527380D02*
X247083333Y-102527380D01*
X247178571Y-102575000D01*
X247226190Y-102622619D01*
X247273809Y-102717857D01*
X247321428Y-102908333D01*
X247321428Y-103146428D01*
X247273809Y-103336904D01*
X247226190Y-103432142D01*
X247178571Y-103479761D01*
X247083333Y-103527380D01*
X246988095Y-103527380D01*
X246892857Y-103479761D01*
X246845238Y-103432142D01*
X246797619Y-103336904D01*
X246750000Y-103146428D01*
X246750000Y-102908333D01*
X246797619Y-102717857D01*
X246845238Y-102622619D01*
X246892857Y-102575000D01*
X246988095Y-102527380D01*
X247750000Y-103432142D02*
X247797619Y-103479761D01*
X247750000Y-103527380D01*
X247702380Y-103479761D01*
X247750000Y-103432142D01*
X247750000Y-103527380D01*
X248750000Y-103527380D02*
X248178571Y-103527380D01*
X248464285Y-103527380D02*
X248464285Y-102527380D01*
X248369047Y-102670238D01*
X248273809Y-102765476D01*
X248178571Y-102813095D01*
X249940476Y-103527380D02*
X249940476Y-102527380D01*
X249940476Y-102908333D02*
X250035714Y-102860714D01*
X250226190Y-102860714D01*
X250321428Y-102908333D01*
X250369047Y-102955952D01*
X250416666Y-103051190D01*
X250416666Y-103336904D01*
X250369047Y-103432142D01*
X250321428Y-103479761D01*
X250226190Y-103527380D01*
X250035714Y-103527380D01*
X249940476Y-103479761D01*
X250750000Y-102860714D02*
X250988095Y-103527380D01*
X251226190Y-102860714D02*
X250988095Y-103527380D01*
X250892857Y-103765476D01*
X250845238Y-103813095D01*
X250750000Y-103860714D01*
X252369047Y-103527380D02*
X252369047Y-102527380D01*
X252940476Y-103527380D01*
X252940476Y-102527380D01*
X253559523Y-103527380D02*
X253464285Y-103479761D01*
X253416666Y-103432142D01*
X253369047Y-103336904D01*
X253369047Y-103051190D01*
X253416666Y-102955952D01*
X253464285Y-102908333D01*
X253559523Y-102860714D01*
X253702380Y-102860714D01*
X253797619Y-102908333D01*
X253845238Y-102955952D01*
X253892857Y-103051190D01*
X253892857Y-103336904D01*
X253845238Y-103432142D01*
X253797619Y-103479761D01*
X253702380Y-103527380D01*
X253559523Y-103527380D01*
X254321428Y-103527380D02*
X254321428Y-102860714D01*
X254321428Y-103051190D02*
X254369047Y-102955952D01*
X254416666Y-102908333D01*
X254511904Y-102860714D01*
X254607142Y-102860714D01*
X254940476Y-103527380D02*
X254940476Y-102860714D01*
X254940476Y-102527380D02*
X254892857Y-102575000D01*
X254940476Y-102622619D01*
X254988095Y-102575000D01*
X254940476Y-102527380D01*
X254940476Y-102622619D01*
X225166666Y-149214285D02*
X225166666Y-148738095D01*
X225452380Y-149309523D02*
X224452380Y-148976190D01*
X225452380Y-148642857D01*
X225452380Y-148309523D02*
X224452380Y-148309523D01*
X225166666Y-147976190D01*
X224452380Y-147642857D01*
X225452380Y-147642857D01*
X225166666Y-147214285D02*
X225166666Y-146738095D01*
X225452380Y-147309523D02*
X224452380Y-146976190D01*
X225452380Y-146642857D01*
X224452380Y-146119047D02*
X224452380Y-146023809D01*
X224500000Y-145928571D01*
X224547619Y-145880952D01*
X224642857Y-145833333D01*
X224833333Y-145785714D01*
X225071428Y-145785714D01*
X225261904Y-145833333D01*
X225357142Y-145880952D01*
X225404761Y-145928571D01*
X225452380Y-146023809D01*
X225452380Y-146119047D01*
X225404761Y-146214285D01*
X225357142Y-146261904D01*
X225261904Y-146309523D01*
X225071428Y-146357142D01*
X224833333Y-146357142D01*
X224642857Y-146309523D01*
X224547619Y-146261904D01*
X224500000Y-146214285D01*
X224452380Y-146119047D01*
X234916666Y-149464285D02*
X234916666Y-148988095D01*
X235202380Y-149559523D02*
X234202380Y-149226190D01*
X235202380Y-148892857D01*
X235202380Y-148559523D02*
X234202380Y-148559523D01*
X234916666Y-148226190D01*
X234202380Y-147892857D01*
X235202380Y-147892857D01*
X234916666Y-147464285D02*
X234916666Y-146988095D01*
X235202380Y-147559523D02*
X234202380Y-147226190D01*
X235202380Y-146892857D01*
X235202380Y-146035714D02*
X235202380Y-146607142D01*
X235202380Y-146321428D02*
X234202380Y-146321428D01*
X234345238Y-146416666D01*
X234440476Y-146511904D01*
X234488095Y-146607142D01*
X240916666Y-149464285D02*
X240916666Y-148988095D01*
X241202380Y-149559523D02*
X240202380Y-149226190D01*
X241202380Y-148892857D01*
X241202380Y-148559523D02*
X240202380Y-148559523D01*
X240916666Y-148226190D01*
X240202380Y-147892857D01*
X241202380Y-147892857D01*
X240916666Y-147464285D02*
X240916666Y-146988095D01*
X241202380Y-147559523D02*
X240202380Y-147226190D01*
X241202380Y-146892857D01*
X240297619Y-146607142D02*
X240250000Y-146559523D01*
X240202380Y-146464285D01*
X240202380Y-146226190D01*
X240250000Y-146130952D01*
X240297619Y-146083333D01*
X240392857Y-146035714D01*
X240488095Y-146035714D01*
X240630952Y-146083333D01*
X241202380Y-146654761D01*
X241202380Y-146035714D01*
X246916666Y-149464285D02*
X246916666Y-148988095D01*
X247202380Y-149559523D02*
X246202380Y-149226190D01*
X247202380Y-148892857D01*
X247202380Y-148559523D02*
X246202380Y-148559523D01*
X246916666Y-148226190D01*
X246202380Y-147892857D01*
X247202380Y-147892857D01*
X246916666Y-147464285D02*
X246916666Y-146988095D01*
X247202380Y-147559523D02*
X246202380Y-147226190D01*
X247202380Y-146892857D01*
X246202380Y-146654761D02*
X246202380Y-146035714D01*
X246583333Y-146369047D01*
X246583333Y-146226190D01*
X246630952Y-146130952D01*
X246678571Y-146083333D01*
X246773809Y-146035714D01*
X247011904Y-146035714D01*
X247107142Y-146083333D01*
X247154761Y-146130952D01*
X247202380Y-146226190D01*
X247202380Y-146511904D01*
X247154761Y-146607142D01*
X247107142Y-146654761D01*
X252916666Y-149464285D02*
X252916666Y-148988095D01*
X253202380Y-149559523D02*
X252202380Y-149226190D01*
X253202380Y-148892857D01*
X253202380Y-148559523D02*
X252202380Y-148559523D01*
X252916666Y-148226190D01*
X252202380Y-147892857D01*
X253202380Y-147892857D01*
X252916666Y-147464285D02*
X252916666Y-146988095D01*
X253202380Y-147559523D02*
X252202380Y-147226190D01*
X253202380Y-146892857D01*
X252535714Y-146130952D02*
X253202380Y-146130952D01*
X252154761Y-146369047D02*
X252869047Y-146607142D01*
X252869047Y-145988095D01*
X202000000Y-118500000D02*
X200000000Y-120500000D01*
X223000000Y-118500000D02*
X225000000Y-120500000D01*
X223000000Y-143500000D02*
X225000000Y-141500000D01*
X202000000Y-143500000D02*
X200000000Y-141500000D01*
X225000000Y-120500000D02*
X225000000Y-141500000D01*
X202000000Y-118500000D02*
X223000000Y-118500000D01*
X200000000Y-141500000D02*
X200000000Y-120500000D01*
X202000000Y-143500000D02*
X223000000Y-143500000D01*
X262525000Y-128425000D02*
X262525000Y-127025000D01*
X257425000Y-128425000D02*
X257425000Y-132575000D01*
X262575000Y-128425000D02*
X262575000Y-132575000D01*
X257425000Y-128425000D02*
X257570000Y-128425000D01*
X257425000Y-132575000D02*
X257570000Y-132575000D01*
X262575000Y-132575000D02*
X262430000Y-132575000D01*
X262575000Y-128425000D02*
X262525000Y-128425000D01*
X255025000Y-128425000D02*
X255025000Y-127025000D01*
X249925000Y-128425000D02*
X249925000Y-132575000D01*
X255075000Y-128425000D02*
X255075000Y-132575000D01*
X249925000Y-128425000D02*
X250070000Y-128425000D01*
X249925000Y-132575000D02*
X250070000Y-132575000D01*
X255075000Y-132575000D02*
X254930000Y-132575000D01*
X255075000Y-128425000D02*
X255025000Y-128425000D01*
X247525000Y-128425000D02*
X247525000Y-127025000D01*
X242425000Y-128425000D02*
X242425000Y-132575000D01*
X247575000Y-128425000D02*
X247575000Y-132575000D01*
X242425000Y-128425000D02*
X242570000Y-128425000D01*
X242425000Y-132575000D02*
X242570000Y-132575000D01*
X247575000Y-132575000D02*
X247430000Y-132575000D01*
X247575000Y-128425000D02*
X247525000Y-128425000D01*
X240025000Y-128425000D02*
X240025000Y-127025000D01*
X234925000Y-128425000D02*
X234925000Y-132575000D01*
X240075000Y-128425000D02*
X240075000Y-132575000D01*
X234925000Y-128425000D02*
X235070000Y-128425000D01*
X234925000Y-132575000D02*
X235070000Y-132575000D01*
X240075000Y-132575000D02*
X239930000Y-132575000D01*
X240075000Y-128425000D02*
X240025000Y-128425000D01*
X232525000Y-128425000D02*
X232525000Y-127025000D01*
X227425000Y-128425000D02*
X227425000Y-132575000D01*
X232575000Y-128425000D02*
X232575000Y-132575000D01*
X227425000Y-128425000D02*
X227570000Y-128425000D01*
X227425000Y-132575000D02*
X227570000Y-132575000D01*
X232575000Y-132575000D02*
X232430000Y-132575000D01*
X232575000Y-128425000D02*
X232525000Y-128425000D01*
X230850000Y-102920000D02*
X218150000Y-102920000D01*
X218150000Y-102920000D02*
X218150000Y-113080000D01*
X218150000Y-113080000D02*
X230850000Y-113080000D01*
X230850000Y-113080000D02*
X230850000Y-102920000D01*
X230623607Y-103400000D02*
G75*
G03*
X230623607Y-103400000I-223607J0D01*
G01*
D11*
X218440000Y-113690000D02*
X218440000Y-118410000D01*
X218440000Y-118410000D02*
X224560000Y-118410000D01*
X224560000Y-118410000D02*
X224560000Y-113690000D01*
X224560000Y-113690000D02*
X218440000Y-113690000D01*
X220200000Y-113690000D02*
X220200000Y-113490000D01*
X220200000Y-113490000D02*
X219900000Y-113490000D01*
X219900000Y-113490000D02*
X219900000Y-113690000D01*
X220200000Y-113590000D02*
X219900000Y-113590000D01*
X221000000Y-113690000D02*
X221000000Y-114300000D01*
X221000000Y-114300000D02*
X219050000Y-114300000D01*
X219050000Y-114300000D02*
X219050000Y-117800000D01*
X219050000Y-117800000D02*
X223950000Y-117800000D01*
X223950000Y-117800000D02*
X223950000Y-114300000D01*
X223950000Y-114300000D02*
X222000000Y-114300000D01*
X222000000Y-114300000D02*
X222000000Y-113690000D01*
X218440000Y-115000000D02*
X219050000Y-115000000D01*
X218440000Y-116300000D02*
X219050000Y-116300000D01*
X224560000Y-115000000D02*
X223950000Y-115000000D01*
X224560000Y-116300000D02*
X223950000Y-116300000D01*
X221400000Y-117800000D02*
X221400000Y-117300000D01*
X221400000Y-117300000D02*
X221600000Y-117300000D01*
X221600000Y-117300000D02*
X221600000Y-117800000D01*
X221500000Y-117800000D02*
X221500000Y-117300000D01*
X219390000Y-113390000D02*
X218140000Y-113390000D01*
X218140000Y-113390000D02*
X218140000Y-114640000D01*
D10*
X217850000Y-118020000D02*
X217850000Y-100240000D01*
X217850000Y-118020000D02*
X200070000Y-118020000D01*
X200070000Y-118020000D02*
X200070000Y-100240000D01*
X200070000Y-100240000D02*
X217850000Y-100240000D01*
D11*
X260880000Y-122990000D02*
X258450000Y-122990000D01*
X259120000Y-126060000D02*
X260880000Y-126060000D01*
X253380000Y-122990000D02*
X250950000Y-122990000D01*
X251620000Y-126060000D02*
X253380000Y-126060000D01*
X245880000Y-122990000D02*
X243450000Y-122990000D01*
X244120000Y-126060000D02*
X245880000Y-126060000D01*
X238380000Y-122990000D02*
X235950000Y-122990000D01*
X236620000Y-126060000D02*
X238380000Y-126060000D01*
X230880000Y-122990000D02*
X228450000Y-122990000D01*
X229120000Y-126060000D02*
X230880000Y-126060000D01*
X258840000Y-120300000D02*
X258840000Y-121700000D01*
X261160000Y-121700000D02*
X261160000Y-119800000D01*
X251340000Y-120300000D02*
X251340000Y-121700000D01*
X253660000Y-121700000D02*
X253660000Y-119800000D01*
X243840000Y-120300000D02*
X243840000Y-121700000D01*
X246160000Y-121700000D02*
X246160000Y-119800000D01*
X236340000Y-120300000D02*
X236340000Y-121700000D01*
X238660000Y-121700000D02*
X238660000Y-119800000D01*
X228840000Y-120300000D02*
X228840000Y-121700000D01*
X231160000Y-121700000D02*
X231160000Y-119800000D01*
X207750000Y-149680000D02*
X206750000Y-149680000D01*
X206750000Y-148320000D02*
X207750000Y-148320000D01*
X221320000Y-107000000D02*
X221320000Y-106000000D01*
X222680000Y-106000000D02*
X222680000Y-107000000D01*
X225180000Y-106000000D02*
X225180000Y-107000000D01*
X223820000Y-107000000D02*
X223820000Y-106000000D01*
X256420000Y-125200000D02*
X256420000Y-124200000D01*
X257780000Y-124200000D02*
X257780000Y-125200000D01*
X248920000Y-125200000D02*
X248920000Y-124200000D01*
X250280000Y-124200000D02*
X250280000Y-125200000D01*
X241420000Y-125200000D02*
X241420000Y-124200000D01*
X242780000Y-124200000D02*
X242780000Y-125200000D01*
X233920000Y-125200000D02*
X233920000Y-124200000D01*
X235280000Y-124200000D02*
X235280000Y-125200000D01*
X226420000Y-125200000D02*
X226420000Y-124200000D01*
X227780000Y-124200000D02*
X227780000Y-125200000D01*
X229540000Y-149610000D02*
X233560000Y-149610000D01*
X233560000Y-149610000D02*
X233560000Y-136890000D01*
X233560000Y-136890000D02*
X229540000Y-136890000D01*
X229540000Y-136890000D02*
X229540000Y-149610000D01*
X231250000Y-149610000D02*
X231250000Y-149110000D01*
X231250000Y-149110000D02*
X230040000Y-149110000D01*
X230040000Y-149110000D02*
X230040000Y-137390000D01*
X230040000Y-137390000D02*
X231250000Y-137390000D01*
X231250000Y-137390000D02*
X231250000Y-136890000D01*
X232060000Y-149610000D02*
X232060000Y-148610000D01*
X232060000Y-148610000D02*
X233560000Y-148610000D01*
X232060000Y-136890000D02*
X232060000Y-137890000D01*
X232060000Y-137890000D02*
X233560000Y-137890000D01*
X231360000Y-149910000D02*
X233860000Y-149910000D01*
X233860000Y-149910000D02*
X233860000Y-147410000D01*
X253540000Y-149610000D02*
X257560000Y-149610000D01*
X257560000Y-149610000D02*
X257560000Y-136890000D01*
X257560000Y-136890000D02*
X253540000Y-136890000D01*
X253540000Y-136890000D02*
X253540000Y-149610000D01*
X255250000Y-149610000D02*
X255250000Y-149110000D01*
X255250000Y-149110000D02*
X254040000Y-149110000D01*
X254040000Y-149110000D02*
X254040000Y-137390000D01*
X254040000Y-137390000D02*
X255250000Y-137390000D01*
X255250000Y-137390000D02*
X255250000Y-136890000D01*
X256060000Y-149610000D02*
X256060000Y-148610000D01*
X256060000Y-148610000D02*
X257560000Y-148610000D01*
X256060000Y-136890000D02*
X256060000Y-137890000D01*
X256060000Y-137890000D02*
X257560000Y-137890000D01*
X255360000Y-149910000D02*
X257860000Y-149910000D01*
X257860000Y-149910000D02*
X257860000Y-147410000D01*
X247540000Y-149610000D02*
X251560000Y-149610000D01*
X251560000Y-149610000D02*
X251560000Y-136890000D01*
X251560000Y-136890000D02*
X247540000Y-136890000D01*
X247540000Y-136890000D02*
X247540000Y-149610000D01*
X249250000Y-149610000D02*
X249250000Y-149110000D01*
X249250000Y-149110000D02*
X248040000Y-149110000D01*
X248040000Y-149110000D02*
X248040000Y-137390000D01*
X248040000Y-137390000D02*
X249250000Y-137390000D01*
X249250000Y-137390000D02*
X249250000Y-136890000D01*
X250060000Y-149610000D02*
X250060000Y-148610000D01*
X250060000Y-148610000D02*
X251560000Y-148610000D01*
X250060000Y-136890000D02*
X250060000Y-137890000D01*
X250060000Y-137890000D02*
X251560000Y-137890000D01*
X249360000Y-149910000D02*
X251860000Y-149910000D01*
X251860000Y-149910000D02*
X251860000Y-147410000D01*
X241540000Y-149610000D02*
X245560000Y-149610000D01*
X245560000Y-149610000D02*
X245560000Y-136890000D01*
X245560000Y-136890000D02*
X241540000Y-136890000D01*
X241540000Y-136890000D02*
X241540000Y-149610000D01*
X243250000Y-149610000D02*
X243250000Y-149110000D01*
X243250000Y-149110000D02*
X242040000Y-149110000D01*
X242040000Y-149110000D02*
X242040000Y-137390000D01*
X242040000Y-137390000D02*
X243250000Y-137390000D01*
X243250000Y-137390000D02*
X243250000Y-136890000D01*
X244060000Y-149610000D02*
X244060000Y-148610000D01*
X244060000Y-148610000D02*
X245560000Y-148610000D01*
X244060000Y-136890000D02*
X244060000Y-137890000D01*
X244060000Y-137890000D02*
X245560000Y-137890000D01*
X243360000Y-149910000D02*
X245860000Y-149910000D01*
X245860000Y-149910000D02*
X245860000Y-147410000D01*
X235540000Y-149610000D02*
X239560000Y-149610000D01*
X239560000Y-149610000D02*
X239560000Y-136890000D01*
X239560000Y-136890000D02*
X235540000Y-136890000D01*
X235540000Y-136890000D02*
X235540000Y-149610000D01*
X237250000Y-149610000D02*
X237250000Y-149110000D01*
X237250000Y-149110000D02*
X236040000Y-149110000D01*
X236040000Y-149110000D02*
X236040000Y-137390000D01*
X236040000Y-137390000D02*
X237250000Y-137390000D01*
X237250000Y-137390000D02*
X237250000Y-136890000D01*
X238060000Y-149610000D02*
X238060000Y-148610000D01*
X238060000Y-148610000D02*
X239560000Y-148610000D01*
X238060000Y-136890000D02*
X238060000Y-137890000D01*
X238060000Y-137890000D02*
X239560000Y-137890000D01*
X237360000Y-149910000D02*
X239860000Y-149910000D01*
X239860000Y-149910000D02*
X239860000Y-147410000D01*
X225540000Y-149610000D02*
X229560000Y-149610000D01*
X229560000Y-149610000D02*
X229560000Y-136890000D01*
X229560000Y-136890000D02*
X225540000Y-136890000D01*
X225540000Y-136890000D02*
X225540000Y-149610000D01*
X227250000Y-149610000D02*
X227250000Y-149110000D01*
X227250000Y-149110000D02*
X226040000Y-149110000D01*
X226040000Y-149110000D02*
X226040000Y-137390000D01*
X226040000Y-137390000D02*
X227250000Y-137390000D01*
X227250000Y-137390000D02*
X227250000Y-136890000D01*
X228060000Y-149610000D02*
X228060000Y-148610000D01*
X228060000Y-148610000D02*
X229560000Y-148610000D01*
X228060000Y-136890000D02*
X228060000Y-137890000D01*
X228060000Y-137890000D02*
X229560000Y-137890000D01*
X227360000Y-149910000D02*
X229860000Y-149910000D01*
X229860000Y-149910000D02*
X229860000Y-147410000D01*
X209200000Y-148500000D02*
X211300000Y-148500000D01*
X209200000Y-149500000D02*
X211300000Y-149500000D01*
X209200000Y-148500000D02*
X209200000Y-149500000D01*
X262200000Y-124850000D02*
X262200000Y-124150000D01*
X263400000Y-124150000D02*
X263400000Y-124850000D01*
X262900000Y-133350000D02*
X262900000Y-132650000D01*
X264100000Y-132650000D02*
X264100000Y-133350000D01*
X254700000Y-124850000D02*
X254700000Y-124150000D01*
X255900000Y-124150000D02*
X255900000Y-124850000D01*
X255400000Y-133350000D02*
X255400000Y-132650000D01*
X256600000Y-132650000D02*
X256600000Y-133350000D01*
X247200000Y-124850000D02*
X247200000Y-124150000D01*
X248400000Y-124150000D02*
X248400000Y-124850000D01*
X247900000Y-133350000D02*
X247900000Y-132650000D01*
X249100000Y-132650000D02*
X249100000Y-133350000D01*
X239700000Y-124850000D02*
X239700000Y-124150000D01*
X240900000Y-124150000D02*
X240900000Y-124850000D01*
X240400000Y-133350000D02*
X240400000Y-132650000D01*
X241600000Y-132650000D02*
X241600000Y-133350000D01*
X232900000Y-133350000D02*
X232900000Y-132650000D01*
X234100000Y-132650000D02*
X234100000Y-133350000D01*
X232200000Y-124850000D02*
X232200000Y-124150000D01*
X233400000Y-124150000D02*
X233400000Y-124850000D01*
X214650000Y-143750000D02*
X214650000Y-145000000D01*
X215900000Y-143750000D02*
X214650000Y-143750000D01*
X221800000Y-149250000D02*
X218750000Y-149250000D01*
X221800000Y-146300000D02*
X221800000Y-149250000D01*
X222550000Y-146300000D02*
X221800000Y-146300000D01*
X215700000Y-149250000D02*
X218750000Y-149250000D01*
X215700000Y-146300000D02*
X215700000Y-149250000D01*
X214950000Y-146300000D02*
X215700000Y-146300000D01*
X222550000Y-144050000D02*
X220750000Y-144050000D01*
X222550000Y-144800000D02*
X222550000Y-144050000D01*
X220750000Y-144800000D02*
X222550000Y-144800000D01*
X220750000Y-144050000D02*
X220750000Y-144800000D01*
X216750000Y-144050000D02*
X214950000Y-144050000D01*
X216750000Y-144800000D02*
X216750000Y-144050000D01*
X214950000Y-144800000D02*
X216750000Y-144800000D01*
X214950000Y-144050000D02*
X214950000Y-144800000D01*
X219250000Y-144050000D02*
X218250000Y-144050000D01*
X219250000Y-144800000D02*
X219250000Y-144050000D01*
X218250000Y-144800000D02*
X219250000Y-144800000D01*
X218250000Y-144050000D02*
X218250000Y-144800000D01*
X222560000Y-144040000D02*
X214940000Y-144040000D01*
X222560000Y-150010000D02*
X222560000Y-144040000D01*
X214940000Y-150010000D02*
X222560000Y-150010000D01*
X214940000Y-144040000D02*
X214940000Y-150010000D01*
D10*
X262952380Y-131488095D02*
X263761904Y-131488095D01*
X263857142Y-131440476D01*
X263904761Y-131392857D01*
X263952380Y-131297619D01*
X263952380Y-131107142D01*
X263904761Y-131011904D01*
X263857142Y-130964285D01*
X263761904Y-130916666D01*
X262952380Y-130916666D01*
X263952380Y-129916666D02*
X263952380Y-130488095D01*
X263952380Y-130202380D02*
X262952380Y-130202380D01*
X263095238Y-130297619D01*
X263190476Y-130392857D01*
X263238095Y-130488095D01*
X262952380Y-129011904D02*
X262952380Y-129488095D01*
X263428571Y-129535714D01*
X263380952Y-129488095D01*
X263333333Y-129392857D01*
X263333333Y-129154761D01*
X263380952Y-129059523D01*
X263428571Y-129011904D01*
X263523809Y-128964285D01*
X263761904Y-128964285D01*
X263857142Y-129011904D01*
X263904761Y-129059523D01*
X263952380Y-129154761D01*
X263952380Y-129392857D01*
X263904761Y-129488095D01*
X263857142Y-129535714D01*
X255452380Y-131238095D02*
X256261904Y-131238095D01*
X256357142Y-131190476D01*
X256404761Y-131142857D01*
X256452380Y-131047619D01*
X256452380Y-130857142D01*
X256404761Y-130761904D01*
X256357142Y-130714285D01*
X256261904Y-130666666D01*
X255452380Y-130666666D01*
X256452380Y-129666666D02*
X256452380Y-130238095D01*
X256452380Y-129952380D02*
X255452380Y-129952380D01*
X255595238Y-130047619D01*
X255690476Y-130142857D01*
X255738095Y-130238095D01*
X255785714Y-128809523D02*
X256452380Y-128809523D01*
X255404761Y-129047619D02*
X256119047Y-129285714D01*
X256119047Y-128666666D01*
X247952380Y-131238095D02*
X248761904Y-131238095D01*
X248857142Y-131190476D01*
X248904761Y-131142857D01*
X248952380Y-131047619D01*
X248952380Y-130857142D01*
X248904761Y-130761904D01*
X248857142Y-130714285D01*
X248761904Y-130666666D01*
X247952380Y-130666666D01*
X248952380Y-129666666D02*
X248952380Y-130238095D01*
X248952380Y-129952380D02*
X247952380Y-129952380D01*
X248095238Y-130047619D01*
X248190476Y-130142857D01*
X248238095Y-130238095D01*
X247952380Y-129333333D02*
X247952380Y-128714285D01*
X248333333Y-129047619D01*
X248333333Y-128904761D01*
X248380952Y-128809523D01*
X248428571Y-128761904D01*
X248523809Y-128714285D01*
X248761904Y-128714285D01*
X248857142Y-128761904D01*
X248904761Y-128809523D01*
X248952380Y-128904761D01*
X248952380Y-129190476D01*
X248904761Y-129285714D01*
X248857142Y-129333333D01*
X240452380Y-131238095D02*
X241261904Y-131238095D01*
X241357142Y-131190476D01*
X241404761Y-131142857D01*
X241452380Y-131047619D01*
X241452380Y-130857142D01*
X241404761Y-130761904D01*
X241357142Y-130714285D01*
X241261904Y-130666666D01*
X240452380Y-130666666D01*
X241452380Y-129666666D02*
X241452380Y-130238095D01*
X241452380Y-129952380D02*
X240452380Y-129952380D01*
X240595238Y-130047619D01*
X240690476Y-130142857D01*
X240738095Y-130238095D01*
X240547619Y-129285714D02*
X240500000Y-129238095D01*
X240452380Y-129142857D01*
X240452380Y-128904761D01*
X240500000Y-128809523D01*
X240547619Y-128761904D01*
X240642857Y-128714285D01*
X240738095Y-128714285D01*
X240880952Y-128761904D01*
X241452380Y-129333333D01*
X241452380Y-128714285D01*
X232952380Y-131238095D02*
X233761904Y-131238095D01*
X233857142Y-131190476D01*
X233904761Y-131142857D01*
X233952380Y-131047619D01*
X233952380Y-130857142D01*
X233904761Y-130761904D01*
X233857142Y-130714285D01*
X233761904Y-130666666D01*
X232952380Y-130666666D01*
X233952380Y-129666666D02*
X233952380Y-130238095D01*
X233952380Y-129952380D02*
X232952380Y-129952380D01*
X233095238Y-130047619D01*
X233190476Y-130142857D01*
X233238095Y-130238095D01*
X233952380Y-128714285D02*
X233952380Y-129285714D01*
X233952380Y-129000000D02*
X232952380Y-129000000D01*
X233095238Y-129095238D01*
X233190476Y-129190476D01*
X233238095Y-129285714D01*
X218190476Y-120452380D02*
X218190476Y-119452380D01*
X218523809Y-120166666D01*
X218857142Y-119452380D01*
X218857142Y-120452380D01*
X219857142Y-120452380D02*
X219285714Y-120452380D01*
X219571428Y-120452380D02*
X219571428Y-119452380D01*
X219476190Y-119595238D01*
X219380952Y-119690476D01*
X219285714Y-119738095D01*
X228261904Y-113452380D02*
X228261904Y-114261904D01*
X228309523Y-114357142D01*
X228357142Y-114404761D01*
X228452380Y-114452380D01*
X228642857Y-114452380D01*
X228738095Y-114404761D01*
X228785714Y-114357142D01*
X228833333Y-114261904D01*
X228833333Y-113452380D01*
X229833333Y-114452380D02*
X229261904Y-114452380D01*
X229547619Y-114452380D02*
X229547619Y-113452380D01*
X229452380Y-113595238D01*
X229357142Y-113690476D01*
X229261904Y-113738095D01*
X230690476Y-113452380D02*
X230500000Y-113452380D01*
X230404761Y-113500000D01*
X230357142Y-113547619D01*
X230261904Y-113690476D01*
X230214285Y-113880952D01*
X230214285Y-114261904D01*
X230261904Y-114357142D01*
X230309523Y-114404761D01*
X230404761Y-114452380D01*
X230595238Y-114452380D01*
X230690476Y-114404761D01*
X230738095Y-114357142D01*
X230785714Y-114261904D01*
X230785714Y-114023809D01*
X230738095Y-113928571D01*
X230690476Y-113880952D01*
X230595238Y-113833333D01*
X230404761Y-113833333D01*
X230309523Y-113880952D01*
X230261904Y-113928571D01*
X230214285Y-114023809D01*
X225166666Y-116952380D02*
X225166666Y-117666666D01*
X225119047Y-117809523D01*
X225023809Y-117904761D01*
X224880952Y-117952380D01*
X224785714Y-117952380D01*
X225785714Y-117380952D02*
X225690476Y-117333333D01*
X225642857Y-117285714D01*
X225595238Y-117190476D01*
X225595238Y-117142857D01*
X225642857Y-117047619D01*
X225690476Y-117000000D01*
X225785714Y-116952380D01*
X225976190Y-116952380D01*
X226071428Y-117000000D01*
X226119047Y-117047619D01*
X226166666Y-117142857D01*
X226166666Y-117190476D01*
X226119047Y-117285714D01*
X226071428Y-117333333D01*
X225976190Y-117380952D01*
X225785714Y-117380952D01*
X225690476Y-117428571D01*
X225642857Y-117476190D01*
X225595238Y-117571428D01*
X225595238Y-117761904D01*
X225642857Y-117857142D01*
X225690476Y-117904761D01*
X225785714Y-117952380D01*
X225976190Y-117952380D01*
X226071428Y-117904761D01*
X226119047Y-117857142D01*
X226166666Y-117761904D01*
X226166666Y-117571428D01*
X226119047Y-117476190D01*
X226071428Y-117428571D01*
X225976190Y-117380952D01*
X210509523Y-111231904D02*
X210509523Y-111879523D01*
X210547619Y-111955714D01*
X210585714Y-111993809D01*
X210661904Y-112031904D01*
X210814285Y-112031904D01*
X210890476Y-111993809D01*
X210928571Y-111955714D01*
X210966666Y-111879523D01*
X210966666Y-111231904D01*
X211766666Y-112031904D02*
X211309523Y-112031904D01*
X211538095Y-112031904D02*
X211538095Y-111231904D01*
X211461904Y-111346190D01*
X211385714Y-111422380D01*
X211309523Y-111460476D01*
X212033333Y-111231904D02*
X212566666Y-111231904D01*
X212223809Y-112031904D01*
X261261904Y-121952380D02*
X261261904Y-122761904D01*
X261309523Y-122857142D01*
X261357142Y-122904761D01*
X261452380Y-122952380D01*
X261642857Y-122952380D01*
X261738095Y-122904761D01*
X261785714Y-122857142D01*
X261833333Y-122761904D01*
X261833333Y-121952380D01*
X262833333Y-122952380D02*
X262261904Y-122952380D01*
X262547619Y-122952380D02*
X262547619Y-121952380D01*
X262452380Y-122095238D01*
X262357142Y-122190476D01*
X262261904Y-122238095D01*
X263452380Y-121952380D02*
X263547619Y-121952380D01*
X263642857Y-122000000D01*
X263690476Y-122047619D01*
X263738095Y-122142857D01*
X263785714Y-122333333D01*
X263785714Y-122571428D01*
X263738095Y-122761904D01*
X263690476Y-122857142D01*
X263642857Y-122904761D01*
X263547619Y-122952380D01*
X263452380Y-122952380D01*
X263357142Y-122904761D01*
X263309523Y-122857142D01*
X263261904Y-122761904D01*
X263214285Y-122571428D01*
X263214285Y-122333333D01*
X263261904Y-122142857D01*
X263309523Y-122047619D01*
X263357142Y-122000000D01*
X263452380Y-121952380D01*
X253738095Y-121952380D02*
X253738095Y-122761904D01*
X253785714Y-122857142D01*
X253833333Y-122904761D01*
X253928571Y-122952380D01*
X254119047Y-122952380D01*
X254214285Y-122904761D01*
X254261904Y-122857142D01*
X254309523Y-122761904D01*
X254309523Y-121952380D01*
X254833333Y-122952380D02*
X255023809Y-122952380D01*
X255119047Y-122904761D01*
X255166666Y-122857142D01*
X255261904Y-122714285D01*
X255309523Y-122523809D01*
X255309523Y-122142857D01*
X255261904Y-122047619D01*
X255214285Y-122000000D01*
X255119047Y-121952380D01*
X254928571Y-121952380D01*
X254833333Y-122000000D01*
X254785714Y-122047619D01*
X254738095Y-122142857D01*
X254738095Y-122380952D01*
X254785714Y-122476190D01*
X254833333Y-122523809D01*
X254928571Y-122571428D01*
X255119047Y-122571428D01*
X255214285Y-122523809D01*
X255261904Y-122476190D01*
X255309523Y-122380952D01*
X246238095Y-121952380D02*
X246238095Y-122761904D01*
X246285714Y-122857142D01*
X246333333Y-122904761D01*
X246428571Y-122952380D01*
X246619047Y-122952380D01*
X246714285Y-122904761D01*
X246761904Y-122857142D01*
X246809523Y-122761904D01*
X246809523Y-121952380D01*
X247428571Y-122380952D02*
X247333333Y-122333333D01*
X247285714Y-122285714D01*
X247238095Y-122190476D01*
X247238095Y-122142857D01*
X247285714Y-122047619D01*
X247333333Y-122000000D01*
X247428571Y-121952380D01*
X247619047Y-121952380D01*
X247714285Y-122000000D01*
X247761904Y-122047619D01*
X247809523Y-122142857D01*
X247809523Y-122190476D01*
X247761904Y-122285714D01*
X247714285Y-122333333D01*
X247619047Y-122380952D01*
X247428571Y-122380952D01*
X247333333Y-122428571D01*
X247285714Y-122476190D01*
X247238095Y-122571428D01*
X247238095Y-122761904D01*
X247285714Y-122857142D01*
X247333333Y-122904761D01*
X247428571Y-122952380D01*
X247619047Y-122952380D01*
X247714285Y-122904761D01*
X247761904Y-122857142D01*
X247809523Y-122761904D01*
X247809523Y-122571428D01*
X247761904Y-122476190D01*
X247714285Y-122428571D01*
X247619047Y-122380952D01*
X238738095Y-121952380D02*
X238738095Y-122761904D01*
X238785714Y-122857142D01*
X238833333Y-122904761D01*
X238928571Y-122952380D01*
X239119047Y-122952380D01*
X239214285Y-122904761D01*
X239261904Y-122857142D01*
X239309523Y-122761904D01*
X239309523Y-121952380D01*
X239690476Y-121952380D02*
X240357142Y-121952380D01*
X239928571Y-122952380D01*
X231238095Y-121952380D02*
X231238095Y-122761904D01*
X231285714Y-122857142D01*
X231333333Y-122904761D01*
X231428571Y-122952380D01*
X231619047Y-122952380D01*
X231714285Y-122904761D01*
X231761904Y-122857142D01*
X231809523Y-122761904D01*
X231809523Y-121952380D01*
X232714285Y-121952380D02*
X232523809Y-121952380D01*
X232428571Y-122000000D01*
X232380952Y-122047619D01*
X232285714Y-122190476D01*
X232238095Y-122380952D01*
X232238095Y-122761904D01*
X232285714Y-122857142D01*
X232333333Y-122904761D01*
X232428571Y-122952380D01*
X232619047Y-122952380D01*
X232714285Y-122904761D01*
X232761904Y-122857142D01*
X232809523Y-122761904D01*
X232809523Y-122523809D01*
X232761904Y-122428571D01*
X232714285Y-122380952D01*
X232619047Y-122333333D01*
X232428571Y-122333333D01*
X232333333Y-122380952D01*
X232285714Y-122428571D01*
X232238095Y-122523809D01*
X257452380Y-121761904D02*
X258261904Y-121761904D01*
X258357142Y-121714285D01*
X258404761Y-121666666D01*
X258452380Y-121571428D01*
X258452380Y-121380952D01*
X258404761Y-121285714D01*
X258357142Y-121238095D01*
X258261904Y-121190476D01*
X257452380Y-121190476D01*
X257452380Y-120238095D02*
X257452380Y-120714285D01*
X257928571Y-120761904D01*
X257880952Y-120714285D01*
X257833333Y-120619047D01*
X257833333Y-120380952D01*
X257880952Y-120285714D01*
X257928571Y-120238095D01*
X258023809Y-120190476D01*
X258261904Y-120190476D01*
X258357142Y-120238095D01*
X258404761Y-120285714D01*
X258452380Y-120380952D01*
X258452380Y-120619047D01*
X258404761Y-120714285D01*
X258357142Y-120761904D01*
X249952380Y-121761904D02*
X250761904Y-121761904D01*
X250857142Y-121714285D01*
X250904761Y-121666666D01*
X250952380Y-121571428D01*
X250952380Y-121380952D01*
X250904761Y-121285714D01*
X250857142Y-121238095D01*
X250761904Y-121190476D01*
X249952380Y-121190476D01*
X250285714Y-120285714D02*
X250952380Y-120285714D01*
X249904761Y-120523809D02*
X250619047Y-120761904D01*
X250619047Y-120142857D01*
X242452380Y-121761904D02*
X243261904Y-121761904D01*
X243357142Y-121714285D01*
X243404761Y-121666666D01*
X243452380Y-121571428D01*
X243452380Y-121380952D01*
X243404761Y-121285714D01*
X243357142Y-121238095D01*
X243261904Y-121190476D01*
X242452380Y-121190476D01*
X242452380Y-120809523D02*
X242452380Y-120190476D01*
X242833333Y-120523809D01*
X242833333Y-120380952D01*
X242880952Y-120285714D01*
X242928571Y-120238095D01*
X243023809Y-120190476D01*
X243261904Y-120190476D01*
X243357142Y-120238095D01*
X243404761Y-120285714D01*
X243452380Y-120380952D01*
X243452380Y-120666666D01*
X243404761Y-120761904D01*
X243357142Y-120809523D01*
X234952380Y-121761904D02*
X235761904Y-121761904D01*
X235857142Y-121714285D01*
X235904761Y-121666666D01*
X235952380Y-121571428D01*
X235952380Y-121380952D01*
X235904761Y-121285714D01*
X235857142Y-121238095D01*
X235761904Y-121190476D01*
X234952380Y-121190476D01*
X235047619Y-120761904D02*
X235000000Y-120714285D01*
X234952380Y-120619047D01*
X234952380Y-120380952D01*
X235000000Y-120285714D01*
X235047619Y-120238095D01*
X235142857Y-120190476D01*
X235238095Y-120190476D01*
X235380952Y-120238095D01*
X235952380Y-120809523D01*
X235952380Y-120190476D01*
X227452380Y-121761904D02*
X228261904Y-121761904D01*
X228357142Y-121714285D01*
X228404761Y-121666666D01*
X228452380Y-121571428D01*
X228452380Y-121380952D01*
X228404761Y-121285714D01*
X228357142Y-121238095D01*
X228261904Y-121190476D01*
X227452380Y-121190476D01*
X228452380Y-120190476D02*
X228452380Y-120761904D01*
X228452380Y-120476190D02*
X227452380Y-120476190D01*
X227595238Y-120571428D01*
X227690476Y-120666666D01*
X227738095Y-120761904D01*
X207083333Y-147952380D02*
X206750000Y-147476190D01*
X206511904Y-147952380D02*
X206511904Y-146952380D01*
X206892857Y-146952380D01*
X206988095Y-147000000D01*
X207035714Y-147047619D01*
X207083333Y-147142857D01*
X207083333Y-147285714D01*
X207035714Y-147380952D01*
X206988095Y-147428571D01*
X206892857Y-147476190D01*
X206511904Y-147476190D01*
X207654761Y-147380952D02*
X207559523Y-147333333D01*
X207511904Y-147285714D01*
X207464285Y-147190476D01*
X207464285Y-147142857D01*
X207511904Y-147047619D01*
X207559523Y-147000000D01*
X207654761Y-146952380D01*
X207845238Y-146952380D01*
X207940476Y-147000000D01*
X207988095Y-147047619D01*
X208035714Y-147142857D01*
X208035714Y-147190476D01*
X207988095Y-147285714D01*
X207940476Y-147333333D01*
X207845238Y-147380952D01*
X207654761Y-147380952D01*
X207559523Y-147428571D01*
X207511904Y-147476190D01*
X207464285Y-147571428D01*
X207464285Y-147761904D01*
X207511904Y-147857142D01*
X207559523Y-147904761D01*
X207654761Y-147952380D01*
X207845238Y-147952380D01*
X207940476Y-147904761D01*
X207988095Y-147857142D01*
X208035714Y-147761904D01*
X208035714Y-147571428D01*
X207988095Y-147476190D01*
X207940476Y-147428571D01*
X207845238Y-147380952D01*
X221002380Y-106666666D02*
X220526190Y-107000000D01*
X221002380Y-107238095D02*
X220002380Y-107238095D01*
X220002380Y-106857142D01*
X220050000Y-106761904D01*
X220097619Y-106714285D01*
X220192857Y-106666666D01*
X220335714Y-106666666D01*
X220430952Y-106714285D01*
X220478571Y-106761904D01*
X220526190Y-106857142D01*
X220526190Y-107238095D01*
X220002380Y-106333333D02*
X220002380Y-105666666D01*
X221002380Y-106095238D01*
X226402380Y-106666666D02*
X225926190Y-107000000D01*
X226402380Y-107238095D02*
X225402380Y-107238095D01*
X225402380Y-106857142D01*
X225450000Y-106761904D01*
X225497619Y-106714285D01*
X225592857Y-106666666D01*
X225735714Y-106666666D01*
X225830952Y-106714285D01*
X225878571Y-106761904D01*
X225926190Y-106857142D01*
X225926190Y-107238095D01*
X225402380Y-105809523D02*
X225402380Y-106000000D01*
X225450000Y-106095238D01*
X225497619Y-106142857D01*
X225640476Y-106238095D01*
X225830952Y-106285714D01*
X226211904Y-106285714D01*
X226307142Y-106238095D01*
X226354761Y-106190476D01*
X226402380Y-106095238D01*
X226402380Y-105904761D01*
X226354761Y-105809523D01*
X226307142Y-105761904D01*
X226211904Y-105714285D01*
X225973809Y-105714285D01*
X225878571Y-105761904D01*
X225830952Y-105809523D01*
X225783333Y-105904761D01*
X225783333Y-106095238D01*
X225830952Y-106190476D01*
X225878571Y-106238095D01*
X225973809Y-106285714D01*
X257552380Y-122866666D02*
X257076190Y-123200000D01*
X257552380Y-123438095D02*
X256552380Y-123438095D01*
X256552380Y-123057142D01*
X256600000Y-122961904D01*
X256647619Y-122914285D01*
X256742857Y-122866666D01*
X256885714Y-122866666D01*
X256980952Y-122914285D01*
X257028571Y-122961904D01*
X257076190Y-123057142D01*
X257076190Y-123438095D01*
X256552380Y-121961904D02*
X256552380Y-122438095D01*
X257028571Y-122485714D01*
X256980952Y-122438095D01*
X256933333Y-122342857D01*
X256933333Y-122104761D01*
X256980952Y-122009523D01*
X257028571Y-121961904D01*
X257123809Y-121914285D01*
X257361904Y-121914285D01*
X257457142Y-121961904D01*
X257504761Y-122009523D01*
X257552380Y-122104761D01*
X257552380Y-122342857D01*
X257504761Y-122438095D01*
X257457142Y-122485714D01*
X250052380Y-122866666D02*
X249576190Y-123200000D01*
X250052380Y-123438095D02*
X249052380Y-123438095D01*
X249052380Y-123057142D01*
X249100000Y-122961904D01*
X249147619Y-122914285D01*
X249242857Y-122866666D01*
X249385714Y-122866666D01*
X249480952Y-122914285D01*
X249528571Y-122961904D01*
X249576190Y-123057142D01*
X249576190Y-123438095D01*
X249385714Y-122009523D02*
X250052380Y-122009523D01*
X249004761Y-122247619D02*
X249719047Y-122485714D01*
X249719047Y-121866666D01*
X242552380Y-122866666D02*
X242076190Y-123200000D01*
X242552380Y-123438095D02*
X241552380Y-123438095D01*
X241552380Y-123057142D01*
X241600000Y-122961904D01*
X241647619Y-122914285D01*
X241742857Y-122866666D01*
X241885714Y-122866666D01*
X241980952Y-122914285D01*
X242028571Y-122961904D01*
X242076190Y-123057142D01*
X242076190Y-123438095D01*
X241552380Y-122533333D02*
X241552380Y-121914285D01*
X241933333Y-122247619D01*
X241933333Y-122104761D01*
X241980952Y-122009523D01*
X242028571Y-121961904D01*
X242123809Y-121914285D01*
X242361904Y-121914285D01*
X242457142Y-121961904D01*
X242504761Y-122009523D01*
X242552380Y-122104761D01*
X242552380Y-122390476D01*
X242504761Y-122485714D01*
X242457142Y-122533333D01*
X235052380Y-122866666D02*
X234576190Y-123200000D01*
X235052380Y-123438095D02*
X234052380Y-123438095D01*
X234052380Y-123057142D01*
X234100000Y-122961904D01*
X234147619Y-122914285D01*
X234242857Y-122866666D01*
X234385714Y-122866666D01*
X234480952Y-122914285D01*
X234528571Y-122961904D01*
X234576190Y-123057142D01*
X234576190Y-123438095D01*
X234147619Y-122485714D02*
X234100000Y-122438095D01*
X234052380Y-122342857D01*
X234052380Y-122104761D01*
X234100000Y-122009523D01*
X234147619Y-121961904D01*
X234242857Y-121914285D01*
X234338095Y-121914285D01*
X234480952Y-121961904D01*
X235052380Y-122533333D01*
X235052380Y-121914285D01*
X227552380Y-122866666D02*
X227076190Y-123200000D01*
X227552380Y-123438095D02*
X226552380Y-123438095D01*
X226552380Y-123057142D01*
X226600000Y-122961904D01*
X226647619Y-122914285D01*
X226742857Y-122866666D01*
X226885714Y-122866666D01*
X226980952Y-122914285D01*
X227028571Y-122961904D01*
X227076190Y-123057142D01*
X227076190Y-123438095D01*
X227552380Y-121914285D02*
X227552380Y-122485714D01*
X227552380Y-122200000D02*
X226552380Y-122200000D01*
X226695238Y-122295238D01*
X226790476Y-122390476D01*
X226838095Y-122485714D01*
X230202380Y-136333333D02*
X230916666Y-136333333D01*
X231059523Y-136380952D01*
X231154761Y-136476190D01*
X231202380Y-136619047D01*
X231202380Y-136714285D01*
X230202380Y-135428571D02*
X230202380Y-135619047D01*
X230250000Y-135714285D01*
X230297619Y-135761904D01*
X230440476Y-135857142D01*
X230630952Y-135904761D01*
X231011904Y-135904761D01*
X231107142Y-135857142D01*
X231154761Y-135809523D01*
X231202380Y-135714285D01*
X231202380Y-135523809D01*
X231154761Y-135428571D01*
X231107142Y-135380952D01*
X231011904Y-135333333D01*
X230773809Y-135333333D01*
X230678571Y-135380952D01*
X230630952Y-135428571D01*
X230583333Y-135523809D01*
X230583333Y-135714285D01*
X230630952Y-135809523D01*
X230678571Y-135857142D01*
X230773809Y-135904761D01*
X257452380Y-136333333D02*
X258166666Y-136333333D01*
X258309523Y-136380952D01*
X258404761Y-136476190D01*
X258452380Y-136619047D01*
X258452380Y-136714285D01*
X257452380Y-135380952D02*
X257452380Y-135857142D01*
X257928571Y-135904761D01*
X257880952Y-135857142D01*
X257833333Y-135761904D01*
X257833333Y-135523809D01*
X257880952Y-135428571D01*
X257928571Y-135380952D01*
X258023809Y-135333333D01*
X258261904Y-135333333D01*
X258357142Y-135380952D01*
X258404761Y-135428571D01*
X258452380Y-135523809D01*
X258452380Y-135761904D01*
X258404761Y-135857142D01*
X258357142Y-135904761D01*
X249452380Y-136333333D02*
X250166666Y-136333333D01*
X250309523Y-136380952D01*
X250404761Y-136476190D01*
X250452380Y-136619047D01*
X250452380Y-136714285D01*
X249785714Y-135428571D02*
X250452380Y-135428571D01*
X249404761Y-135666666D02*
X250119047Y-135904761D01*
X250119047Y-135285714D01*
X242202380Y-136333333D02*
X242916666Y-136333333D01*
X243059523Y-136380952D01*
X243154761Y-136476190D01*
X243202380Y-136619047D01*
X243202380Y-136714285D01*
X242202380Y-135952380D02*
X242202380Y-135333333D01*
X242583333Y-135666666D01*
X242583333Y-135523809D01*
X242630952Y-135428571D01*
X242678571Y-135380952D01*
X242773809Y-135333333D01*
X243011904Y-135333333D01*
X243107142Y-135380952D01*
X243154761Y-135428571D01*
X243202380Y-135523809D01*
X243202380Y-135809523D01*
X243154761Y-135904761D01*
X243107142Y-135952380D01*
X236202380Y-136333333D02*
X236916666Y-136333333D01*
X237059523Y-136380952D01*
X237154761Y-136476190D01*
X237202380Y-136619047D01*
X237202380Y-136714285D01*
X236297619Y-135904761D02*
X236250000Y-135857142D01*
X236202380Y-135761904D01*
X236202380Y-135523809D01*
X236250000Y-135428571D01*
X236297619Y-135380952D01*
X236392857Y-135333333D01*
X236488095Y-135333333D01*
X236630952Y-135380952D01*
X237202380Y-135952380D01*
X237202380Y-135333333D01*
X226202380Y-136333333D02*
X226916666Y-136333333D01*
X227059523Y-136380952D01*
X227154761Y-136476190D01*
X227202380Y-136619047D01*
X227202380Y-136714285D01*
X227202380Y-135333333D02*
X227202380Y-135904761D01*
X227202380Y-135619047D02*
X226202380Y-135619047D01*
X226345238Y-135714285D01*
X226440476Y-135809523D01*
X226488095Y-135904761D01*
X209761904Y-148202380D02*
X209761904Y-147202380D01*
X210000000Y-147202380D01*
X210142857Y-147250000D01*
X210238095Y-147345238D01*
X210285714Y-147440476D01*
X210333333Y-147630952D01*
X210333333Y-147773809D01*
X210285714Y-147964285D01*
X210238095Y-148059523D01*
X210142857Y-148154761D01*
X210000000Y-148202380D01*
X209761904Y-148202380D01*
X211285714Y-148202380D02*
X210714285Y-148202380D01*
X211000000Y-148202380D02*
X211000000Y-147202380D01*
X210904761Y-147345238D01*
X210809523Y-147440476D01*
X210714285Y-147488095D01*
X263657142Y-127892857D02*
X263704761Y-127940476D01*
X263752380Y-128083333D01*
X263752380Y-128178571D01*
X263704761Y-128321428D01*
X263609523Y-128416666D01*
X263514285Y-128464285D01*
X263323809Y-128511904D01*
X263180952Y-128511904D01*
X262990476Y-128464285D01*
X262895238Y-128416666D01*
X262800000Y-128321428D01*
X262752380Y-128178571D01*
X262752380Y-128083333D01*
X262800000Y-127940476D01*
X262847619Y-127892857D01*
X263752380Y-126940476D02*
X263752380Y-127511904D01*
X263752380Y-127226190D02*
X262752380Y-127226190D01*
X262895238Y-127321428D01*
X262990476Y-127416666D01*
X263038095Y-127511904D01*
X262752380Y-126321428D02*
X262752380Y-126226190D01*
X262800000Y-126130952D01*
X262847619Y-126083333D01*
X262942857Y-126035714D01*
X263133333Y-125988095D01*
X263371428Y-125988095D01*
X263561904Y-126035714D01*
X263657142Y-126083333D01*
X263704761Y-126130952D01*
X263752380Y-126226190D01*
X263752380Y-126321428D01*
X263704761Y-126416666D01*
X263657142Y-126464285D01*
X263561904Y-126511904D01*
X263371428Y-126559523D01*
X263133333Y-126559523D01*
X262942857Y-126511904D01*
X262847619Y-126464285D01*
X262800000Y-126416666D01*
X262752380Y-126321428D01*
X263857142Y-135416666D02*
X263904761Y-135464285D01*
X263952380Y-135607142D01*
X263952380Y-135702380D01*
X263904761Y-135845238D01*
X263809523Y-135940476D01*
X263714285Y-135988095D01*
X263523809Y-136035714D01*
X263380952Y-136035714D01*
X263190476Y-135988095D01*
X263095238Y-135940476D01*
X263000000Y-135845238D01*
X262952380Y-135702380D01*
X262952380Y-135607142D01*
X263000000Y-135464285D01*
X263047619Y-135416666D01*
X263952380Y-134940476D02*
X263952380Y-134750000D01*
X263904761Y-134654761D01*
X263857142Y-134607142D01*
X263714285Y-134511904D01*
X263523809Y-134464285D01*
X263142857Y-134464285D01*
X263047619Y-134511904D01*
X263000000Y-134559523D01*
X262952380Y-134654761D01*
X262952380Y-134845238D01*
X263000000Y-134940476D01*
X263047619Y-134988095D01*
X263142857Y-135035714D01*
X263380952Y-135035714D01*
X263476190Y-134988095D01*
X263523809Y-134940476D01*
X263571428Y-134845238D01*
X263571428Y-134654761D01*
X263523809Y-134559523D01*
X263476190Y-134511904D01*
X263380952Y-134464285D01*
X256157142Y-126916666D02*
X256204761Y-126964285D01*
X256252380Y-127107142D01*
X256252380Y-127202380D01*
X256204761Y-127345238D01*
X256109523Y-127440476D01*
X256014285Y-127488095D01*
X255823809Y-127535714D01*
X255680952Y-127535714D01*
X255490476Y-127488095D01*
X255395238Y-127440476D01*
X255300000Y-127345238D01*
X255252380Y-127202380D01*
X255252380Y-127107142D01*
X255300000Y-126964285D01*
X255347619Y-126916666D01*
X255680952Y-126345238D02*
X255633333Y-126440476D01*
X255585714Y-126488095D01*
X255490476Y-126535714D01*
X255442857Y-126535714D01*
X255347619Y-126488095D01*
X255300000Y-126440476D01*
X255252380Y-126345238D01*
X255252380Y-126154761D01*
X255300000Y-126059523D01*
X255347619Y-126011904D01*
X255442857Y-125964285D01*
X255490476Y-125964285D01*
X255585714Y-126011904D01*
X255633333Y-126059523D01*
X255680952Y-126154761D01*
X255680952Y-126345238D01*
X255728571Y-126440476D01*
X255776190Y-126488095D01*
X255871428Y-126535714D01*
X256061904Y-126535714D01*
X256157142Y-126488095D01*
X256204761Y-126440476D01*
X256252380Y-126345238D01*
X256252380Y-126154761D01*
X256204761Y-126059523D01*
X256157142Y-126011904D01*
X256061904Y-125964285D01*
X255871428Y-125964285D01*
X255776190Y-126011904D01*
X255728571Y-126059523D01*
X255680952Y-126154761D01*
X256357142Y-135416666D02*
X256404761Y-135464285D01*
X256452380Y-135607142D01*
X256452380Y-135702380D01*
X256404761Y-135845238D01*
X256309523Y-135940476D01*
X256214285Y-135988095D01*
X256023809Y-136035714D01*
X255880952Y-136035714D01*
X255690476Y-135988095D01*
X255595238Y-135940476D01*
X255500000Y-135845238D01*
X255452380Y-135702380D01*
X255452380Y-135607142D01*
X255500000Y-135464285D01*
X255547619Y-135416666D01*
X255452380Y-135083333D02*
X255452380Y-134416666D01*
X256452380Y-134845238D01*
X248657142Y-126916666D02*
X248704761Y-126964285D01*
X248752380Y-127107142D01*
X248752380Y-127202380D01*
X248704761Y-127345238D01*
X248609523Y-127440476D01*
X248514285Y-127488095D01*
X248323809Y-127535714D01*
X248180952Y-127535714D01*
X247990476Y-127488095D01*
X247895238Y-127440476D01*
X247800000Y-127345238D01*
X247752380Y-127202380D01*
X247752380Y-127107142D01*
X247800000Y-126964285D01*
X247847619Y-126916666D01*
X247752380Y-126059523D02*
X247752380Y-126250000D01*
X247800000Y-126345238D01*
X247847619Y-126392857D01*
X247990476Y-126488095D01*
X248180952Y-126535714D01*
X248561904Y-126535714D01*
X248657142Y-126488095D01*
X248704761Y-126440476D01*
X248752380Y-126345238D01*
X248752380Y-126154761D01*
X248704761Y-126059523D01*
X248657142Y-126011904D01*
X248561904Y-125964285D01*
X248323809Y-125964285D01*
X248228571Y-126011904D01*
X248180952Y-126059523D01*
X248133333Y-126154761D01*
X248133333Y-126345238D01*
X248180952Y-126440476D01*
X248228571Y-126488095D01*
X248323809Y-126535714D01*
X248857142Y-135416666D02*
X248904761Y-135464285D01*
X248952380Y-135607142D01*
X248952380Y-135702380D01*
X248904761Y-135845238D01*
X248809523Y-135940476D01*
X248714285Y-135988095D01*
X248523809Y-136035714D01*
X248380952Y-136035714D01*
X248190476Y-135988095D01*
X248095238Y-135940476D01*
X248000000Y-135845238D01*
X247952380Y-135702380D01*
X247952380Y-135607142D01*
X248000000Y-135464285D01*
X248047619Y-135416666D01*
X247952380Y-134511904D02*
X247952380Y-134988095D01*
X248428571Y-135035714D01*
X248380952Y-134988095D01*
X248333333Y-134892857D01*
X248333333Y-134654761D01*
X248380952Y-134559523D01*
X248428571Y-134511904D01*
X248523809Y-134464285D01*
X248761904Y-134464285D01*
X248857142Y-134511904D01*
X248904761Y-134559523D01*
X248952380Y-134654761D01*
X248952380Y-134892857D01*
X248904761Y-134988095D01*
X248857142Y-135035714D01*
X241157142Y-126916666D02*
X241204761Y-126964285D01*
X241252380Y-127107142D01*
X241252380Y-127202380D01*
X241204761Y-127345238D01*
X241109523Y-127440476D01*
X241014285Y-127488095D01*
X240823809Y-127535714D01*
X240680952Y-127535714D01*
X240490476Y-127488095D01*
X240395238Y-127440476D01*
X240300000Y-127345238D01*
X240252380Y-127202380D01*
X240252380Y-127107142D01*
X240300000Y-126964285D01*
X240347619Y-126916666D01*
X240585714Y-126059523D02*
X241252380Y-126059523D01*
X240204761Y-126297619D02*
X240919047Y-126535714D01*
X240919047Y-125916666D01*
X241357142Y-135416666D02*
X241404761Y-135464285D01*
X241452380Y-135607142D01*
X241452380Y-135702380D01*
X241404761Y-135845238D01*
X241309523Y-135940476D01*
X241214285Y-135988095D01*
X241023809Y-136035714D01*
X240880952Y-136035714D01*
X240690476Y-135988095D01*
X240595238Y-135940476D01*
X240500000Y-135845238D01*
X240452380Y-135702380D01*
X240452380Y-135607142D01*
X240500000Y-135464285D01*
X240547619Y-135416666D01*
X240452380Y-135083333D02*
X240452380Y-134464285D01*
X240833333Y-134797619D01*
X240833333Y-134654761D01*
X240880952Y-134559523D01*
X240928571Y-134511904D01*
X241023809Y-134464285D01*
X241261904Y-134464285D01*
X241357142Y-134511904D01*
X241404761Y-134559523D01*
X241452380Y-134654761D01*
X241452380Y-134940476D01*
X241404761Y-135035714D01*
X241357142Y-135083333D01*
X233857142Y-135416666D02*
X233904761Y-135464285D01*
X233952380Y-135607142D01*
X233952380Y-135702380D01*
X233904761Y-135845238D01*
X233809523Y-135940476D01*
X233714285Y-135988095D01*
X233523809Y-136035714D01*
X233380952Y-136035714D01*
X233190476Y-135988095D01*
X233095238Y-135940476D01*
X233000000Y-135845238D01*
X232952380Y-135702380D01*
X232952380Y-135607142D01*
X233000000Y-135464285D01*
X233047619Y-135416666D01*
X233047619Y-135035714D02*
X233000000Y-134988095D01*
X232952380Y-134892857D01*
X232952380Y-134654761D01*
X233000000Y-134559523D01*
X233047619Y-134511904D01*
X233142857Y-134464285D01*
X233238095Y-134464285D01*
X233380952Y-134511904D01*
X233952380Y-135083333D01*
X233952380Y-134464285D01*
X233657142Y-126916666D02*
X233704761Y-126964285D01*
X233752380Y-127107142D01*
X233752380Y-127202380D01*
X233704761Y-127345238D01*
X233609523Y-127440476D01*
X233514285Y-127488095D01*
X233323809Y-127535714D01*
X233180952Y-127535714D01*
X232990476Y-127488095D01*
X232895238Y-127440476D01*
X232800000Y-127345238D01*
X232752380Y-127202380D01*
X232752380Y-127107142D01*
X232800000Y-126964285D01*
X232847619Y-126916666D01*
X233752380Y-125964285D02*
X233752380Y-126535714D01*
X233752380Y-126250000D02*
X232752380Y-126250000D01*
X232895238Y-126345238D01*
X232990476Y-126440476D01*
X233038095Y-126535714D01*
X213666666Y-148452380D02*
X213666666Y-149166666D01*
X213619047Y-149309523D01*
X213523809Y-149404761D01*
X213380952Y-149452380D01*
X213285714Y-149452380D01*
X214047619Y-148452380D02*
X214714285Y-148452380D01*
X214285714Y-149452380D01*
M02*
